{
.appVersion = "3151";
.formatVersion = 3;
customParameters = (
{
name = vendorID;
value = COMM;
},
{
name = panose;
value = (
2,
13,
2,
4,
3,
5,
2,
5,
2,
3
);
},
{
name = unicodeRanges;
value = (
0,
1,
2
);
},
{
name = codePageRanges;
value = (
"1252",
"1250",
"1254",
"1257",
"bit 29"
);
},
{
name = fsType;
value = (
2
);
},
{
name = blueScale;
value = 0.0384;
},
{
name = glyphOrder;
value = (
.notdef,
Eth,
eth,
Lslash,
lslash,
Scaron,
scaron,
Yacute,
yacute,
Thorn,
thorn,
Zcaron,
zcaron,
onehalf,
onequarter,
onesuperior,
threequarters,
threesuperior,
twosuperior,
brokenbar,
minus,
multiply,
space,
exclam,
quotedbl,
numbersign,
dollar,
percent,
ampersand,
quotesingle,
parenleft,
parenright,
asterisk,
plus,
comma,
hyphen,
period,
slash,
zero,
one,
two,
three,
four,
five,
six,
seven,
eight,
nine,
colon,
semicolon,
less,
equal,
greater,
question,
at,
A,
B,
C,
D,
E,
F,
G,
H,
I,
J,
K,
L,
M,
N,
O,
P,
Q,
R,
S,
T,
U,
V,
W,
X,
Y,
Z,
bracketleft,
backslash,
bracketright,
asciicircum,
underscore,
grave,
a,
b,
c,
d,
e,
f,
g,
h,
i,
j,
k,
l,
m,
n,
o,
p,
q,
r,
s,
t,
u,
v,
w,
x,
y,
z,
braceleft,
bar,
braceright,
asciitilde,
Adieresis,
Aring,
Ccedilla,
Eacute,
Ntilde,
Odieresis,
Udieresis,
aacute,
agrave,
acircumflex,
adieresis,
atilde,
aring,
ccedilla,
eacute,
egrave,
ecircumflex,
edieresis,
iacute,
igrave,
icircumflex,
idieresis,
ntilde,
oacute,
ograve,
ocircumflex,
odieresis,
otilde,
uacute,
ugrave,
ucircumflex,
udieresis,
dagger,
degree,
cent,
sterling,
section,
bullet,
paragraph,
germandbls,
registered,
copyright,
trademark,
acute,
dieresis,
notequal,
AE,
Oslash,
infinity,
plusminus,
lessequal,
greaterequal,
yen,
mu,
partialdiff,
summation,
product,
pi,
integral,
ordfeminine,
ordmasculine,
Omega,
ae,
oslash,
questiondown,
exclamdown,
logicalnot,
radical,
florin,
approxequal,
Delta,
guillemotleft,
guillemotright,
ellipsis,
uni00A0,
Agrave,
Atilde,
Otilde,
OE,
oe,
endash,
emdash,
quotedblleft,
quotedblright,
quoteleft,
quoteright,
divide,
lozenge,
ydieresis,
Ydieresis,

glyphs = (
{
glyphname = Eth;
kernRight = Eth;
layers = (
{
hints = (
{
horizontal = 1;
place = (0, 13);
place = (0, 13);
type = Stem;
},
{
horizontal = 1;
place = (354, 14);
place = (354, 14);
type = Stem;
},
{
horizontal = 1;
place = (701, 14);
place = (701, 14);
type = Stem;
},
{
place = (79, 14);
place = (79, 14);
type = Stem;
},
{
place = (617, 15);
place = (617, 15);
type = Stem;
}
);
layerId = m01;
shapes = (
{
closed = 1;
nodes = (
(79,0,l),
(333,0,ls),
(539,0,o),
(632,161,o),
(632,354,cs),
(632,544,o),
(547,715,o),
(340,715,cs),
(79,715,l),
(79,368,l),
(5,368,l),
(5,354,l),
(79,354,l)
);
},
{
closed = 1;
nodes = (
(93,13,l),
(93,354,l),
(351,354,l),
(351,368,l),
(93,368,l),
(93,701,l),
(341,701,ls),
(514,701,o),
(617,565,o),
(617,354,cs),
(617,141,o),
(507,13,o),
(334,13,cs)
);
}
);
width = 672;
}
);
note = Eth;
unicode = 208;
},
{
glyphname = eth;
layers = (
{
hints = (
{
horizontal = 1;
place = (-8, 14);
place = (-8, 14);
type = Stem;
},
{
horizontal = 1;
place = (509, 14);
place = (509, 14);
type = Stem;
},
{
horizontal = 1;
place = (715, -20);
target = down;
type = TopGhost;
},
{
place = (26, 15);
place = (26, 15);
type = Stem;
},
{
place = (486, 15);
place = (486, 15);
type = Stem;
}
);
layerId = m01;
shapes = (
{
closed = 1;
nodes = (
(165,574,l),
(330,628,l),
(390,569,o),
(446,491,o),
(472,391,c),
(435,472,o),
(351,523,o),
(256,523,cs),
(113,523,o),
(26,402,o),
(26,258,cs),
(26,114,o),
(122,-8,o),
(266,-8,cs),
(420,-8,o),
(501,115,o),
(501,271,cs),
(501,437,o),
(426,555,o),
(346,634,c),
(436,664,l),
(432,678,l),
(334,645,l),
(304,673,o),
(274,696,o),
(247,715,c),
(222,715,l),
(252,695,o),
(285,670,o),
(318,640,c),
(161,588,l)
);
},
{
closed = 1;
nodes = (
(486,123,o),
(410,6,o),
(266,6,cs),
(131,6,o),
(41,122,o),
(41,258,cs),
(41,394,o),
(121,509,o),
(256,509,cs),
(394,509,o),
(486,405,o),
(486,271,cs)
);
}
);
width = 527;
}
);
note = eth;
unicode = 240;
},
{
glyphname = Lslash;
layers = (
{
hints = (
{
horizontal = 1;
place = (0, 14);
place = (0, 14);
type = Stem;
},
{
horizontal = 1;
place = (715, -20);
target = down;
type = TopGhost;
},
{
place = (67, 15);
place = (67, 15);
type = Stem;
}
);
layerId = m01;
shapes = (
{
closed = 1;
nodes = (
(385,469,l),
(82,294,l),
(82,715,l),
(67,715,l),
(67,285,l),
(-5,244,l),
(-5,229,l),
(67,270,l),
(67,0,l),
(513,0,l),
(513,14,l),
(82,14,l),
(82,279,l),
(385,453,l)
);
}
);
width = 535;
}
);
note = Lslash;
unicode = 321;
},
{
glyphname = lslash;
layers = (
{
hints = (
{
horizontal = 1;
place = (0, 21);
target = up;
type = BottomGhost;
},
{
horizontal = 1;
place = (715, -20);
target = down;
type = TopGhost;
},
{
place = (75, 15);
place = (75, 15);
type = Stem;
}
);
layerId = m01;
shapes = (
{
closed = 1;
nodes = (
(163,444,l),
(90,382,l),
(90,715,l),
(75,715,l),
(75,370,l),
(5,311,l),
(5,293,l),
(75,351,l),
(75,0,l),
(90,0,l),
(90,364,l),
(163,425,l)
);
}
);
width = 157;
}
);
note = lslash;
unicode = 322;
},
{
glyphname = Scaron;
kernLeft = Scaron;
kernRight = Scaron;
layers = (
{
hints = (
{
horizontal = 1;
place = (-9, 14);
place = (-9, 14);
type = Stem;
},
{
horizontal = 1;
place = (709, 14);
place = (709, 14);
type = Stem;
},
{
place = (22, 15);
place = (22, 15);
type = Stem;
},
{
place = (52, 15);
place = (52, 15);
type = Stem;
},
{
place = (538, 15);
place = (538, 15);
type = Stem;
},
{
horizontal = 1;
place = (758, 12);
place = (758, 12);
type = Stem;
}
);
layerId = m01;
shapes = (
{
closed = 1;
nodes = (
(22,227,l),
(31,92,o),
(120,-9,o),
(307,-9,cs),
(462,-9,o),
(553,68,o),
(553,184,cs),
(553,313,o),
(457,357,o),
(291,387,cs),
(142,414,o),
(67,454,o),
(67,555,cs),
(67,651,o),
(148,709,o),
(279,709,cs),
(415,709,o),
(494,637,o),
(511,521,c),
(526,521,l),
(508,643,o),
(426,723,o),
(279,723,cs),
(141,723,o),
(52,659,o),
(52,555,cs),
(52,446,o),
(134,401,o),
(289,373,cs),
(452,344,o),
(538,302,o),
(538,184,cs),
(538,77,o),
(454,5,o),
(307,5,cs),
(129,5,o),
(47,98,o),
(37,227,c)
);
},
{
closed = 1;
nodes = (
(385,862,l),
(368,862,l),
(283,770,l),
(198,862,l),
(181,862,l),
(275,758,l),
(291,758,l)
);
}
);
width = 589;
}
);
note = Scaron;
unicode = 352;
},
{
glyphname = scaron;
kernLeft = scaron;
kernRight = scaron;
layers = (
{
hints = (
{
horizontal = 1;
place = (-8, 14);
place = (-8, 14);
type = Stem;
},
{
horizontal = 1;
place = (510, 14);
place = (510, 14);
type = Stem;
},
{
place = (22, 15);
place = (22, 15);
type = Stem;
},
{
place = (416, 14);
place = (416, 14);
type = Stem;
},
{
place = (44, 15);
place = (44, 15);
type = Stem;
},
{
horizontal = 1;
place = (602, 12);
place = (602, 12);
type = Stem;
}
);
layerId = m01;
shapes = (
{
closed = 1;
nodes = (
(22,161,l),
(30,58,o),
(98,-8,o),
(236,-8,cs),
(350,-8,o),
(430,39,o),
(430,131,cs),
(430,221,o),
(378,261,o),
(233,281,cs),
(99,299,o),
(59,338,o),
(59,399,cs),
(59,461,o),
(103,510,o),
(217,510,cs),
(334,510,o),
(378,454,o),
(392,374,c),
(407,374,l),
(393,460,o),
(343,524,o),
(217,524,cs),
(96,524,o),
(44,469,o),
(44,399,cs),
(44,329,o),
(89,288,o),
(230,268,cs),
(367,249,o),
(416,213,o),
(416,131,cs),
(416,55,o),
(352,6,o),
(236,6,cs),
(106,6,o),
(45,66,o),
(37,161,c)
);
},
{
closed = 1;
nodes = (
(322,706,l),
(305,706,l),
(220,614,l),
(135,706,l),
(118,706,l),
(212,602,l),
(228,602,l)
);
}
);
width = 453;
}
);
note = scaron;
unicode = 353;
},
{
glyphname = Yacute;
kernLeft = Yacute;
kernRight = Yacute;
layers = (
{
hints = (
{
horizontal = 1;
place = (0, 21);
target = up;
type = BottomGhost;
},
{
horizontal = 1;
place = (715, -20);
target = down;
type = TopGhost;
},
{
place = (279, 15);
place = (279, 15);
type = Stem;
}
);
layerId = m01;
shapes = (
{
closed = 1;
nodes = (
(27,715,l),
(10,715,l),
(279,324,l),
(279,0,l),
(294,0,l),
(294,324,l),
(563,715,l),
(546,715,l),
(286,337,l)
);
},
{
closed = 1;
nodes = (
(273,756,l),
(289,756,l),
(351,871,l),
(334,871,l)
);
}
);
width = 573;
}
);
note = Yacute;
unicode = 221;
},
{
glyphname = yacute;
kernLeft = yacute;
kernRight = yacute;
layers = (
{
hints = (
{
horizontal = 1;
place = (-168, 14);
place = (-168, 14);
type = Stem;
},
{
horizontal = 1;
place = (517, -20);
target = down;
type = TopGhost;
},
{
place = (2, 425);
place = (2, 425);
type = Stem;
},
{
horizontal = 1;
place = (-160, 21);
target = up;
type = BottomGhost;
}
);
layerId = m01;
shapes = (
{
closed = 1;
nodes = (
(427,517,l),
(411,517,l),
(217,40,l),
(19,517,l),
(2,517,l),
(209,20,l),
(185,-39,ls),
(143,-143,o),
(124,-154,o),
(79,-154,cs),
(60,-154,o),
(42,-150,o),
(30,-145,c),
(29,-145,l),
(29,-160,l),
(40,-164,o),
(57,-168,o),
(79,-168,cs),
(136,-168,o),
(157,-150,o),
(199,-45,cs)
);
},
{
closed = 1;
nodes = (
(199,604,l),
(215,604,l),
(280,725,l),
(263,725,l)
);
}
);
width = 429;
}
);
note = yacute;
unicode = 253;
},
{
glyphname = Thorn;
layers = (
{
hints = (
{
horizontal = 1;
place = (0, 21);
target = up;
type = BottomGhost;
},
{
horizontal = 1;
place = (191, 14);
place = (191, 14);
type = Stem;
},
{
horizontal = 1;
place = (556, 14);
place = (556, 14);
type = Stem;
},
{
horizontal = 1;
place = (715, -20);
target = down;
type = TopGhost;
},
{
place = (67, 15);
place = (67, 15);
type = Stem;
},
{
place = (509, 15);
place = (509, 15);
type = Stem;
}
);
layerId = m01;
shapes = (
{
closed = 1;
nodes = (
(82,715,l),
(67,715,l),
(67,0,l),
(82,0,l),
(82,191,l),
(284,191,ls),
(445,191,o),
(524,249,o),
(524,382,cs),
(524,453,o),
(502,500,o),
(462,529,cs),
(422,559,o),
(366,570,o),
(297,570,cs),
(82,570,l)
);
},
{
closed = 1;
nodes = (
(297,556,ls),
(426,556,o),
(509,514,o),
(509,382,cs),
(509,256,o),
(435,205,o),
(284,205,cs),
(82,205,l),
(82,556,l)
);
}
);
width = 541;
}
);
note = Thorn;
unicode = 222;
},
{
glyphname = thorn;
kernRight = thorn;
layers = (
{
hints = (
{
horizontal = 1;
place = (-166, 21);
target = up;
type = BottomGhost;
},
{
horizontal = 1;
place = (-7, 14);
place = (-7, 14);
type = Stem;
},
{
horizontal = 1;
place = (510, 14);
place = (510, 14);
type = Stem;
},
{
horizontal = 1;
place = (715, -20);
target = down;
type = TopGhost;
},
{
place = (55, 15);
place = (55, 15);
type = Stem;
},
{
place = (488, 15);
place = (488, 15);
type = Stem;
}
);
layerId = m01;
shapes = (
{
closed = 1;
nodes = (
(55,-166,l),
(70,-166,l),
(70,148,l),
(72,148,l),
(98,57,o),
(179,-7,o),
(280,-7,cs),
(408,-7,o),
(503,97,o),
(503,259,cs),
(503,440,o),
(397,524,o),
(282,524,cs),
(190,524,o),
(108,473,o),
(72,368,c),
(70,368,l),
(70,715,l),
(55,715,l)
);
},
{
closed = 1;
nodes = (
(158,7,o),
(70,103,o),
(70,256,cs),
(70,410,o),
(158,510,o),
(278,510,cs),
(389,510,o),
(488,434,o),
(488,258,cs),
(488,102,o),
(396,7,o),
(279,7,cs)
);
}
);
width = 529;
}
);
note = thorn;
unicode = 254;
},
{
glyphname = Zcaron;
kernLeft = Zcaron;
kernRight = Zcaron;
layers = (
{
hints = (
{
horizontal = 1;
place = (0, 14);
place = (0, 14);
type = Stem;
},
{
horizontal = 1;
place = (701, 14);
place = (701, 14);
type = Stem;
},
{
place = (30, 18);
place = (30, 18);
type = Stem;
},
{
place = (523, 18);
place = (523, 18);
type = Stem;
},
{
horizontal = 1;
place = (701, 161);
place = (701, 161);
type = Stem;
},
{
horizontal = 1;
place = (758, 12);
place = (758, 12);
type = Stem;
}
);
layerId = m01;
shapes = (
{
closed = 1;
nodes = (
(53,701,l),
(523,701,l),
(30,14,l),
(30,0,l),
(565,0,l),
(565,14,l),
(48,14,l),
(541,701,l),
(541,715,l),
(53,715,l)
);
},
{
closed = 1;
nodes = (
(400,862,l),
(383,862,l),
(298,770,l),
(213,862,l),
(196,862,l),
(290,758,l),
(306,758,l)
);
}
);
width = 601;
}
);
note = Zcaron;
unicode = 381;
},
{
glyphname = zcaron;
kernLeft = zcaron;
kernRight = zcaron;
layers = (
{
hints = (
{
horizontal = 1;
place = (0, 14);
place = (0, 14);
type = Stem;
},
{
horizontal = 1;
place = (503, 14);
place = (503, 14);
type = Stem;
},
{
horizontal = 1;
place = (602, 12);
place = (602, 12);
type = Stem;
},
{
place = (34, 18);
place = (34, 18);
type = Stem;
},
{
place = (391, 19);
place = (391, 19);
type = Stem;
}
);
layerId = m01;
shapes = (
{
closed = 1;
nodes = (
(410,503,l),
(410,517,l),
(50,517,l),
(50,503,l),
(391,503,l),
(34,14,l),
(34,0,l),
(425,0,l),
(425,14,l),
(52,14,l)
);
},
{
closed = 1;
nodes = (
(333,706,l),
(316,706,l),
(231,614,l),
(146,706,l),
(129,706,l),
(223,602,l),
(239,602,l)
);
}
);
width = 450;
}
);
note = zcaron;
unicode = 382;
},
{
glyphname = onehalf;
layers = (
{
hints = (
{
horizontal = 1;
place = (0, 14);
place = (0, 14);
type = Stem;
},
{
horizontal = 1;
place = (401, 14);
place = (401, 14);
type = Stem;
},
{
horizontal = 1;
place = (620, 14);
place = (620, 14);
type = Stem;
},
{
horizontal = 1;
place = (715, -20);
target = down;
type = TopGhost;
},
{
place = (132, 15);
place = (132, 15);
type = Stem;
},
{
place = (446, 15);
place = (446, 15);
type = Stem;
},
{
place = (700, 15);
place = (700, 15);
type = Stem;
},
{
horizontal = 1;
place = (716, -20);
target = down;
type = TopGhost;
}
);
layerId = m01;
shapes = (
{
closed = 1;
nodes = (
(551,715,l),
(64,0,l),
(81,0,l),
(568,715,l)
);
},
{
closed = 1;
nodes = (
(720,0,l),
(720,14,l),
(463,14,l),
(468,88,o),
(523,120,o),
(589,158,cs),
(655,196,o),
(714,223,o),
(715,295,cs),
(716,361,o),
(673,415,o),
(582,415,cs),
(483,415,o),
(446,345,o),
(446,280,c),
(461,280,l),
(461,340,o),
(494,401,o),
(582,401,cs),
(660,401,o),
(700,357,o),
(700,295,cs),
(700,232,o),
(645,206,o),
(581,169,cs),
(511,128,o),
(448,91,o),
(447,0,c)
);
},
{
closed = 1;
nodes = (
(147,303,l),
(147,716,l),
(132,716,l),
(125,651,o),
(90,634,o),
(26,634,c),
(26,620,l),
(78,620,o),
(113,630,o),
(132,664,c),
(132,303,l)
);
}
);
width = 749;
}
);
note = onehalf;
unicode = 189;
},
{
glyphname = onequarter;
layers = (
{
hints = (
{
horizontal = 1;
place = (0, 128);
place = (0, 128);
type = Stem;
},
{
horizontal = 1;
place = (620, 14);
place = (620, 14);
type = Stem;
},
{
horizontal = 1;
place = (716, -20);
target = down;
type = TopGhost;
},
{
place = (132, 15);
place = (132, 15);
type = Stem;
},
{
place = (621, 15);
place = (621, 15);
type = Stem;
},
{
horizontal = 1;
place = (114, 14);
place = (114, 14);
type = Stem;
},
{
place = (388, 20);
place = (388, 20);
type = Stem;
},
{
horizontal = 1;
place = (715, -20);
target = down;
type = TopGhost;
}
);
layerId = m01;
shapes = (
{
closed = 1;
nodes = (
(636,0,l),
(636,114,l),
(702,114,l),
(702,128,l),
(636,128,l),
(636,416,l),
(624,416,l),
(388,126,l),
(388,114,l),
(621,114,l),
(621,0,l)
);
},
{
closed = 1;
nodes = (
(621,128,l),
(408,128,l),
(621,388,l)
);
},
{
closed = 1;
nodes = (
(563,715,l),
(76,0,l),
(93,0,l),
(580,715,l)
);
},
{
closed = 1;
nodes = (
(147,303,l),
(147,716,l),
(132,716,l),
(125,651,o),
(90,634,o),
(26,634,c),
(26,620,l),
(78,620,o),
(113,630,o),
(132,664,c),
(132,303,l)
);
}
);
width = 727;
}
);
note = onequarter;
unicode = 188;
},
{
glyphname = onesuperior;
layers = (
{
hints = (
{
horizontal = 1;
place = (592, 14);
place = (592, 14);
type = Stem;
},
{
horizontal = 1;
place = (688, -20);
target = down;
type = TopGhost;
},
{
place = (129, 15);
place = (129, 15);
type = Stem;
}
);
layerId = m01;
shapes = (
{
closed = 1;
nodes = (
(144,275,l),
(144,688,l),
(129,688,l),
(122,623,o),
(87,606,o),
(23,606,c),
(23,592,l),
(75,592,o),
(110,602,o),
(129,637,c),
(129,275,l)
);
}
);
width = 204;
}
);
note = onesuperior;
unicode = 185;
},
{
glyphname = threequarters;
layers = (
{
hints = (
{
horizontal = 1;
place = (0, 128);
place = (0, 128);
type = Stem;
},
{
horizontal = 1;
place = (298, 14);
place = (298, 14);
type = Stem;
},
{
horizontal = 1;
place = (515, 14);
place = (515, 14);
type = Stem;
},
{
horizontal = 1;
place = (705, 14);
place = (705, 14);
type = Stem;
},
{
place = (25, 15);
place = (25, 15);
type = Stem;
},
{
place = (309, 15);
place = (309, 15);
type = Stem;
},
{
place = (483, 20);
place = (483, 20);
type = Stem;
},
{
place = (716, 15);
place = (716, 15);
type = Stem;
},
{
horizontal = 1;
place = (114, 14);
place = (114, 14);
type = Stem;
},
{
horizontal = 1;
place = (515, 8);
place = (515, 8);
type = Stem;
},
{
place = (41, 15);
place = (41, 15);
type = Stem;
},
{
place = (290, 15);
place = (290, 15);
type = Stem;
},
{
horizontal = 1;
place = (715, -20);
target = down;
type = TopGhost;
}
);
layerId = m01;
shapes = (
{
closed = 1;
nodes = (
(731,0,l),
(731,114,l),
(797,114,l),
(797,128,l),
(731,128,l),
(731,416,l),
(719,416,l),
(483,126,l),
(483,114,l),
(716,114,l),
(716,0,l)
);
},
{
closed = 1;
nodes = (
(716,128,l),
(503,128,l),
(716,388,l)
);
},
{
closed = 1;
nodes = (
(150,529,l),
(150,515,l),
(193,515,ls),
(259,515,o),
(309,484,o),
(309,421,cs),
(309,353,o),
(254,312,o),
(179,312,cs),
(95,312,o),
(47,363,o),
(40,434,c),
(25,434,l),
(31,356,o),
(86,298,o),
(179,298,cs),
(263,298,o),
(324,346,o),
(324,421,cs),
(324,478,o),
(290,510,o),
(236,523,c),
(281,537,o),
(305,570,o),
(305,613,cs),
(305,678,o),
(250,719,o),
(174,719,cs),
(87,719,o),
(45,661,o),
(41,598,c),
(56,598,l),
(61,658,o),
(97,705,o),
(174,705,cs),
(242,705,o),
(290,669,o),
(290,613,cs),
(290,567,o),
(255,529,o),
(193,529,cs)
);
},
{
closed = 1;
nodes = (
(669,715,l),
(182,0,l),
(199,0,l),
(686,715,l)
);
}
);
width = 822;
}
);
note = threequarters;
unicode = 190;
},
{
glyphname = threesuperior;
layers = (
{
hints = (
{
horizontal = 1;
place = (269, 14);
place = (269, 14);
type = Stem;
},
{
horizontal = 1;
place = (486, 14);
place = (486, 14);
type = Stem;
},
{
horizontal = 1;
place = (676, 14);
place = (676, 14);
type = Stem;
},
{
place = (22, 15);
place = (22, 15);
type = Stem;
},
{
place = (306, 15);
place = (306, 15);
type = Stem;
},
{
place = (38, 15);
place = (38, 15);
type = Stem;
},
{
place = (287, 15);
place = (287, 15);
type = Stem;
}
);
layerId = m01;
shapes = (
{
closed = 1;
nodes = (
(147,500,l),
(147,486,l),
(190,486,ls),
(256,486,o),
(306,455,o),
(306,392,cs),
(306,324,o),
(251,283,o),
(176,283,cs),
(92,283,o),
(44,334,o),
(37,405,c),
(22,405,l),
(28,327,o),
(83,269,o),
(176,269,cs),
(260,269,o),
(321,317,o),
(321,392,cs),
(321,449,o),
(287,481,o),
(233,494,c),
(278,508,o),
(302,541,o),
(302,584,cs),
(302,649,o),
(247,690,o),
(171,690,cs),
(84,690,o),
(42,632,o),
(38,569,c),
(53,569,l),
(58,629,o),
(94,676,o),
(171,676,cs),
(239,676,o),
(287,640,o),
(287,584,cs),
(287,538,o),
(252,500,o),
(190,500,cs)
);
}
);
width = 347;
}
);
note = threesuperior;
unicode = 179;
},
{
glyphname = twosuperior;
layers = (
{
hints = (
{
horizontal = 1;
place = (274, 14);
place = (274, 14);
type = Stem;
},
{
horizontal = 1;
place = (675, 14);
place = (675, 14);
type = Stem;
},
{
place = (23, 15);
place = (23, 15);
type = Stem;
},
{
place = (277, 15);
place = (277, 15);
type = Stem;
}
);
layerId = m01;
shapes = (
{
closed = 1;
nodes = (
(297,288,l),
(40,288,l),
(45,361,o),
(100,394,o),
(166,432,cs),
(232,470,o),
(291,497,o),
(292,569,cs),
(293,635,o),
(250,689,o),
(159,689,cs),
(60,689,o),
(23,619,o),
(23,554,c),
(38,554,l),
(38,614,o),
(71,675,o),
(159,675,cs),
(237,675,o),
(277,631,o),
(277,569,cs),
(277,506,o),
(222,480,o),
(158,443,cs),
(88,402,o),
(25,367,o),
(24,274,c),
(297,274,l)
);
}
);
width = 323;
}
);
note = twosuperior;
unicode = 178;
},
{
glyphname = brokenbar;
layers = (
{
hints = (
{
horizontal = 1;
place = (-118, 872);
place = (-118, 872);
type = Stem;
},
{
place = (77, 15);
place = (77, 15);
type = Stem;
}
);
layerId = m01;
shapes = (
{
closed = 1;
nodes = (
(77,358,l),
(92,358,l),
(92,754,l),
(77,754,l)
);
},
{
closed = 1;
nodes = (
(77,-118,l),
(92,-118,l),
(92,294,l),
(77,294,l)
);
}
);
width = 169;
}
);
note = brokenbar;
unicode = 166;
},
{
glyphname = minus;
kernLeft = minus;
kernRight = minus;
layers = (
{
hints = (
{
horizontal = 1;
place = (320, 15);
place = (320, 15);
type = Stem;
},
{
place = (53, 430);
place = (53, 430);
type = Stem;
}
);
layerId = m01;
shapes = (
{
closed = 1;
nodes = (
(53,320,l),
(483,320,l),
(483,335,l),
(53,335,l)
);
}
);
width = 536;
}
);
note = minus;
unicode = 8722;
},
{
glyphname = multiply;
layers = (
{
hints = (
{
horizontal = 1;
place = (142, 367);
place = (142, 367);
type = Stem;
},
{
place = (72, 364);
place = (72, 364);
type = Stem;
}
);
layerId = m01;
shapes = (
{
closed = 1;
nodes = (
(426,509,l),
(254,335,l),
(82,509,l),
(72,499,l),
(244,325,l),
(73,152,l),
(83,142,l),
(254,315,l),
(425,142,l),
(435,152,l),
(264,325,l),
(436,499,l)
);
}
);
width = 508;
}
);
note = multiply;
unicode = 215;
},
{
glyphname = exclam;
layers = (
{
hints = (
{
horizontal = 1;
place = (0, 55);
place = (0, 55);
type = Stem;
},
{
horizontal = 1;
place = (715, -20);
target = down;
type = TopGhost;
},
{
place = (69, 15);
place = (69, 15);
type = Stem;
}
);
layerId = m01;
shapes = (
{
closed = 1;
nodes = (
(84,436,l),
(84,715,l),
(69,715,l),
(69,436,l),
(71,177,l),
(82,177,l)
);
},
{
closed = 1;
nodes = (
(86,55,l),
(69,55,l),
(69,0,l),
(86,0,l)
);
}
);
width = 155;
}
);
note = exclam;
unicode = 33;
},
{
glyphname = quotedbl;
kernLeft = quotedbl;
kernRight = quotedbl;
layers = (
{
hints = (
{
horizontal = 1;
place = (715, -20);
target = down;
type = TopGhost;
},
{
place = (42, 15);
place = (42, 15);
type = Stem;
},
{
place = (149, 15);
place = (149, 15);
type = Stem;
},
{
horizontal = 1;
place = (525, 190);
place = (525, 190);
type = Stem;
}
);
layerId = m01;
shapes = (
{
closed = 1;
nodes = (
(57,715,l),
(42,715,l),
(42,525,l),
(57,525,l)
);
},
{
closed = 1;
nodes = (
(164,715,l),
(149,715,l),
(149,525,l),
(164,525,l)
);
}
);
width = 206;
}
);
note = quotedbl;
unicode = 34;
},
{
glyphname = numbersign;
layers = (
{
hints = (
{
horizontal = 1;
place = (0, 21);
target = up;
type = BottomGhost;
},
{
horizontal = 1;
place = (241, 13);
place = (241, 13);
type = Stem;
},
{
horizontal = 1;
place = (447, 13);
place = (447, 13);
type = Stem;
},
{
place = (31, 460);
place = (31, 460);
type = Stem;
}
);
layerId = m01;
shapes = (
{
closed = 1;
nodes = (
(63,447,l),
(172,447,l),
(141,254,l),
(33,254,l),
(31,241,l),
(139,241,l),
(101,0,l),
(116,0,l),
(154,241,l),
(329,241,l),
(291,0,l),
(306,0,l),
(344,241,l),
(455,241,l),
(457,254,l),
(346,254,l),
(377,447,l),
(489,447,l),
(491,460,l),
(379,460,l),
(414,682,l),
(399,682,l),
(364,460,l),
(189,460,l),
(224,682,l),
(209,682,l),
(174,460,l),
(65,460,l)
);
},
{
closed = 1;
nodes = (
(187,447,l),
(362,447,l),
(331,254,l),
(156,254,l)
);
}
);
width = 522;
}
);
note = numbersign;
unicode = 35;
},
{
glyphname = dollar;
layers = (
{
hints = (
{
horizontal = 1;
place = (0, 14);
place = (0, 14);
type = Stem;
},
{
horizontal = 1;
place = (689, 14);
place = (689, 14);
type = Stem;
},
{
place = (49, 15);
place = (49, 15);
type = Stem;
},
{
place = (268, 14);
place = (268, 14);
type = Stem;
},
{
place = (506, 15);
place = (506, 15);
type = Stem;
},
{
place = (16, 15);
place = (16, 15);
type = Stem;
}
);
layerId = m01;
shapes = (
{
closed = 1;
nodes = (
(282,758,l),
(268,758,l),
(268,703,l),
(139,703,o),
(49,634,o),
(49,530,cs),
(49,426,o),
(115,386,o),
(268,360,c),
(268,14,l),
(112,19,o),
(40,102,o),
(31,218,c),
(16,218,l),
(24,92,o),
(103,5,o),
(268,0,c),
(268,-81,l),
(282,-81,l),
(282,0,l),
(417,0,o),
(521,69,o),
(521,185,cs),
(521,310,o),
(443,345,o),
(282,372,c),
(282,689,l),
(404,685,o),
(469,639,o),
(485,532,c),
(500,532,l),
(483,649,o),
(415,699,o),
(282,703,c)
);
},
{
closed = 1;
nodes = (
(506,78,o),
(407,14,o),
(282,14,c),
(282,358,l),
(438,332,o),
(506,298,o),
(506,185,cs)
);
},
{
closed = 1;
nodes = (
(64,626,o),
(147,689,o),
(268,689,c),
(268,375,l),
(123,399,o),
(64,437,o),
(64,530,cs)
);
}
);
width = 551;
}
);
note = dollar;
unicode = 36;
},
{
glyphname = percent;
kernLeft = percent;
layers = (
{
hints = (
{
horizontal = 1;
place = (0, 21);
target = up;
type = BottomGhost;
},
{
horizontal = 1;
place = (327, 14);
place = (327, 14);
type = Stem;
},
{
horizontal = 1;
place = (685, -20);
target = down;
type = TopGhost;
},
{
place = (24, 15);
place = (24, 15);
type = Stem;
},
{
place = (277, 15);
place = (277, 15);
type = Stem;
},
{
place = (358, 15);
place = (358, 15);
type = Stem;
},
{
place = (611, 15);
place = (611, 15);
type = Stem;
},
{
horizontal = 1;
place = (-8, 14);
place = (-8, 14);
type = Stem;
},
{
horizontal = 1;
place = (667, 14);
place = (667, 14);
type = Stem;
},
{
horizontal = 1;
place = (332, 14);
place = (332, 14);
type = Stem;
}
);
layerId = m01;
shapes = (
{
closed = 1;
nodes = (
(108,0,l),
(125,0,l),
(554,685,l),
(537,685,l)
);
},
{
closed = 1;
nodes = (
(241,327,o),
(292,398,o),
(292,504,cs),
(292,614,o),
(239,681,o),
(160,681,cs),
(79,681,o),
(24,612,o),
(24,504,cs),
(24,398,o),
(77,327,o),
(160,327,cs)
);
},
{
closed = 1;
nodes = (
(85,341,o),
(39,406,o),
(39,504,cs),
(39,604,o),
(88,667,o),
(160,667,cs),
(232,667,o),
(277,606,o),
(277,504,cs),
(277,406,o),
(236,341,o),
(160,341,cs)
);
},
{
closed = 1;
nodes = (
(575,-8,o),
(626,63,o),
(626,169,cs),
(626,279,o),
(573,346,o),
(494,346,cs),
(413,346,o),
(358,277,o),
(358,169,cs),
(358,63,o),
(411,-8,o),
(494,-8,cs)
);
},
{
closed = 1;
nodes = (
(419,6,o),
(373,71,o),
(373,169,cs),
(373,269,o),
(421,332,o),
(494,332,cs),
(566,332,o),
(611,271,o),
(611,169,cs),
(611,71,o),
(570,6,o),
(494,6,cs)
);
}
);
width = 650;
}
);
note = percent;
unicode = 37;
},
{
glyphname = ampersand;
kernLeft = ampersand;
kernRight = ampersand;
layers = (
{
hints = (
{
horizontal = 1;
place = (-7, 14);
place = (-7, 14);
type = Stem;
},
{
horizontal = 1;
place = (685, 14);
place = (685, 14);
type = Stem;
},
{
place = (40, 15);
place = (40, 15);
type = Stem;
},
{
place = (116, 15);
place = (116, 15);
type = Stem;
},
{
place = (363, 15);
place = (363, 15);
type = Stem;
},
{
place = (492, 15);
place = (492, 15);
type = Stem;
},
{
horizontal = 1;
place = (0, 21);
target = up;
type = BottomGhost;
}
);
layerId = m01;
shapes = (
{
closed = 1;
nodes = (
(116,507,o),
(151,464,o),
(202,403,cs),
(214,389,l),
(119,329,o),
(39,277,o),
(40,164,cs),
(41,58,o),
(135,-7,o),
(238,-7,cs),
(328,-7,o),
(399,41,o),
(446,112,c),
(540,0,l),
(557,0,l),
(453,124,l),
(487,180,o),
(505,248,o),
(507,318,c),
(492,318,l),
(490,249,o),
(473,187,o),
(444,136,c),
(235,386,l),
(327,445,o),
(378,490,o),
(378,568,cs),
(378,654,o),
(319,699,o),
(250,699,cs),
(162,699,o),
(116,644,o),
(116,571,cs)
);
},
{
closed = 1;
nodes = (
(140,7,o),
(55,70,o),
(55,164,cs),
(55,275,o),
(139,325,o),
(223,378,c),
(436,124,l),
(391,52,o),
(322,7,o),
(239,7,cs)
);
},
{
closed = 1;
nodes = (
(131,636,o),
(172,685,o),
(250,685,cs),
(317,685,o),
(363,640,o),
(363,568,cs),
(363,497,o),
(318,455,o),
(226,396,c),
(213,412,ls),
(173,461,o),
(131,509,o),
(131,571,cs)
);
}
);
width = 549;
}
);
note = ampersand;
unicode = 38;
},
{
glyphname = quotesingle;
kernLeft = quotedbl;
kernRight = quotedbl;
layers = (
{
hints = (
{
horizontal = 1;
place = (715, -20);
target = down;
type = TopGhost;
},
{
place = (42, 15);
place = (42, 15);
type = Stem;
}
);
layerId = m01;
shapes = (
{
closed = 1;
nodes = (
(57,715,l),
(42,715,l),
(42,525,l),
(57,525,l)
);
}
);
width = 99;
}
);
note = quotesingle;
unicode = 39;
},
{
glyphname = parenleft;
kernRight = parenleft;
layers = (
{
hints = (
{
horizontal = 1;
place = (-118, 872);
place = (-118, 872);
type = Stem;
},
{
place = (71, 15);
place = (71, 15);
type = Stem;
}
);
layerId = m01;
shapes = (
{
closed = 1;
nodes = (
(195,754,l),
(130,647,o),
(71,511,o),
(71,335,cs),
(71,146,o),
(123,8,o),
(195,-118,c),
(211,-118,l),
(138,7,o),
(86,148,o),
(86,335,cs),
(86,507,o),
(146,649,o),
(211,754,c)
);
}
);
width = 232;
}
);
note = parenleft;
unicode = 40;
},
{
glyphname = parenright;
kernLeft = parenright;
layers = (
{
hints = (
{
horizontal = 1;
place = (-118, 872);
place = (-118, 872);
type = Stem;
},
{
place = (147, 15);
place = (147, 15);
type = Stem;
}
);
layerId = m01;
shapes = (
{
closed = 1;
nodes = (
(22,754,l),
(87,649,o),
(147,507,o),
(147,335,cs),
(147,148,o),
(95,7,o),
(22,-118,c),
(38,-118,l),
(110,8,o),
(162,146,o),
(162,335,cs),
(162,511,o),
(103,647,o),
(38,754,c)
);
}
);
width = 232;
}
);
note = parenright;
unicode = 41;
},
{
glyphname = asterisk;
kernLeft = asterisk;
kernRight = asterisk;
layers = (
{
hints = (
{
horizontal = 1;
place = (459, 247);
place = (459, 247);
type = Stem;
},
{
place = (160, 15);
place = (160, 15);
type = Stem;
}
);
layerId = m01;
shapes = (
{
closed = 1;
nodes = (
(48,620,l),
(44,607,l),
(156,569,l),
(85,467,l),
(97,459,l),
(168,561,l),
(240,459,l),
(251,467,l),
(179,569,l),
(292,607,l),
(288,620,l),
(175,582,l),
(175,706,l),
(160,706,l),
(160,582,l)
);
}
);
width = 336;
}
);
note = asterisk;
unicode = 42;
},
{
glyphname = plus;
kernLeft = minus;
kernRight = minus;
layers = (
{
hints = (
{
horizontal = 1;
place = (320, 14);
place = (320, 14);
type = Stem;
},
{
place = (260, 15);
place = (260, 15);
type = Stem;
}
);
layerId = m01;
shapes = (
{
closed = 1;
nodes = (
(53,320,l),
(260,320,l),
(260,106,l),
(275,106,l),
(275,320,l),
(483,320,l),
(483,334,l),
(275,334,l),
(275,546,l),
(260,546,l),
(260,334,l),
(53,334,l)
);
}
);
width = 536;
}
);
note = plus;
unicode = 43;
},
{
glyphname = comma;
kernLeft = comma;
kernRight = comma;
layers = (
{
hints = (
{
horizontal = 1;
place = (-120, 175);
place = (-120, 175);
type = Stem;
},
{
place = (44, 16);
place = (44, 16);
type = Stem;
}
);
layerId = m01;
shapes = (
{
closed = 1;
nodes = (
(11,-120,l),
(56,-90,o),
(60,-45,o),
(60,-3,cs),
(60,55,l),
(44,55,l),
(44,0,ls),
(44,-38,o),
(41,-78,o),
(11,-103,c)
);
}
);
width = 104;
}
);
note = comma;
unicode = 44;
},
{
glyphname = hyphen;
kernLeft = hyphen;
kernRight = hyphen;
layers = (
{
hints = (
{
horizontal = 1;
place = (268, 15);
place = (268, 15);
type = Stem;
},
{
place = (38, 222);
place = (38, 222);
type = Stem;
}
);
layerId = m01;
shapes = (
{
closed = 1;
nodes = (
(38,268,l),
(260,268,l),
(260,283,l),
(38,283,l)
);
}
);
width = 298;
}
);
note = hyphen;
unicode = 45;
},
{
glyphname = period;
kernLeft = comma;
kernRight = comma;
layers = (
{
hints = (
{
horizontal = 1;
place = (0, 55);
place = (0, 55);
type = Stem;
},
{
place = (44, 17);
place = (44, 17);
type = Stem;
}
);
layerId = m01;
shapes = (
{
closed = 1;
nodes = (
(61,55,l),
(44,55,l),
(44,0,l),
(61,0,l)
);
}
);
width = 105;
}
);
note = period;
unicode = 46;
},
{
glyphname = slash;
kernLeft = slash;
kernRight = slash;
layers = (
{
hints = (
{
horizontal = 1;
place = (0, 21);
target = up;
type = BottomGhost;
},
{
horizontal = 1;
place = (715, -20);
target = down;
type = TopGhost;
},
{
place = (16, 315);
place = (16, 315);
type = Stem;
}
);
layerId = m01;
shapes = (
{
closed = 1;
nodes = (
(331,715,l),
(315,715,l),
(16,0,l),
(32,0,l)
);
}
);
width = 347;
}
);
note = slash;
unicode = 47;
},
{
glyphname = zero;
kernLeft = zero;
kernRight = zero;
layers = (
{
hints = (
{
horizontal = 1;
place = (-7, 14);
place = (-7, 14);
type = Stem;
},
{
horizontal = 1;
place = (679, 14);
place = (679, 14);
type = Stem;
},
{
place = (44, 15);
place = (44, 15);
type = Stem;
},
{
place = (529, 15);
place = (529, 15);
type = Stem;
}
);
layerId = m01;
shapes = (
{
closed = 1;
nodes = (
(449,-7,o),
(544,131,o),
(544,343,cs),
(544,564,o),
(441,693,o),
(295,693,cs),
(148,693,o),
(44,558,o),
(44,343,cs),
(44,131,o),
(141,-7,o),
(295,-7,cs)
);
},
{
closed = 1;
nodes = (
(149,7,o),
(59,140,o),
(59,343,cs),
(59,550,o),
(157,679,o),
(295,679,cs),
(433,679,o),
(529,552,o),
(529,343,cs),
(529,140,o),
(440,7,o),
(295,7,cs)
);
}
);
width = 588;
}
);
note = zero;
unicode = 48;
},
{
glyphname = one;
kernLeft = one;
kernRight = one;
layers = (
{
hints = (
{
horizontal = 1;
place = (0, 21);
target = up;
type = BottomGhost;
},
{
horizontal = 1;
place = (535, 14);
place = (535, 14);
type = Stem;
},
{
horizontal = 1;
place = (688, -20);
target = down;
type = TopGhost;
},
{
place = (196, 15);
place = (196, 15);
type = Stem;
}
);
layerId = m01;
shapes = (
{
closed = 1;
nodes = (
(196,688,l),
(184,578,o),
(126,550,o),
(34,549,c),
(34,535,l),
(113,536,o),
(169,555,o),
(196,624,c),
(196,0,l),
(211,0,l),
(211,688,l)
);
}
);
width = 289;
}
);
note = one;
unicode = 49;
},
{
glyphname = two;
kernLeft = two;
kernRight = two;
layers = (
{
hints = (
{
horizontal = 1;
place = (0, 14);
place = (0, 14);
type = Stem;
},
{
horizontal = 1;
place = (686, 14);
place = (686, 14);
type = Stem;
},
{
place = (31, 15);
place = (31, 15);
type = Stem;
},
{
place = (468, 14);
place = (468, 14);
type = Stem;
},
{
place = (48, 14);
place = (48, 14);
type = Stem;
}
);
layerId = m01;
shapes = (
{
closed = 1;
nodes = (
(483,14,l),
(46,14,l),
(53,156,o),
(162,224,o),
(277,281,cs),
(390,337,o),
(482,383,o),
(482,502,cs),
(482,616,o),
(403,700,o),
(267,700,cs),
(123,700,o),
(48,592,o),
(48,482,c),
(62,482,l),
(62,587,o),
(132,686,o),
(267,686,cs),
(395,686,o),
(468,610,o),
(468,502,cs),
(468,390,o),
(379,347,o),
(271,293,cs),
(149,232,o),
(35,162,o),
(31,0,c),
(483,0,l)
);
}
);
width = 519;
}
);
note = two;
unicode = 50;
},
{
glyphname = three;
kernLeft = three;
kernRight = three;
layers = (
{
hints = (
{
horizontal = 1;
place = (-7, 14);
place = (-7, 14);
type = Stem;
},
{
horizontal = 1;
place = (357, 14);
place = (357, 14);
type = Stem;
},
{
horizontal = 1;
place = (679, 14);
place = (679, 14);
type = Stem;
},
{
place = (18, 14);
place = (18, 14);
type = Stem;
},
{
place = (500, 14);
place = (500, 14);
type = Stem;
},
{
place = (42, 14);
place = (42, 14);
type = Stem;
},
{
place = (470, 14);
place = (470, 14);
type = Stem;
}
);
layerId = m01;
shapes = (
{
closed = 1;
nodes = (
(227,357,l),
(296,357,ls),
(407,357,o),
(500,300,o),
(500,195,cs),
(500,74,o),
(407,7,o),
(277,7,cs),
(129,7,o),
(44,91,o),
(32,208,c),
(18,208,l),
(28,86,o),
(120,-7,o),
(277,-7,cs),
(415,-7,o),
(514,69,o),
(514,194,cs),
(514,290,o),
(444,349,o),
(353,364,c),
(437,382,o),
(484,441,o),
(484,511,cs),
(484,622,o),
(393,693,o),
(265,693,cs),
(117,693,o),
(48,599,o),
(42,494,c),
(56,494,l),
(62,591,o),
(125,679,o),
(265,679,cs),
(385,679,o),
(470,614,o),
(470,511,cs),
(470,434,o),
(406,371,o),
(296,371,cs),
(227,371,l)
);
}
);
width = 546;
}
);
note = three;
unicode = 51;
},
{
glyphname = four;
kernLeft = four;
kernRight = four;
layers = (
{
hints = (
{
horizontal = 1;
place = (0, 21);
target = up;
type = BottomGhost;
},
{
horizontal = 1;
place = (195, 14);
place = (195, 14);
type = Stem;
},
{
horizontal = 1;
place = (669, 23);
place = (669, 23);
type = Stem;
},
{
place = (26, 18);
place = (26, 18);
type = Stem;
},
{
place = (396, 15);
place = (396, 15);
type = Stem;
}
);
layerId = m01;
shapes = (
{
closed = 1;
nodes = (
(411,0,l),
(411,195,l),
(525,195,l),
(525,209,l),
(411,209,l),
(411,692,l),
(395,692,l),
(26,209,l),
(26,195,l),
(396,195,l),
(396,0,l)
);
},
{
closed = 1;
nodes = (
(396,669,l),
(396,209,l),
(44,209,l)
);
}
);
width = 547;
}
);
note = four;
unicode = 52;
},
{
glyphname = five;
kernLeft = five;
kernRight = five;
layers = (
{
hints = (
{
horizontal = 1;
place = (-7, 14);
place = (-7, 14);
type = Stem;
},
{
horizontal = 1;
place = (428, 14);
place = (428, 14);
type = Stem;
},
{
horizontal = 1;
place = (671, 14);
place = (671, 14);
type = Stem;
},
{
place = (473, 15);
place = (473, 15);
type = Stem;
}
);
layerId = m01;
shapes = (
{
closed = 1;
nodes = (
(448,685,l),
(126,685,l),
(46,331,l),
(60,331,l),
(90,377,o),
(151,428,o),
(258,428,cs),
(396,428,o),
(473,334,o),
(473,218,cs),
(473,83,o),
(373,7,o),
(258,7,cs),
(109,7,o),
(51,96,o),
(38,184,c),
(23,184,l),
(35,90,o),
(100,-7,o),
(258,-7,cs),
(381,-7,o),
(488,76,o),
(488,218,cs),
(488,340,o),
(405,442,o),
(258,442,cs),
(165,442,o),
(101,403,o),
(67,361,c),
(137,671,l),
(448,671,l)
);
}
);
width = 520;
}
);
note = five;
unicode = 53;
},
{
glyphname = six;
kernLeft = six;
kernRight = six;
layers = (
{
hints = (
{
horizontal = 1;
place = (-7, 14);
place = (-7, 14);
type = Stem;
},
{
horizontal = 1;
place = (418, 14);
place = (418, 14);
type = Stem;
},
{
horizontal = 1;
place = (679, 14);
place = (679, 14);
type = Stem;
},
{
place = (44, 15);
place = (44, 15);
type = Stem;
},
{
place = (501, 15);
place = (501, 15);
type = Stem;
},
{
place = (480, 15);
place = (480, 15);
type = Stem;
},
{
place = (67, 13);
place = (67, 13);
type = Stem;
}
);
layerId = m01;
shapes = (
{
closed = 1;
nodes = (
(59,574,o),
(145,679,o),
(289,679,cs),
(396,679,o),
(469,624,o),
(480,526,c),
(495,526,l),
(485,630,o),
(405,693,o),
(289,693,cs),
(137,693,o),
(44,585,o),
(44,332,cs),
(44,188,o),
(77,102,o),
(135,49,cs),
(176,12,o),
(234,-7,o),
(297,-7,cs),
(406,-7,o),
(516,73,o),
(516,220,cs),
(516,343,o),
(422,432,o),
(290,432,cs),
(150,432,o),
(70,333,o),
(67,217,c),
(62,246,o),
(59,307,o),
(59,343,cs)
);
},
{
closed = 1;
nodes = (
(80,309,o),
(149,418,o),
(291,418,cs),
(410,418,o),
(501,336,o),
(501,220,cs),
(501,82,o),
(398,7,o),
(297,7,cs),
(174,7,o),
(80,87,o),
(80,208,cs)
);
}
);
width = 554;
}
);
note = six;
unicode = 54;
},
{
glyphname = seven;
kernLeft = seven;
kernRight = seven;
layers = (
{
hints = (
{
horizontal = 1;
place = (0, 21);
target = up;
type = BottomGhost;
},
{
horizontal = 1;
place = (671, 14);
place = (671, 14);
type = Stem;
},
{
place = (156, 15);
place = (156, 15);
type = Stem;
},
{
place = (471, 20);
place = (471, 20);
type = Stem;
}
);
layerId = m01;
shapes = (
{
closed = 1;
nodes = (
(171,0,l),
(175,252,o),
(275,455,o),
(491,671,c),
(491,685,l),
(23,685,l),
(23,671,l),
(471,671,l),
(264,462,o),
(160,255,o),
(156,0,c)
);
}
);
width = 502;
}
);
note = seven;
unicode = 55;
},
{
glyphname = eight;
kernLeft = eight;
kernRight = eight;
layers = (
{
hints = (
{
horizontal = 1;
place = (-7, 14);
place = (-7, 14);
type = Stem;
},
{
horizontal = 1;
place = (370, 14);
place = (370, 14);
type = Stem;
},
{
horizontal = 1;
place = (680, 14);
place = (680, 14);
type = Stem;
},
{
place = (33, 15);
place = (33, 15);
type = Stem;
},
{
place = (514, 15);
place = (514, 15);
type = Stem;
},
{
place = (75, 15);
place = (75, 15);
type = Stem;
},
{
place = (472, 15);
place = (472, 15);
type = Stem;
}
);
layerId = m01;
shapes = (
{
closed = 1;
nodes = (
(431,-7,o),
(529,72,o),
(529,190,cs),
(529,290,o),
(458,359,o),
(348,378,c),
(433,397,o),
(487,455,o),
(487,533,cs),
(487,629,o),
(403,694,o),
(281,694,cs),
(160,694,o),
(75,629,o),
(75,533,cs),
(75,456,o),
(128,398,o),
(215,378,c),
(104,358,o),
(33,290,o),
(33,190,cs),
(33,71,o),
(134,-7,o),
(284,-7,cs)
);
},
{
closed = 1;
nodes = (
(142,7,o),
(48,79,o),
(48,190,cs),
(48,302,o),
(141,370,o),
(281,370,cs),
(424,370,o),
(514,302,o),
(514,190,cs),
(514,80,o),
(423,7,o),
(284,7,cs)
);
},
{
closed = 1;
nodes = (
(168,384,o),
(90,444,o),
(90,533,cs),
(90,621,o),
(168,680,o),
(281,680,cs),
(395,680,o),
(472,621,o),
(472,533,cs),
(472,443,o),
(395,384,o),
(281,384,cs)
);
}
);
width = 562;
}
);
note = eight;
unicode = 56;
},
{
glyphname = nine;
kernLeft = nine;
kernRight = nine;
layers = (
{
hints = (
{
horizontal = 1;
place = (-7, 14);
place = (-7, 14);
type = Stem;
},
{
horizontal = 1;
place = (254, 14);
place = (254, 14);
type = Stem;
},
{
horizontal = 1;
place = (679, 14);
place = (679, 14);
type = Stem;
},
{
place = (39, 15);
place = (39, 15);
type = Stem;
},
{
place = (497, 15);
place = (497, 15);
type = Stem;
},
{
place = (476, 13);
place = (476, 13);
type = Stem;
}
);
layerId = m01;
shapes = (
{
closed = 1;
nodes = (
(497,227,o),
(484,155,o),
(448,96,cs),
(409,32,o),
(350,7,o),
(270,7,cs),
(163,7,o),
(80,64,o),
(66,160,c),
(51,160,l),
(65,56,o),
(155,-7,o),
(271,-7,cs),
(352,-7,o),
(418,22,o),
(461,89,cs),
(497,146,o),
(512,227,o),
(512,327,cs),
(512,508,o),
(476,600,o),
(408,649,cs),
(361,683,o),
(310,693,o),
(257,693,cs),
(148,693,o),
(39,619,o),
(39,468,cs),
(39,343,o),
(137,254,o),
(263,254,cs),
(403,254,o),
(483,350,o),
(489,466,c),
(494,437,o),
(497,372,o),
(497,324,cs)
);
},
{
closed = 1;
nodes = (
(476,378,o),
(409,268,o),
(263,268,cs),
(144,268,o),
(54,354,o),
(54,468,cs),
(54,609,o),
(156,679,o),
(257,679,cs),
(402,679,o),
(476,581,o),
(476,478,cs)
);
}
);
width = 552;
}
);
note = nine;
unicode = 57;
},
{
glyphname = colon;
kernLeft = colon;
kernRight = colon;
layers = (
{
hints = (
{
horizontal = 1;
place = (0, 55);
place = (0, 55);
type = Stem;
},
{
horizontal = 1;
place = (328, 55);
place = (328, 55);
type = Stem;
},
{
place = (47, 17);
place = (47, 17);
type = Stem;
}
);
layerId = m01;
shapes = (
{
closed = 1;
nodes = (
(64,383,l),
(47,383,l),
(47,328,l),
(64,328,l)
);
},
{
closed = 1;
nodes = (
(64,55,l),
(47,55,l),
(47,0,l),
(64,0,l)
);
}
);
width = 111;
}
);
note = colon;
unicode = 58;
},
{
glyphname = semicolon;
kernLeft = colon;
kernRight = colon;
layers = (
{
hints = (
{
horizontal = 1;
place = (328, 55);
place = (328, 55);
type = Stem;
},
{
place = (46, 17);
place = (46, 17);
type = Stem;
}
);
layerId = m01;
shapes = (
{
closed = 1;
nodes = (
(14,-120,l),
(59,-90,o),
(63,-45,o),
(63,-3,cs),
(63,55,l),
(47,55,l),
(47,0,ls),
(47,-38,o),
(44,-78,o),
(14,-103,c)
);
},
{
closed = 1;
nodes = (
(63,383,l),
(46,383,l),
(46,328,l),
(63,328,l)
);
}
);
width = 110;
}
);
note = semicolon;
unicode = 59;
},
{
glyphname = less;
layers = (
{
hints = (
{
horizontal = 1;
place = (134, 357);
place = (134, 357);
type = Stem;
},
{
place = (50, 19);
place = (50, 19);
type = Stem;
}
);
layerId = m01;
shapes = (
{
closed = 1;
nodes = (
(443,150,l),
(69,312,l),
(443,475,l),
(443,491,l),
(50,318,l),
(50,306,l),
(443,134,l)
);
}
);
width = 497;
}
);
note = less;
unicode = 60;
},
{
glyphname = equal;
layers = (
{
hints = (
{
horizontal = 1;
place = (239, 14);
place = (239, 14);
type = Stem;
},
{
horizontal = 1;
place = (374, 14);
place = (374, 14);
type = Stem;
},
{
place = (53, 426);
place = (53, 426);
type = Stem;
}
);
layerId = m01;
shapes = (
{
closed = 1;
nodes = (
(53,374,l),
(479,374,l),
(479,388,l),
(53,388,l)
);
},
{
closed = 1;
nodes = (
(53,239,l),
(479,239,l),
(479,253,l),
(53,253,l)
);
}
);
width = 532;
}
);
note = equal;
unicode = 61;
},
{
glyphname = greater;
layers = (
{
hints = (
{
horizontal = 1;
place = (133, 358);
place = (133, 358);
type = Stem;
},
{
place = (428, 19);
place = (428, 19);
type = Stem;
}
);
layerId = m01;
shapes = (
{
closed = 1;
nodes = (
(54,133,l),
(447,306,l),
(447,318,l),
(54,491,l),
(54,475,l),
(428,312,l),
(54,150,l)
);
}
);
width = 497;
}
);
note = greater;
unicode = 62;
},
{
glyphname = question;
kernLeft = question;
layers = (
{
hints = (
{
horizontal = 1;
place = (0, 55);
place = (0, 55);
type = Stem;
},
{
horizontal = 1;
place = (709, 14);
place = (709, 14);
type = Stem;
},
{
place = (17, 15);
place = (17, 15);
type = Stem;
},
{
place = (209, 17);
place = (209, 17);
type = Stem;
},
{
place = (422, 15);
place = (422, 15);
type = Stem;
}
);
layerId = m01;
shapes = (
{
closed = 1;
nodes = (
(224,178,l),
(224,272,o),
(248,309,o),
(322,369,cs),
(386,421,o),
(437,456,o),
(437,543,cs),
(437,644,o),
(357,723,o),
(235,723,cs),
(91,723,o),
(21,627,o),
(17,509,c),
(32,509,l),
(38,620,o),
(101,709,o),
(235,709,cs),
(344,709,o),
(422,638,o),
(422,543,cs),
(422,457,o),
(364,423,o),
(313,380,cs),
(232,312,o),
(210,278,o),
(210,178,c)
);
},
{
closed = 1;
nodes = (
(226,55,l),
(209,55,l),
(209,0,l),
(226,0,l)
);
}
);
width = 467;
}
);
note = question;
unicode = 63;
},
{
glyphname = at;
kernLeft = at;
kernRight = at;
layers = (
{
hints = (
{
horizontal = 1;
place = (-96, 14);
place = (-96, 14);
type = Stem;
},
{
horizontal = 1;
place = (86, 14);
place = (86, 14);
type = Stem;
},
{
horizontal = 1;
place = (500, 14);
place = (500, 14);
type = Stem;
},
{
horizontal = 1;
place = (690, 14);
place = (690, 14);
type = Stem;
},
{
place = (33, 15);
place = (33, 15);
type = Stem;
},
{
place = (243, 15);
place = (243, 15);
type = Stem;
},
{
place = (561, 15);
place = (561, 15);
type = Stem;
},
{
place = (814, 15);
place = (814, 15);
type = Stem;
},
{
horizontal = 1;
place = (93, 14);
place = (93, 14);
type = Stem;
},
{
place = (575, 9);
place = (575, 9);
type = Stem;
}
);
layerId = m01;
shapes = (
{
closed = 1;
nodes = (
(471,86,o),
(530,137,o),
(561,212,c),
(552,140,o),
(588,93,o),
(662,93,cs),
(761,93,o),
(829,200,o),
(829,351,cs),
(829,584,o),
(641,704,o),
(450,704,cs),
(240,704,o),
(33,553,o),
(33,285,cs),
(33,56,o),
(198,-96,o),
(434,-96,cs),
(520,-96,o),
(594,-73,o),
(634,-52,c),
(628,-39,l),
(590,-59,o),
(519,-82,o),
(434,-82,cs),
(206,-82,o),
(48,64,o),
(48,285,cs),
(48,545,o),
(248,690,o),
(450,690,cs),
(634,690,o),
(814,576,o),
(814,351,cs),
(814,208,o),
(752,107,o),
(662,107,cs),
(595,107,o),
(567,148,o),
(576,220,cs),
(614,504,l),
(599,504,l),
(584,391,l),
(569,464,o),
(513,514,o),
(436,514,cs),
(317,514,o),
(243,408,o),
(243,266,cs),
(243,172,o),
(293,86,o),
(399,86,cs)
);
},
{
closed = 1;
nodes = (
(301,100,o),
(258,184,o),
(258,266,cs),
(258,399,o),
(324,500,o),
(436,500,cs),
(517,500,o),
(575,440,o),
(575,345,cs),
(575,206,o),
(493,100,o),
(399,100,cs)
);
}
);
width = 862;
}
);
note = at;
unicode = 64;
},
{
glyphname = A;
kernLeft = A;
kernRight = A;
layers = (
{
hints = (
{
horizontal = 1;
place = (0, 21);
target = up;
type = BottomGhost;
},
{
horizontal = 1;
place = (256, 14);
place = (256, 14);
type = Stem;
},
{
horizontal = 1;
place = (695, 20);
place = (695, 20);
type = Stem;
},
{
place = (10, 568);
place = (10, 568);
type = Stem;
}
);
layerId = m01;
shapes = (
{
closed = 1;
nodes = (
(562,0,l),
(578,0,l),
(303,715,l),
(285,715,l),
(10,0,l),
(26,0,l),
(125,256,l),
(463,256,l)
);
},
{
closed = 1;
nodes = (
(294,695,l),
(458,270,l),
(130,270,l)
);
}
);
width = 588;
}
);
note = A;
unicode = 65;
},
{
glyphname = B;
layers = (
{
hints = (
{
horizontal = 1;
place = (0, 14);
place = (0, 14);
type = Stem;
},
{
horizontal = 1;
place = (370, 14);
place = (370, 14);
type = Stem;
},
{
horizontal = 1;
place = (701, 14);
place = (701, 14);
type = Stem;
},
{
place = (67, 15);
place = (67, 15);
type = Stem;
},
{
place = (535, 15);
place = (535, 15);
type = Stem;
},
{
place = (566, 15);
place = (566, 15);
type = Stem;
}
);
layerId = m01;
shapes = (
{
closed = 1;
nodes = (
(550,597,o),
(527,642,o),
(489,672,cs),
(450,701,o),
(396,715,o),
(334,715,cs),
(67,715,l),
(67,0,l),
(351,0,ls),
(418,0,o),
(476,19,o),
(516,53,cs),
(557,88,o),
(581,137,o),
(581,198,cs),
(581,292,o),
(520,359,o),
(422,378,c),
(499,400,o),
(550,459,o),
(550,535,cs)
);
},
{
closed = 1;
nodes = (
(371,370,ls),
(487,367,o),
(566,301,o),
(566,198,cs),
(566,141,o),
(544,95,o),
(505,63,cs),
(467,32,o),
(413,14,o),
(350,14,cs),
(82,14,l),
(82,370,l)
);
},
{
closed = 1;
nodes = (
(82,701,l),
(333,701,ls),
(449,701,o),
(535,648,o),
(535,535,cs),
(535,449,o),
(462,387,o),
(369,384,cs),
(82,384,l)
);
}
);
width = 608;
}
);
note = B;
unicode = 66;
},
{
glyphname = C;
kernLeft = C;
kernRight = C;
layers = (
{
hints = (
{
horizontal = 1;
place = (-9, 14);
place = (-9, 14);
type = Stem;
},
{
horizontal = 1;
place = (709, 14);
place = (709, 14);
type = Stem;
},
{
place = (40, 15);
place = (40, 15);
type = Stem;
},
{
place = (642, 14);
place = (642, 14);
type = Stem;
}
);
layerId = m01;
shapes = (
{
closed = 1;
nodes = (
(646,510,l),
(629,619,o),
(535,723,o),
(371,723,cs),
(167,723,o),
(40,571,o),
(40,358,cs),
(40,136,o),
(171,-9,o),
(367,-9,cs),
(455,-9,o),
(524,23,o),
(572,71,cs),
(621,120,o),
(650,185,o),
(656,253,c),
(642,253,l),
(627,122,o),
(533,5,o),
(367,5,cs),
(178,5,o),
(55,146,o),
(55,358,cs),
(55,562,o),
(173,709,o),
(371,709,cs),
(527,709,o),
(616,611,o),
(632,510,c)
);
}
);
width = 690;
}
);
note = C;
unicode = 67;
},
{
glyphname = D;
kernRight = Eth;
layers = (
{
hints = (
{
horizontal = 1;
place = (0, 13);
place = (0, 13);
type = Stem;
},
{
horizontal = 1;
place = (701, 14);
place = (701, 14);
type = Stem;
},
{
place = (67, 14);
place = (67, 14);
type = Stem;
},
{
place = (605, 15);
place = (605, 15);
type = Stem;
}
);
layerId = m01;
shapes = (
{
closed = 1;
nodes = (
(67,0,l),
(321,0,ls),
(527,0,o),
(620,161,o),
(620,354,cs),
(620,544,o),
(535,715,o),
(328,715,cs),
(67,715,l)
);
},
{
closed = 1;
nodes = (
(81,13,l),
(81,701,l),
(329,701,ls),
(502,701,o),
(605,565,o),
(605,354,cs),
(605,141,o),
(495,13,o),
(322,13,cs)
);
}
);
width = 660;
}
);
note = D;
unicode = 68;
},
{
glyphname = E;
kernRight = E;
layers = (
{
hints = (
{
horizontal = 1;
place = (0, 14);
place = (0, 14);
type = Stem;
},
{
horizontal = 1;
place = (364, 14);
place = (364, 14);
type = Stem;
},
{
horizontal = 1;
place = (701, 14);
place = (701, 14);
type = Stem;
},
{
place = (67, 15);
place = (67, 15);
type = Stem;
}
);
layerId = m01;
shapes = (
{
closed = 1;
nodes = (
(82,701,l),
(534,701,l),
(534,715,l),
(67,715,l),
(67,0,l),
(544,0,l),
(544,14,l),
(82,14,l),
(82,364,l),
(499,364,l),
(499,378,l),
(82,378,l)
);
}
);
width = 582;
}
);
note = E;
unicode = 69;
},
{
glyphname = F;
kernRight = F;
layers = (
{
hints = (
{
horizontal = 1;
place = (0, 21);
target = up;
type = BottomGhost;
},
{
horizontal = 1;
place = (368, 14);
place = (368, 14);
type = Stem;
},
{
horizontal = 1;
place = (701, 14);
place = (701, 14);
type = Stem;
},
{
place = (67, 15);
place = (67, 15);
type = Stem;
}
);
layerId = m01;
shapes = (
{
closed = 1;
nodes = (
(82,701,l),
(533,701,l),
(533,715,l),
(67,715,l),
(67,0,l),
(82,0,l),
(82,368,l),
(469,368,l),
(469,382,l),
(82,382,l)
);
}
);
width = 559;
}
);
note = F;
unicode = 70;
},
{
glyphname = G;
kernLeft = C;
kernRight = G;
layers = (
{
hints = (
{
horizontal = 1;
place = (-9, 14);
place = (-9, 14);
type = Stem;
},
{
horizontal = 1;
place = (335, 14);
place = (335, 14);
type = Stem;
},
{
horizontal = 1;
place = (709, 14);
place = (709, 14);
type = Stem;
},
{
place = (40, 15);
place = (40, 15);
type = Stem;
},
{
place = (647, 15);
place = (647, 15);
type = Stem;
},
{
horizontal = 1;
place = (0, 21);
target = up;
type = BottomGhost;
}
);
layerId = m01;
shapes = (
{
closed = 1;
nodes = (
(647,335,l),
(647,295,ls),
(647,114,o),
(531,5,o),
(380,5,cs),
(171,5,o),
(55,158,o),
(55,355,cs),
(55,543,o),
(163,709,o),
(372,709,cs),
(526,709,o),
(617,620,o),
(638,510,c),
(652,510,l),
(630,630,o),
(534,723,o),
(372,723,cs),
(153,723,o),
(40,551,o),
(40,355,cs),
(40,150,o),
(163,-9,o),
(380,-9,cs),
(522,-9,o),
(625,82,o),
(647,202,c),
(647,0,l),
(662,0,l),
(662,349,l),
(390,349,l),
(390,335,l)
);
}
);
width = 719;
}
);
note = G;
unicode = 71;
},
{
glyphname = H;
layers = (
{
hints = (
{
horizontal = 1;
place = (0, 21);
target = up;
type = BottomGhost;
},
{
horizontal = 1;
place = (374, 14);
place = (374, 14);
type = Stem;
},
{
horizontal = 1;
place = (715, -20);
target = down;
type = TopGhost;
},
{
place = (67, 15);
place = (67, 15);
type = Stem;
},
{
place = (573, 15);
place = (573, 15);
type = Stem;
}
);
layerId = m01;
shapes = (
{
closed = 1;
nodes = (
(67,0,l),
(82,0,l),
(82,374,l),
(573,374,l),
(573,0,l),
(588,0,l),
(588,715,l),
(573,715,l),
(573,388,l),
(82,388,l),
(82,715,l),
(67,715,l)
);
}
);
width = 655;
}
);
note = H;
unicode = 72;
},
{
glyphname = I;
layers = (
{
hints = (
{
horizontal = 1;
place = (0, 21);
target = up;
type = BottomGhost;
},
{
horizontal = 1;
place = (715, -20);
target = down;
type = TopGhost;
},
{
place = (69, 15);
place = (69, 15);
type = Stem;
}
);
layerId = m01;
shapes = (
{
closed = 1;
nodes = (
(84,715,l),
(69,715,l),
(69,0,l),
(84,0,l)
);
}
);
width = 153;
}
);
note = I;
unicode = 73;
},
{
glyphname = J;
kernLeft = J;
kernRight = J;
layers = (
{
hints = (
{
horizontal = 1;
place = (-11, 14);
place = (-11, 14);
type = Stem;
},
{
horizontal = 1;
place = (715, -20);
target = down;
type = TopGhost;
},
{
place = (22, 15);
place = (22, 15);
type = Stem;
},
{
place = (376, 15);
place = (376, 15);
type = Stem;
}
);
layerId = m01;
shapes = (
{
closed = 1;
nodes = (
(22,202,l),
(22,186,ls),
(22,60,o),
(94,-11,o),
(211,-11,cs),
(335,-11,o),
(391,66,o),
(391,190,cs),
(391,715,l),
(376,715,l),
(376,190,ls),
(376,74,o),
(325,3,o),
(211,3,cs),
(101,3,o),
(37,70,o),
(37,186,cs),
(37,202,l)
);
}
);
width = 449;
}
);
note = J;
unicode = 74;
},
{
glyphname = K;
kernRight = K;
layers = (
{
hints = (
{
horizontal = 1;
place = (0, 21);
target = up;
type = BottomGhost;
},
{
horizontal = 1;
place = (715, -20);
target = down;
type = TopGhost;
},
{
place = (67, 15);
place = (67, 15);
type = Stem;
}
);
layerId = m01;
shapes = (
{
closed = 1;
nodes = (
(560,715,l),
(539,715,l),
(82,281,l),
(82,715,l),
(67,715,l),
(67,0,l),
(82,0,l),
(82,262,l),
(239,411,l),
(586,0,l),
(604,0,l),
(250,421,l)
);
}
);
width = 602;
}
);
note = K;
unicode = 75;
},
{
glyphname = L;
kernRight = L;
layers = (
{
hints = (
{
horizontal = 1;
place = (0, 14);
place = (0, 14);
type = Stem;
},
{
horizontal = 1;
place = (715, -20);
target = down;
type = TopGhost;
},
{
place = (67, 15);
place = (67, 15);
type = Stem;
}
);
layerId = m01;
shapes = (
{
closed = 1;
nodes = (
(82,715,l),
(67,715,l),
(67,0,l),
(513,0,l),
(513,14,l),
(82,14,l)
);
}
);
width = 535;
}
);
note = L;
unicode = 76;
},
{
glyphname = M;
layers = (
{
hints = (
{
horizontal = 1;
place = (0, 17);
place = (0, 17);
type = Stem;
},
{
horizontal = 1;
place = (692, 23);
place = (692, 23);
type = Stem;
},
{
place = (67, 15);
place = (67, 15);
type = Stem;
},
{
place = (717, 15);
place = (717, 15);
type = Stem;
}
);
layerId = m01;
shapes = (
{
closed = 1;
nodes = (
(392,0,l),
(407,0,l),
(717,692,l),
(717,0,l),
(732,0,l),
(732,715,l),
(710,715,l),
(399,17,l),
(88,715,l),
(67,715,l),
(67,0,l),
(82,0,l),
(82,692,l)
);
}
);
width = 799;
}
);
note = M;
unicode = 77;
},
{
glyphname = N;
layers = (
{
hints = (
{
horizontal = 1;
place = (0, 21);
target = up;
type = BottomGhost;
},
{
horizontal = 1;
place = (690, 25);
place = (690, 25);
type = Stem;
},
{
place = (67, 15);
place = (67, 15);
type = Stem;
},
{
place = (587, 15);
place = (587, 15);
type = Stem;
},
{
horizontal = 1;
place = (0, 25);
place = (0, 25);
type = Stem;
}
);
layerId = m01;
shapes = (
{
closed = 1;
nodes = (
(602,715,l),
(587,715,l),
(587,25,l),
(83,715,l),
(67,715,l),
(67,0,l),
(82,0,l),
(82,690,l),
(587,0,l),
(602,0,l)
);
}
);
width = 669;
}
);
note = N;
unicode = 78;
},
{
glyphname = O;
kernLeft = C;
kernRight = O;
layers = (
{
hints = (
{
horizontal = 1;
place = (-8, 14);
place = (-8, 14);
type = Stem;
},
{
horizontal = 1;
place = (709, 14);
place = (709, 14);
type = Stem;
},
{
place = (40, 15);
place = (40, 15);
type = Stem;
},
{
place = (694, 15);
place = (694, 15);
type = Stem;
}
);
layerId = m01;
shapes = (
{
closed = 1;
nodes = (
(568,-8,o),
(709,146,o),
(709,357,cs),
(709,569,o),
(568,723,o),
(374,723,cs),
(180,723,o),
(40,569,o),
(40,357,cs),
(40,145,o),
(180,-8,o),
(374,-8,cs)
);
},
{
closed = 1;
nodes = (
(184,6,o),
(55,159,o),
(55,357,cs),
(55,556,o),
(184,709,o),
(374,709,cs),
(563,709,o),
(694,555,o),
(694,357,cs),
(694,160,o),
(563,6,o),
(374,6,cs)
);
}
);
width = 749;
}
);
note = O;
unicode = 79;
},
{
glyphname = P;
kernRight = P;
layers = (
{
hints = (
{
horizontal = 1;
place = (0, 21);
target = up;
type = BottomGhost;
},
{
horizontal = 1;
place = (333, 14);
place = (333, 14);
type = Stem;
},
{
horizontal = 1;
place = (701, 14);
place = (701, 14);
type = Stem;
},
{
place = (67, 15);
place = (67, 15);
type = Stem;
},
{
place = (525, 15);
place = (525, 15);
type = Stem;
}
);
layerId = m01;
shapes = (
{
closed = 1;
nodes = (
(314,333,ls),
(467,333,o),
(540,404,o),
(540,525,cs),
(540,601,o),
(507,655,o),
(451,686,cs),
(416,705,o),
(371,715,o),
(321,715,cs),
(67,715,l),
(67,0,l),
(82,0,l),
(82,333,l)
);
},
{
closed = 1;
nodes = (
(82,701,l),
(321,701,ls),
(445,701,o),
(525,638,o),
(525,525,cs),
(525,413,o),
(458,347,o),
(314,347,cs),
(82,347,l)
);
}
);
width = 560;
}
);
note = P;
unicode = 80;
},
{
glyphname = Q;
kernLeft = C;
kernRight = Q;
layers = (
{
hints = (
{
horizontal = 1;
place = (-9, 14);
place = (-9, 14);
type = Stem;
},
{
horizontal = 1;
place = (709, 14);
place = (709, 14);
type = Stem;
},
{
place = (40, 15);
place = (40, 15);
type = Stem;
},
{
place = (694, 15);
place = (694, 15);
type = Stem;
}
);
layerId = m01;
shapes = (
{
closed = 1;
nodes = (
(447,-9,o),
(512,13,o),
(566,51,c),
(682,-42,l),
(691,-31,l),
(577,60,l),
(659,125,o),
(709,231,o),
(709,357,cs),
(709,569,o),
(568,723,o),
(374,723,cs),
(180,723,o),
(40,569,o),
(40,357,cs),
(40,145,o),
(180,-9,o),
(374,-9,cs)
);
},
{
closed = 1;
nodes = (
(478,141,l),
(469,130,l),
(554,61,l),
(504,26,o),
(443,5,o),
(374,5,cs),
(184,5,o),
(55,159,o),
(55,357,cs),
(55,556,o),
(184,709,o),
(374,709,cs),
(563,709,o),
(694,555,o),
(694,357,cs),
(694,237,o),
(646,133,o),
(566,70,c)
);
}
);
width = 749;
}
);
note = Q;
unicode = 81;
},
{
glyphname = R;
kernRight = R;
layers = (
{
hints = (
{
horizontal = 1;
place = (0, 21);
target = up;
type = BottomGhost;
},
{
horizontal = 1;
place = (335, 14);
place = (335, 14);
type = Stem;
},
{
horizontal = 1;
place = (701, 14);
place = (701, 14);
type = Stem;
},
{
place = (67, 15);
place = (67, 15);
type = Stem;
},
{
place = (539, 15);
place = (539, 15);
type = Stem;
}
);
layerId = m01;
shapes = (
{
closed = 1;
nodes = (
(82,335,l),
(357,335,ls),
(474,334,o),
(519,272,o),
(522,170,cs),
(526,27,o),
(542,7,o),
(549,0,c),
(566,0,l),
(566,2,l),
(557,11,o),
(541,24,o),
(537,174,cs),
(534,269,o),
(495,329,o),
(406,344,c),
(508,362,o),
(554,429,o),
(554,525,cs),
(554,648,o),
(467,715,o),
(335,715,cs),
(67,715,l),
(67,0,l),
(82,0,l)
);
},
{
closed = 1;
nodes = (
(82,701,l),
(335,701,ls),
(459,701,o),
(539,638,o),
(539,525,cs),
(539,413,o),
(472,349,o),
(328,349,cs),
(82,349,l)
);
}
);
width = 596;
}
);
note = R;
unicode = 82;
},
{
glyphname = S;
kernLeft = Scaron;
kernRight = Scaron;
layers = (
{
hints = (
{
horizontal = 1;
place = (-9, 14);
place = (-9, 14);
type = Stem;
},
{
horizontal = 1;
place = (709, 14);
place = (709, 14);
type = Stem;
},
{
place = (52, 15);
place = (52, 15);
type = Stem;
},
{
place = (538, 15);
place = (538, 15);
type = Stem;
},
{
place = (22, 15);
place = (22, 15);
type = Stem;
}
);
layerId = m01;
shapes = (
{
closed = 1;
nodes = (
(22,227,l),
(31,92,o),
(120,-9,o),
(307,-9,cs),
(462,-9,o),
(553,68,o),
(553,184,cs),
(553,313,o),
(457,357,o),
(291,387,cs),
(142,414,o),
(67,454,o),
(67,555,cs),
(67,651,o),
(148,709,o),
(279,709,cs),
(415,709,o),
(494,637,o),
(511,521,c),
(526,521,l),
(508,643,o),
(426,723,o),
(279,723,cs),
(141,723,o),
(52,659,o),
(52,555,cs),
(52,446,o),
(134,401,o),
(289,373,cs),
(452,344,o),
(538,302,o),
(538,184,cs),
(538,77,o),
(454,5,o),
(307,5,cs),
(129,5,o),
(47,98,o),
(37,227,c)
);
}
);
width = 589;
}
);
note = S;
unicode = 83;
},
{
glyphname = T;
kernLeft = T;
kernRight = T;
layers = (
{
hints = (
{
horizontal = 1;
place = (0, 21);
target = up;
type = BottomGhost;
},
{
horizontal = 1;
place = (701, 14);
place = (701, 14);
type = Stem;
},
{
place = (287, 15);
place = (287, 15);
type = Stem;
}
);
layerId = m01;
shapes = (
{
closed = 1;
nodes = (
(302,0,l),
(302,701,l),
(567,701,l),
(567,715,l),
(22,715,l),
(22,701,l),
(287,701,l),
(287,0,l)
);
}
);
width = 589;
}
);
note = T;
unicode = 84;
},
{
glyphname = U;
kernLeft = U;
kernRight = U;
layers = (
{
hints = (
{
horizontal = 1;
place = (-9, 14);
place = (-9, 14);
type = Stem;
},
{
horizontal = 1;
place = (715, -20);
target = down;
type = TopGhost;
},
{
place = (55, 15);
place = (55, 15);
type = Stem;
},
{
place = (556, 15);
place = (556, 15);
type = Stem;
}
);
layerId = m01;
shapes = (
{
closed = 1;
nodes = (
(55,715,l),
(55,236,ls),
(55,58,o),
(171,-9,o),
(313,-9,cs),
(452,-9,o),
(571,58,o),
(571,236,cs),
(571,715,l),
(556,715,l),
(556,236,ls),
(556,68,o),
(445,5,o),
(313,5,cs),
(178,5,o),
(70,68,o),
(70,236,cs),
(70,715,l)
);
}
);
width = 626;
}
);
note = U;
unicode = 85;
},
{
glyphname = V;
kernLeft = V;
kernRight = V;
layers = (
{
hints = (
{
horizontal = 1;
place = (0, 22);
place = (0, 22);
type = Stem;
},
{
horizontal = 1;
place = (715, -20);
target = down;
type = TopGhost;
},
{
place = (10, 566);
place = (10, 566);
type = Stem;
}
);
layerId = m01;
shapes = (
{
closed = 1;
nodes = (
(27,715,l),
(10,715,l),
(285,0,l),
(301,0,l),
(576,715,l),
(559,715,l),
(293,22,l)
);
}
);
width = 586;
}
);
note = V;
unicode = 86;
},
{
glyphname = W;
kernLeft = W;
kernRight = W;
layers = (
{
hints = (
{
horizontal = 1;
place = (0, 21);
target = up;
type = BottomGhost;
},
{
horizontal = 1;
place = (715, -20);
target = down;
type = TopGhost;
},
{
place = (14, 849);
place = (14, 849);
type = Stem;
},
{
horizontal = 1;
place = (0, 28);
place = (0, 28);
type = Stem;
},
{
horizontal = 1;
place = (685, 30);
place = (685, 30);
type = Stem;
}
);
layerId = m01;
shapes = (
{
closed = 1;
nodes = (
(430,715,l),
(237,29,l),
(31,715,l),
(14,715,l),
(229,0,l),
(245,0,l),
(438,685,l),
(632,0,l),
(648,0,l),
(863,715,l),
(846,715,l),
(640,28,l),
(447,715,l)
);
}
);
width = 877;
}
);
note = W;
unicode = 87;
},
{
glyphname = X;
kernLeft = X;
kernRight = X;
layers = (
{
hints = (
{
horizontal = 1;
place = (0, 21);
target = up;
type = BottomGhost;
},
{
horizontal = 1;
place = (715, -20);
target = down;
type = TopGhost;
},
{
place = (14, 550);
place = (14, 550);
type = Stem;
}
);
layerId = m01;
shapes = (
{
closed = 1;
nodes = (
(14,0,l),
(32,0,l),
(291,355,l),
(546,0,l),
(564,0,l),
(300,368,l),
(554,715,l),
(536,715,l),
(291,380,l),
(52,715,l),
(34,715,l),
(282,368,l)
);
}
);
width = 578;
}
);
note = X;
unicode = 88;
},
{
glyphname = Y;
kernLeft = Yacute;
kernRight = Yacute;
layers = (
{
hints = (
{
horizontal = 1;
place = (0, 21);
target = up;
type = BottomGhost;
},
{
horizontal = 1;
place = (715, -20);
target = down;
type = TopGhost;
},
{
place = (279, 15);
place = (279, 15);
type = Stem;
}
);
layerId = m01;
shapes = (
{
closed = 1;
nodes = (
(27,715,l),
(10,715,l),
(279,324,l),
(279,0,l),
(294,0,l),
(294,324,l),
(563,715,l),
(546,715,l),
(286,337,l)
);
}
);
width = 573;
}
);
note = Y;
unicode = 89;
},
{
glyphname = Z;
kernLeft = Zcaron;
kernRight = Zcaron;
layers = (
{
hints = (
{
horizontal = 1;
place = (0, 14);
place = (0, 14);
type = Stem;
},
{
horizontal = 1;
place = (701, 14);
place = (701, 14);
type = Stem;
},
{
place = (30, 18);
place = (30, 18);
type = Stem;
},
{
place = (523, 18);
place = (523, 18);
type = Stem;
}
);
layerId = m01;
shapes = (
{
closed = 1;
nodes = (
(53,701,l),
(523,701,l),
(30,14,l),
(30,0,l),
(565,0,l),
(565,14,l),
(48,14,l),
(541,701,l),
(541,715,l),
(53,715,l)
);
}
);
width = 601;
}
);
note = Z;
unicode = 90;
},
{
glyphname = bracketleft;
kernRight = bracketleft;
layers = (
{
hints = (
{
horizontal = 1;
place = (-118, 14);
place = (-118, 14);
type = Stem;
},
{
horizontal = 1;
place = (740, 14);
place = (740, 14);
type = Stem;
},
{
place = (77, 15);
place = (77, 15);
type = Stem;
}
);
layerId = m01;
shapes = (
{
closed = 1;
nodes = (
(92,-104,l),
(92,740,l),
(200,740,l),
(200,754,l),
(77,754,l),
(77,-118,l),
(200,-118,l),
(200,-104,l)
);
}
);
width = 230;
}
);
note = bracketleft;
unicode = 91;
},
{
glyphname = backslash;
kernLeft = backslash;
kernRight = backslash;
layers = (
{
hints = (
{
horizontal = 1;
place = (0, 21);
target = up;
type = BottomGhost;
},
{
horizontal = 1;
place = (715, -20);
target = down;
type = TopGhost;
},
{
place = (16, 315);
place = (16, 315);
type = Stem;
}
);
layerId = m01;
shapes = (
{
closed = 1;
nodes = (
(315,0,l),
(331,0,l),
(32,715,l),
(16,715,l)
);
}
);
width = 347;
}
);
note = backslash;
unicode = 92;
},
{
glyphname = bracketright;
kernLeft = bracketright;
layers = (
{
hints = (
{
horizontal = 1;
place = (-118, 14);
place = (-118, 14);
type = Stem;
},
{
horizontal = 1;
place = (740, 14);
place = (740, 14);
type = Stem;
},
{
place = (138, 15);
place = (138, 15);
type = Stem;
}
);
layerId = m01;
shapes = (
{
closed = 1;
nodes = (
(30,-104,l),
(30,-118,l),
(153,-118,l),
(153,754,l),
(30,754,l),
(30,740,l),
(138,740,l),
(138,-104,l)
);
}
);
width = 230;
}
);
note = bracketright;
unicode = 93;
},
{
glyphname = asciicircum;
layers = (
{
hints = (
{
horizontal = 1;
place = (703, 12);
place = (703, 12);
type = Stem;
},
{
place = (11, 357);
place = (11, 357);
type = Stem;
}
);
layerId = m01;
shapes = (
{
closed = 1;
nodes = (
(352,440,l),
(368,440,l),
(198,715,l),
(181,715,l),
(11,440,l),
(27,440,l),
(189,703,l)
);
}
);
width = 379;
}
);
note = asciicircum;
unicode = 94;
},
{
glyphname = underscore;
layers = (
{
hints = (
{
horizontal = 1;
place = (-166, 14);
place = (-166, 14);
type = Stem;
},
{
place = (-2, 384);
place = (-2, 384);
type = Stem;
}
);
layerId = m01;
shapes = (
{
closed = 1;
nodes = (
(-2,-166,l),
(382,-166,l),
(382,-152,l),
(-2,-152,l)
);
}
);
width = 380;
}
);
note = underscore;
unicode = 95;
},
{
glyphname = grave;
layers = (
{
hints = (
{
horizontal = 1;
place = (604, 121);
place = (604, 121);
type = Stem;
},
{
place = (148, 84);
place = (148, 84);
type = Stem;
}
);
layerId = m01;
shapes = (
{
closed = 1;
nodes = (
(165,725,l),
(148,725,l),
(216,604,l),
(232,604,l)
);
}
);
width = 442;
}
);
note = grave;
unicode = 96;
},
{
glyphname = a;
kernLeft = a;
kernRight = a;
layers = (
{
hints = (
{
horizontal = 1;
place = (-4, 14);
place = (-4, 14);
type = Stem;
},
{
horizontal = 1;
place = (510, 14);
place = (510, 14);
type = Stem;
},
{
place = (24, 15);
place = (24, 15);
type = Stem;
},
{
place = (52, 15);
place = (52, 15);
type = Stem;
},
{
place = (395, 15);
place = (395, 15);
type = Stem;
},
{
horizontal = 1;
place = (-8, 14);
place = (-8, 14);
type = Stem;
}
);
layerId = m01;
shapes = (
{
closed = 1;
nodes = (
(465,-4,o),
(478,0,o),
(484,4,c),
(484,18,l),
(482,18,l),
(475,14,o),
(465,10,o),
(451,10,cs),
(424,10,o),
(410,22,o),
(410,69,cs),
(410,367,ls),
(410,467,o),
(354,524,o),
(240,524,cs),
(105,524,o),
(57,451,o),
(52,367,c),
(67,367,l),
(75,467,o),
(135,510,o),
(240,510,cs),
(346,510,o),
(395,457,o),
(395,367,cs),
(395,307,o),
(353,292,o),
(222,275,cs),
(113,261,o),
(24,234,o),
(24,129,cs),
(24,46,o),
(90,-8,o),
(190,-8,cs),
(291,-8,o),
(372,44,o),
(393,116,c),
(395,116,l),
(395,68,ls),
(395,31,o),
(402,-4,o),
(451,-4,cs)
);
},
{
closed = 1;
nodes = (
(121,6,o),
(39,38,o),
(39,129,cs),
(39,219,o),
(106,248,o),
(228,263,cs),
(349,278,o),
(379,296,o),
(395,319,c),
(395,186,ls),
(395,75,o),
(305,6,o),
(190,6,cs)
);
}
);
width = 489;
}
);
note = a;
unicode = 97;
},
{
glyphname = b;
kernLeft = b;
kernRight = thorn;
layers = (
{
hints = (
{
horizontal = 1;
place = (0, 21);
target = up;
type = BottomGhost;
},
{
horizontal = 1;
place = (510, 14);
place = (510, 14);
type = Stem;
},
{
horizontal = 1;
place = (715, -20);
target = down;
type = TopGhost;
},
{
place = (55, 15);
place = (55, 15);
type = Stem;
},
{
place = (488, 15);
place = (488, 15);
type = Stem;
},
{
horizontal = 1;
place = (-8, 14);
place = (-8, 14);
type = Stem;
}
);
layerId = m01;
shapes = (
{
closed = 1;
nodes = (
(55,0,l),
(70,0,l),
(70,155,l),
(71,155,l),
(94,58,o),
(176,-8,o),
(280,-8,cs),
(408,-8,o),
(503,97,o),
(503,259,cs),
(503,440,o),
(397,524,o),
(282,524,cs),
(190,524,o),
(101,471,o),
(71,357,c),
(70,357,l),
(70,715,l),
(55,715,l)
);
},
{
closed = 1;
nodes = (
(158,6,o),
(70,103,o),
(70,256,cs),
(70,410,o),
(158,510,o),
(278,510,cs),
(389,510,o),
(488,434,o),
(488,258,cs),
(488,102,o),
(396,6,o),
(279,6,cs)
);
}
);
width = 529;
}
);
note = b;
unicode = 98;
},
{
glyphname = c;
kernLeft = c;
kernRight = c;
layers = (
{
hints = (
{
horizontal = 1;
place = (-8, 14);
place = (-8, 14);
type = Stem;
},
{
horizontal = 1;
place = (510, 14);
place = (510, 14);
type = Stem;
},
{
place = (26, 15);
place = (26, 15);
type = Stem;
}
);
layerId = m01;
shapes = (
{
closed = 1;
nodes = (
(470,174,l),
(456,68,o),
(383,6,o),
(264,6,cs),
(144,6,o),
(41,102,o),
(41,260,cs),
(41,420,o),
(145,510,o),
(264,510,cs),
(358,510,o),
(444,467,o),
(468,361,c),
(483,361,l),
(462,463,o),
(380,524,o),
(264,524,cs),
(116,524,o),
(26,403,o),
(26,260,cs),
(26,116,o),
(117,-8,o),
(264,-8,cs),
(402,-8,o),
(472,71,o),
(485,174,c)
);
}
);
width = 507;
}
);
note = c;
unicode = 99;
},
{
glyphname = d;
kernLeft = d;
layers = (
{
hints = (
{
horizontal = 1;
place = (-7, 14);
place = (-7, 14);
type = Stem;
},
{
horizontal = 1;
place = (510, 14);
place = (510, 14);
type = Stem;
},
{
horizontal = 1;
place = (715, -20);
target = down;
type = TopGhost;
},
{
place = (26, 15);
place = (26, 15);
type = Stem;
},
{
place = (459, 15);
place = (459, 15);
type = Stem;
},
{
horizontal = 1;
place = (0, 21);
target = up;
type = BottomGhost;
}
);
layerId = m01;
shapes = (
{
closed = 1;
nodes = (
(133,7,o),
(41,102,o),
(41,258,cs),
(41,434,o),
(140,510,o),
(251,510,cs),
(371,510,o),
(459,415,o),
(459,256,cs),
(459,98,o),
(371,7,o),
(250,7,cs)
);
},
{
closed = 1;
nodes = (
(459,0,l),
(474,0,l),
(474,715,l),
(459,715,l),
(459,358,l),
(458,358,l),
(427,473,o),
(340,524,o),
(247,524,cs),
(132,524,o),
(26,440,o),
(26,259,cs),
(26,97,o),
(121,-7,o),
(249,-7,cs),
(352,-7,o),
(433,55,o),
(458,157,c),
(459,157,l)
);
}
);
width = 529;
}
);
note = d;
unicode = 100;
},
{
glyphname = e;
kernLeft = c;
kernRight = e;
layers = (
{
hints = (
{
horizontal = 1;
place = (-8, 14);
place = (-8, 14);
type = Stem;
},
{
horizontal = 1;
place = (265, 14);
place = (265, 14);
type = Stem;
},
{
horizontal = 1;
place = (510, 14);
place = (510, 14);
type = Stem;
},
{
place = (26, 15);
place = (26, 15);
type = Stem;
},
{
place = (467, 15);
place = (467, 15);
type = Stem;
}
);
layerId = m01;
shapes = (
{
closed = 1;
nodes = (
(482,265,l),
(478,360,o),
(447,437,o),
(390,481,cs),
(356,509,o),
(311,524,o),
(258,524,cs),
(112,524,o),
(26,408,o),
(26,266,cs),
(26,110,o),
(109,-8,o),
(263,-8,cs),
(383,-8,o),
(454,66,o),
(473,151,c),
(458,151,l),
(432,54,o),
(357,6,o),
(263,6,cs),
(123,6,o),
(42,113,o),
(41,265,c)
);
},
{
closed = 1;
nodes = (
(41,279,l),
(46,425,o),
(144,510,o),
(258,510,cs),
(358,510,o),
(455,445,o),
(467,279,c)
);
}
);
width = 506;
}
);
note = e;
unicode = 101;
},
{
glyphname = f;
kernLeft = f;
kernRight = f;
layers = (
{
hints = (
{
horizontal = 1;
place = (0, 21);
target = up;
type = BottomGhost;
},
{
horizontal = 1;
place = (503, 14);
place = (503, 14);
type = Stem;
},
{
horizontal = 1;
place = (707, 14);
place = (707, 14);
type = Stem;
},
{
place = (92, 15);
place = (92, 15);
type = Stem;
}
);
layerId = m01;
shapes = (
{
closed = 1;
nodes = (
(232,720,l),
(213,721,o),
(207,721,o),
(191,721,cs),
(129,721,o),
(92,694,o),
(92,615,cs),
(92,517,l),
(22,517,l),
(22,503,l),
(92,503,l),
(92,0,l),
(107,0,l),
(107,503,l),
(231,503,l),
(231,517,l),
(107,517,l),
(107,614,ls),
(107,687,o),
(140,707,o),
(191,707,cs),
(210,707,o),
(213,707,o),
(232,706,c)
);
}
);
width = 255;
}
);
note = f;
unicode = 102;
},
{
glyphname = g;
kernLeft = g;
kernRight = g;
layers = (
{
hints = (
{
horizontal = 1;
place = (-169, 14);
place = (-169, 14);
type = Stem;
},
{
horizontal = 1;
place = (5, 14);
place = (5, 14);
type = Stem;
},
{
horizontal = 1;
place = (510, 14);
place = (510, 14);
type = Stem;
},
{
place = (26, 15);
place = (26, 15);
type = Stem;
},
{
place = (454, 15);
place = (454, 15);
type = Stem;
},
{
horizontal = 1;
place = (517, -20);
target = down;
type = TopGhost;
}
);
layerId = m01;
shapes = (
{
closed = 1;
nodes = (
(454,356,l),
(453,356,l),
(432,449,o),
(358,524,o),
(245,524,cs),
(130,524,o),
(26,439,o),
(26,265,cs),
(26,109,o),
(120,5,o),
(248,5,cs),
(351,5,o),
(426,67,o),
(453,166,c),
(454,166,l),
(454,23,ls),
(454,-79,o),
(392,-155,o),
(259,-155,cs),
(141,-155,o),
(77,-116,o),
(65,-46,c),
(50,-46,l),
(61,-125,o),
(133,-169,o),
(259,-169,cs),
(322,-169,o),
(371,-153,o),
(406,-125,cs),
(448,-90,o),
(469,-38,o),
(469,23,cs),
(469,517,l),
(454,517,l)
);
},
{
closed = 1;
nodes = (
(132,19,o),
(41,114,o),
(41,264,cs),
(41,431,o),
(138,510,o),
(249,510,cs),
(369,510,o),
(454,413,o),
(454,262,cs),
(454,113,o),
(369,19,o),
(249,19,cs)
);
}
);
width = 524;
}
);
note = g;
unicode = 103;
},
{
glyphname = h;
kernLeft = b;
kernRight = h;
layers = (
{
hints = (
{
horizontal = 1;
place = (0, 21);
target = up;
type = BottomGhost;
},
{
horizontal = 1;
place = (509, 14);
place = (509, 14);
type = Stem;
},
{
horizontal = 1;
place = (715, -20);
target = down;
type = TopGhost;
},
{
place = (55, 15);
place = (55, 15);
type = Stem;
},
{
place = (412, 15);
place = (412, 15);
type = Stem;
}
);
layerId = m01;
shapes = (
{
closed = 1;
nodes = (
(70,715,l),
(55,715,l),
(55,0,l),
(70,0,l),
(70,357,ls),
(70,429,o),
(145,509,o),
(261,509,cs),
(355,509,o),
(412,460,o),
(412,369,cs),
(412,0,l),
(427,0,l),
(427,370,ls),
(427,454,o),
(377,523,o),
(262,523,cs),
(156,523,o),
(98,468,o),
(72,419,c),
(70,419,l)
);
}
);
width = 479;
}
);
note = h;
unicode = 104;
},
{
glyphname = i;
kernLeft = b;
layers = (
{
hints = (
{
horizontal = 1;
place = (0, 21);
target = up;
type = BottomGhost;
},
{
horizontal = 1;
place = (517, -20);
target = down;
type = TopGhost;
},
{
horizontal = 1;
place = (650, 56);
place = (650, 56);
type = Stem;
},
{
place = (55, 15);
place = (55, 15);
type = Stem;
}
);
layerId = m01;
shapes = (
{
closed = 1;
nodes = (
(70,517,l),
(55,517,l),
(55,0,l),
(70,0,l)
);
},
{
closed = 1;
nodes = (
(70,706,l),
(55,706,l),
(55,650,l),
(70,650,l)
);
}
);
width = 125;
}
);
note = i;
unicode = 105;
},
{
glyphname = j;
kernLeft = j;
kernRight = j;
layers = (
{
hints = (
{
horizontal = 1;
place = (-147, 14);
place = (-147, 14);
type = Stem;
},
{
horizontal = 1;
place = (517, -20);
target = down;
type = TopGhost;
},
{
horizontal = 1;
place = (650, 56);
place = (650, 56);
type = Stem;
},
{
place = (77, 15);
place = (77, 15);
type = Stem;
}
);
layerId = m01;
shapes = (
{
closed = 1;
nodes = (
(77,517,l),
(77,-64,ls),
(77,-109,o),
(65,-133,o),
(15,-133,cs),
(-1,-133,o),
(-11,-131,o),
(-27,-126,c),
(-28,-126,l),
(-28,-140,l),
(-15,-144,o),
(0,-147,o),
(15,-147,cs),
(72,-147,o),
(92,-120,o),
(92,-64,cs),
(92,517,l)
);
},
{
closed = 1;
nodes = (
(92,706,l),
(77,706,l),
(77,650,l),
(92,650,l)
);
}
);
width = 147;
}
);
note = j;
unicode = 106;
},
{
glyphname = k;
kernLeft = b;
kernRight = k;
layers = (
{
hints = (
{
horizontal = 1;
place = (0, 21);
target = up;
type = BottomGhost;
},
{
horizontal = 1;
place = (517, -20);
target = down;
type = TopGhost;
},
{
horizontal = 1;
place = (715, -20);
target = down;
type = TopGhost;
},
{
place = (55, 15);
place = (55, 15);
type = Stem;
}
);
layerId = m01;
shapes = (
{
closed = 1;
nodes = (
(420,0,l),
(437,0,l),
(188,307,l),
(401,517,l),
(381,517,l),
(70,210,l),
(70,715,l),
(55,715,l),
(55,0,l),
(70,0,l),
(70,191,l),
(178,297,l)
);
}
);
width = 436;
}
);
note = k;
unicode = 107;
},
{
glyphname = l;
kernLeft = b;
layers = (
{
hints = (
{
horizontal = 1;
place = (0, 21);
target = up;
type = BottomGhost;
},
{
horizontal = 1;
place = (715, -20);
target = down;
type = TopGhost;
},
{
place = (58, 15);
place = (58, 15);
type = Stem;
}
);
layerId = m01;
shapes = (
{
closed = 1;
nodes = (
(73,715,l),
(58,715,l),
(58,0,l),
(73,0,l)
);
}
);
width = 131;
}
);
note = l;
unicode = 108;
},
{
glyphname = m;
kernLeft = m;
kernRight = h;
layers = (
{
hints = (
{
horizontal = 1;
place = (0, 21);
target = up;
type = BottomGhost;
},
{
horizontal = 1;
place = (509, 14);
place = (509, 14);
type = Stem;
},
{
place = (55, 15);
place = (55, 15);
type = Stem;
},
{
place = (376, 15);
place = (376, 15);
type = Stem;
},
{
place = (697, 15);
place = (697, 15);
type = Stem;
},
{
horizontal = 1;
place = (517, -20);
target = down;
type = TopGhost;
}
);
layerId = m01;
shapes = (
{
closed = 1;
nodes = (
(391,357,ls),
(391,429,o),
(456,509,o),
(564,509,cs),
(649,509,o),
(697,460,o),
(697,369,cs),
(697,0,l),
(712,0,l),
(712,370,ls),
(712,454,o),
(671,523,o),
(565,523,cs),
(471,523,o),
(413,469,o),
(389,411,c),
(387,411,l),
(375,476,o),
(332,523,o),
(244,523,cs),
(147,523,o),
(96,468,o),
(72,419,c),
(70,419,l),
(70,517,l),
(55,517,l),
(55,0,l),
(70,0,l),
(70,357,ls),
(70,429,o),
(135,509,o),
(243,509,cs),
(328,509,o),
(376,460,o),
(376,369,cs),
(376,0,l),
(391,0,l)
);
}
);
width = 764;
}
);
note = m;
unicode = 109;
},
{
glyphname = n;
kernLeft = m;
kernRight = h;
layers = (
{
hints = (
{
horizontal = 1;
place = (0, 21);
target = up;
type = BottomGhost;
},
{
horizontal = 1;
place = (517, -20);
target = down;
type = TopGhost;
},
{
place = (55, 15);
place = (55, 15);
type = Stem;
},
{
place = (412, 15);
place = (412, 15);
type = Stem;
},
{
horizontal = 1;
place = (509, 14);
place = (509, 14);
type = Stem;
}
);
layerId = m01;
shapes = (
{
closed = 1;
nodes = (
(70,517,l),
(55,517,l),
(55,0,l),
(70,0,l),
(70,357,ls),
(70,429,o),
(144,509,o),
(261,509,cs),
(355,509,o),
(412,460,o),
(412,369,cs),
(412,0,l),
(427,0,l),
(427,370,ls),
(427,454,o),
(377,523,o),
(262,523,cs),
(156,523,o),
(98,468,o),
(72,419,c),
(70,419,l)
);
}
);
width = 479;
}
);
note = n;
unicode = 110;
},
{
glyphname = o;
kernLeft = c;
kernRight = o;
layers = (
{
hints = (
{
horizontal = 1;
place = (-8, 14);
place = (-8, 14);
type = Stem;
},
{
horizontal = 1;
place = (510, 14);
place = (510, 14);
type = Stem;
},
{
place = (26, 15);
place = (26, 15);
type = Stem;
},
{
place = (487, 15);
place = (487, 15);
type = Stem;
}
);
layerId = m01;
shapes = (
{
closed = 1;
nodes = (
(413,-8,o),
(502,117,o),
(502,260,cs),
(502,403,o),
(413,524,o),
(264,524,cs),
(116,524,o),
(26,402,o),
(26,259,cs),
(26,116,o),
(116,-8,o),
(264,-8,cs)
);
},
{
closed = 1;
nodes = (
(145,6,o),
(41,99,o),
(41,259,cs),
(41,419,o),
(145,510,o),
(264,510,cs),
(383,510,o),
(487,420,o),
(487,260,cs),
(487,100,o),
(383,6,o),
(264,6,cs)
);
}
);
width = 528;
}
);
note = o;
unicode = 111;
},
{
glyphname = p;
kernLeft = p;
kernRight = thorn;
layers = (
{
hints = (
{
horizontal = 1;
place = (-166, 21);
target = up;
type = BottomGhost;
},
{
horizontal = 1;
place = (-8, 14);
place = (-8, 14);
type = Stem;
},
{
horizontal = 1;
place = (510, 14);
place = (510, 14);
type = Stem;
},
{
place = (55, 15);
place = (55, 15);
type = Stem;
},
{
place = (488, 15);
place = (488, 15);
type = Stem;
},
{
horizontal = 1;
place = (517, -20);
target = down;
type = TopGhost;
}
);
layerId = m01;
shapes = (
{
closed = 1;
nodes = (
(55,-166,l),
(70,-166,l),
(70,155,l),
(71,155,l),
(94,58,o),
(176,-8,o),
(280,-8,cs),
(408,-8,o),
(503,97,o),
(503,259,cs),
(503,440,o),
(397,524,o),
(282,524,cs),
(190,524,o),
(101,471,o),
(71,357,c),
(70,357,l),
(70,517,l),
(55,517,l)
);
},
{
closed = 1;
nodes = (
(158,6,o),
(70,103,o),
(70,256,cs),
(70,410,o),
(158,510,o),
(278,510,cs),
(389,510,o),
(488,434,o),
(488,258,cs),
(488,102,o),
(396,6,o),
(279,6,cs)
);
}
);
width = 529;
}
);
note = p;
unicode = 112;
},
{
glyphname = q;
kernLeft = d;
kernRight = q;
layers = (
{
hints = (
{
horizontal = 1;
place = (-166, 21);
target = up;
type = BottomGhost;
},
{
horizontal = 1;
place = (-7, 14);
place = (-7, 14);
type = Stem;
},
{
horizontal = 1;
place = (510, 14);
place = (510, 14);
type = Stem;
},
{
place = (29, 15);
place = (29, 15);
type = Stem;
},
{
place = (462, 15);
place = (462, 15);
type = Stem;
},
{
horizontal = 1;
place = (517, -20);
target = down;
type = TopGhost;
}
);
layerId = m01;
shapes = (
{
closed = 1;
nodes = (
(136,7,o),
(44,102,o),
(44,258,cs),
(44,434,o),
(143,510,o),
(254,510,cs),
(374,510,o),
(462,415,o),
(462,256,cs),
(462,98,o),
(374,7,o),
(253,7,cs)
);
},
{
closed = 1;
nodes = (
(462,-166,l),
(477,-166,l),
(477,517,l),
(462,517,l),
(462,358,l),
(461,358,l),
(430,473,o),
(343,524,o),
(250,524,cs),
(135,524,o),
(29,440,o),
(29,259,cs),
(29,97,o),
(124,-7,o),
(252,-7,cs),
(355,-7,o),
(436,55,o),
(461,157,c),
(462,157,l)
);
}
);
width = 532;
}
);
note = q;
unicode = 113;
},
{
glyphname = r;
kernLeft = m;
kernRight = r;
layers = (
{
hints = (
{
horizontal = 1;
place = (0, 21);
target = up;
type = BottomGhost;
},
{
horizontal = 1;
place = (517, -20);
target = down;
type = TopGhost;
},
{
place = (55, 15);
place = (55, 15);
type = Stem;
},
{
horizontal = 1;
place = (509, 14);
place = (509, 14);
type = Stem;
}
);
layerId = m01;
shapes = (
{
closed = 1;
nodes = (
(284,517,l),
(278,520,o),
(256,523,o),
(240,523,cs),
(170,523,o),
(107,483,o),
(72,409,c),
(70,409,l),
(70,517,l),
(55,517,l),
(55,0,l),
(70,0,l),
(70,344,ls),
(70,413,o),
(136,509,o),
(239,509,cs),
(257,509,o),
(272,507,o),
(284,503,c)
);
}
);
width = 302;
}
);
note = r;
unicode = 114;
},
{
glyphname = s;
kernLeft = scaron;
kernRight = scaron;
layers = (
{
hints = (
{
horizontal = 1;
place = (-8, 14);
place = (-8, 14);
type = Stem;
},
{
horizontal = 1;
place = (510, 14);
place = (510, 14);
type = Stem;
},
{
place = (22, 15);
place = (22, 15);
type = Stem;
},
{
place = (416, 14);
place = (416, 14);
type = Stem;
},
{
place = (44, 15);
place = (44, 15);
type = Stem;
}
);
layerId = m01;
shapes = (
{
closed = 1;
nodes = (
(22,161,l),
(30,58,o),
(98,-8,o),
(236,-8,cs),
(350,-8,o),
(430,39,o),
(430,131,cs),
(430,221,o),
(378,261,o),
(233,281,cs),
(99,299,o),
(59,338,o),
(59,399,cs),
(59,461,o),
(103,510,o),
(217,510,cs),
(334,510,o),
(378,454,o),
(392,374,c),
(407,374,l),
(393,460,o),
(343,524,o),
(217,524,cs),
(96,524,o),
(44,469,o),
(44,399,cs),
(44,329,o),
(89,288,o),
(230,268,cs),
(367,249,o),
(416,213,o),
(416,131,cs),
(416,55,o),
(352,6,o),
(236,6,cs),
(106,6,o),
(45,66,o),
(37,161,c)
);
}
);
width = 453;
}
);
note = s;
unicode = 115;
},
{
glyphname = t;
kernLeft = t;
kernRight = t;
layers = (
{
hints = (
{
horizontal = 1;
place = (-6, 14);
place = (-6, 14);
type = Stem;
},
{
horizontal = 1;
place = (503, 14);
place = (503, 14);
type = Stem;
},
{
place = (92, 15);
place = (92, 15);
type = Stem;
}
);
layerId = m01;
shapes = (
{
closed = 1;
nodes = (
(22,503,l),
(92,503,l),
(92,77,ls),
(92,21,o),
(117,-6,o),
(181,-6,cs),
(198,-6,o),
(223,-3,o),
(236,1,c),
(236,15,l),
(235,15,l),
(219,10,o),
(199,8,o),
(181,8,cs),
(126,8,o),
(107,32,o),
(107,77,cs),
(107,503,l),
(236,503,l),
(236,517,l),
(107,517,l),
(107,680,l),
(92,680,l),
(92,517,l),
(22,517,l)
);
}
);
width = 265;
}
);
note = t;
unicode = 116;
},
{
glyphname = u;
kernLeft = u;
kernRight = u;
layers = (
{
hints = (
{
horizontal = 1;
place = (0, 21);
target = up;
type = BottomGhost;
},
{
horizontal = 1;
place = (517, -20);
target = down;
type = TopGhost;
},
{
place = (52, 15);
place = (52, 15);
type = Stem;
},
{
place = (403, 15);
place = (403, 15);
type = Stem;
},
{
horizontal = 1;
place = (-7, 14);
place = (-7, 14);
type = Stem;
}
);
layerId = m01;
shapes = (
{
closed = 1;
nodes = (
(403,0,l),
(418,0,l),
(418,517,l),
(403,517,l),
(403,159,ls),
(403,87,o),
(329,7,o),
(215,7,cs),
(123,7,o),
(67,56,o),
(67,147,cs),
(67,517,l),
(52,517,l),
(52,146,ls),
(52,62,o),
(101,-7,o),
(214,-7,cs),
(316,-7,o),
(377,47,o),
(401,97,c),
(403,97,l)
);
}
);
width = 473;
}
);
note = u;
unicode = 117;
},
{
glyphname = v;
kernLeft = v;
kernRight = v;
layers = (
{
hints = (
{
horizontal = 1;
place = (0, 20);
place = (0, 20);
type = Stem;
},
{
horizontal = 1;
place = (517, -20);
target = down;
type = TopGhost;
},
{
place = (2, 416);
place = (2, 416);
type = Stem;
}
);
layerId = m01;
shapes = (
{
closed = 1;
nodes = (
(18,517,l),
(2,517,l),
(202,0,l),
(218,0,l),
(418,517,l),
(402,517,l),
(210,20,l)
);
}
);
width = 420;
}
);
note = v;
unicode = 118;
},
{
glyphname = w;
kernLeft = w;
kernRight = w;
layers = (
{
hints = (
{
horizontal = 1;
place = (0, 24);
place = (0, 24);
type = Stem;
},
{
horizontal = 1;
place = (491, 26);
place = (491, 26);
type = Stem;
},
{
place = (4, 686);
place = (4, 686);
type = Stem;
}
);
layerId = m01;
shapes = (
{
closed = 1;
nodes = (
(20,517,l),
(4,517,l),
(178,0,l),
(194,0,l),
(346,491,l),
(495,0,l),
(511,0,l),
(690,517,l),
(674,517,l),
(503,24,l),
(354,517,l),
(338,517,l),
(186,25,l)
);
}
);
width = 694;
}
);
note = w;
unicode = 119;
},
{
glyphname = x;
kernLeft = x;
kernRight = x;
layers = (
{
hints = (
{
horizontal = 1;
place = (0, 21);
target = up;
type = BottomGhost;
},
{
horizontal = 1;
place = (517, -20);
target = down;
type = TopGhost;
},
{
place = (6, 451);
place = (6, 451);
type = Stem;
}
);
layerId = m01;
shapes = (
{
closed = 1;
nodes = (
(6,0,l),
(25,0,l),
(231,263,l),
(438,0,l),
(457,0,l),
(241,275,l),
(430,517,l),
(411,517,l),
(231,287,l),
(52,517,l),
(33,517,l),
(222,275,l)
);
}
);
width = 463;
}
);
note = x;
unicode = 120;
},
{
glyphname = y;
kernLeft = yacute;
kernRight = yacute;
layers = (
{
hints = (
{
horizontal = 1;
place = (-168, 14);
place = (-168, 14);
type = Stem;
},
{
horizontal = 1;
place = (517, -20);
target = down;
type = TopGhost;
},
{
place = (2, 425);
place = (2, 425);
type = Stem;
},
{
horizontal = 1;
place = (-160, 21);
target = up;
type = BottomGhost;
}
);
layerId = m01;
shapes = (
{
closed = 1;
nodes = (
(427,517,l),
(411,517,l),
(217,40,l),
(19,517,l),
(2,517,l),
(209,20,l),
(185,-39,ls),
(143,-143,o),
(124,-154,o),
(79,-154,cs),
(60,-154,o),
(42,-150,o),
(30,-145,c),
(29,-145,l),
(29,-160,l),
(40,-164,o),
(57,-168,o),
(79,-168,cs),
(136,-168,o),
(157,-150,o),
(199,-45,cs)
);
}
);
width = 429;
}
);
note = y;
unicode = 121;
},
{
glyphname = z;
kernLeft = zcaron;
kernRight = zcaron;
layers = (
{
hints = (
{
horizontal = 1;
place = (0, 14);
place = (0, 14);
type = Stem;
},
{
horizontal = 1;
place = (503, 14);
place = (503, 14);
type = Stem;
},
{
place = (34, 18);
place = (34, 18);
type = Stem;
},
{
place = (391, 19);
place = (391, 19);
type = Stem;
}
);
layerId = m01;
shapes = (
{
closed = 1;
nodes = (
(410,503,l),
(410,517,l),
(50,517,l),
(50,503,l),
(391,503,l),
(34,14,l),
(34,0,l),
(425,0,l),
(425,14,l),
(52,14,l)
);
}
);
width = 450;
}
);
note = z;
unicode = 122;
},
{
glyphname = braceleft;
kernRight = bracketleft;
layers = (
{
hints = (
{
horizontal = 1;
place = (-118, 14);
place = (-118, 14);
type = Stem;
},
{
horizontal = 1;
place = (315, 14);
place = (315, 14);
type = Stem;
},
{
horizontal = 1;
place = (740, 14);
place = (740, 14);
type = Stem;
},
{
place = (90, 15);
place = (90, 15);
type = Stem;
}
);
layerId = m01;
shapes = (
{
closed = 1;
nodes = (
(90,399,ls),
(90,356,o),
(74,329,o),
(31,329,cs),
(24,329,l),
(24,315,l),
(31,315,ls),
(76,315,o),
(90,288,o),
(90,245,cs),
(90,24,ls),
(90,-82,o),
(129,-118,o),
(216,-118,c),
(216,-104,l),
(139,-104,o),
(105,-72,o),
(105,24,cs),
(105,245,ls),
(105,286,o),
(95,310,o),
(64,322,c),
(92,334,o),
(105,360,o),
(105,399,cs),
(105,614,ls),
(105,710,o),
(139,740,o),
(216,740,c),
(216,754,l),
(129,754,o),
(90,720,o),
(90,614,cs)
);
}
);
width = 246;
}
);
note = braceleft;
unicode = 123;
},
{
glyphname = bar;
layers = (
{
hints = (
{
horizontal = 1;
place = (-118, 872);
place = (-118, 872);
type = Stem;
},
{
place = (77, 15);
place = (77, 15);
type = Stem;
}
);
layerId = m01;
shapes = (
{
closed = 1;
nodes = (
(77,-118,l),
(92,-118,l),
(92,754,l),
(77,754,l)
);
}
);
width = 169;
}
);
note = bar;
unicode = 124;
},
{
glyphname = braceright;
kernLeft = bracketright;
layers = (
{
hints = (
{
horizontal = 1;
place = (-118, 14);
place = (-118, 14);
type = Stem;
},
{
horizontal = 1;
place = (315, 14);
place = (315, 14);
type = Stem;
},
{
horizontal = 1;
place = (740, 14);
place = (740, 14);
type = Stem;
},
{
place = (141, 15);
place = (141, 15);
type = Stem;
}
);
layerId = m01;
shapes = (
{
closed = 1;
nodes = (
(30,740,l),
(107,740,o),
(141,710,o),
(141,614,cs),
(141,399,ls),
(141,360,o),
(154,334,o),
(182,322,c),
(151,310,o),
(141,286,o),
(141,245,cs),
(141,24,ls),
(141,-72,o),
(107,-104,o),
(30,-104,c),
(30,-118,l),
(117,-118,o),
(156,-82,o),
(156,24,cs),
(156,245,ls),
(156,288,o),
(170,315,o),
(215,315,cs),
(222,315,l),
(222,329,l),
(215,329,ls),
(172,329,o),
(156,356,o),
(156,399,cs),
(156,614,ls),
(156,720,o),
(117,754,o),
(30,754,c)
);
}
);
width = 246;
}
);
note = braceright;
unicode = 125;
},
{
glyphname = asciitilde;
layers = (
{
hints = (
{
horizontal = 1;
place = (289, 14);
place = (289, 14);
type = Stem;
},
{
horizontal = 1;
place = (363, 14);
place = (363, 14);
type = Stem;
},
{
place = (36, 15);
place = (36, 15);
type = Stem;
},
{
place = (333, 15);
place = (333, 15);
type = Stem;
}
);
layerId = m01;
shapes = (
{
closed = 1;
nodes = (
(218,305,o),
(237,289,o),
(274,289,cs),
(321,289,o),
(345,324,o),
(348,372,c),
(333,372,l),
(330,329,o),
(311,303,o),
(276,303,cs),
(243,303,o),
(225,318,o),
(198,338,cs),
(166,361,o),
(147,377,o),
(110,377,cs),
(63,377,o),
(39,342,o),
(36,294,c),
(51,294,l),
(54,337,o),
(73,363,o),
(108,363,cs),
(141,363,o),
(159,348,o),
(186,328,cs)
);
}
);
width = 384;
}
);
note = asciitilde;
unicode = 126;
},
{
glyphname = Adieresis;
kernLeft = A;
kernRight = A;
layers = (
{
hints = (
{
horizontal = 1;
place = (0, 21);
target = up;
type = BottomGhost;
},
{
horizontal = 1;
place = (256, 14);
place = (256, 14);
type = Stem;
},
{
horizontal = 1;
place = (695, 20);
place = (695, 20);
type = Stem;
},
{
horizontal = 1;
place = (782, 54);
place = (782, 54);
type = Stem;
},
{
place = (214, 15);
place = (214, 15);
type = Stem;
},
{
place = (359, 15);
place = (359, 15);
type = Stem;
}
);
layerId = m01;
shapes = (
{
closed = 1;
nodes = (
(562,0,l),
(578,0,l),
(303,715,l),
(285,715,l),
(10,0,l),
(26,0,l),
(125,256,l),
(463,256,l)
);
},
{
closed = 1;
nodes = (
(294,695,l),
(458,270,l),
(130,270,l)
);
},
{
closed = 1;
nodes = (
(229,836,l),
(214,836,l),
(214,782,l),
(229,782,l)
);
},
{
closed = 1;
nodes = (
(374,836,l),
(359,836,l),
(359,782,l),
(374,782,l)
);
}
);
width = 588;
}
);
note = Adieresis;
unicode = 196;
},
{
glyphname = Aring;
kernLeft = A;
kernRight = A;
layers = (
{
hints = (
{
horizontal = 1;
place = (0, 21);
target = up;
type = BottomGhost;
},
{
horizontal = 1;
place = (256, 14);
place = (256, 14);
type = Stem;
},
{
horizontal = 1;
place = (695, 20);
place = (695, 20);
type = Stem;
},
{
horizontal = 1;
place = (754, 13);
place = (754, 13);
type = Stem;
},
{
horizontal = 1;
place = (896, 13);
place = (896, 13);
type = Stem;
},
{
place = (217, 14);
place = (217, 14);
type = Stem;
},
{
place = (356, 14);
place = (356, 14);
type = Stem;
}
);
layerId = m01;
shapes = (
{
closed = 1;
nodes = (
(562,0,l),
(578,0,l),
(303,715,l),
(285,715,l),
(10,0,l),
(26,0,l),
(125,256,l),
(463,256,l)
);
},
{
closed = 1;
nodes = (
(294,695,l),
(458,270,l),
(130,270,l)
);
},
{
closed = 1;
nodes = (
(339,754,o),
(370,785,o),
(370,832,cs),
(370,878,o),
(339,909,o),
(294,909,cs),
(249,909,o),
(217,878,o),
(217,832,cs),
(217,785,o),
(249,754,o),
(294,754,cs)
);
},
{
closed = 1;
nodes = (
(256,767,o),
(231,794,o),
(231,832,cs),
(231,870,o),
(256,896,o),
(294,896,cs),
(332,896,o),
(356,870,o),
(356,832,cs),
(356,794,o),
(332,767,o),
(294,767,cs)
);
}
);
width = 588;
}
);
note = Aring;
unicode = 197;
},
{
glyphname = Ccedilla;
kernLeft = C;
kernRight = C;
layers = (
{
hints = (
{
horizontal = 1;
place = (-179, 14);
place = (-179, 14);
type = Stem;
},
{
horizontal = 1;
place = (-68, 14);
place = (-68, 14);
type = Stem;
},
{
horizontal = 1;
place = (-9, 14);
place = (-9, 14);
type = Stem;
},
{
horizontal = 1;
place = (709, 14);
place = (709, 14);
type = Stem;
},
{
place = (40, 15);
place = (40, 15);
type = Stem;
},
{
place = (442, 15);
place = (442, 15);
type = Stem;
},
{
horizontal = 1;
place = (-150, 21);
target = up;
type = BottomGhost;
},
{
place = (642, 14);
place = (642, 14);
type = Stem;
}
);
layerId = m01;
shapes = (
{
closed = 1;
nodes = (
(646,510,l),
(629,619,o),
(535,723,o),
(371,723,cs),
(167,723,o),
(40,571,o),
(40,358,cs),
(40,136,o),
(171,-9,o),
(367,-9,cs),
(383,-9,l),
(317,-72,l),
(324,-82,l),
(339,-73,o),
(358,-68,o),
(379,-68,cs),
(421,-68,o),
(442,-84,o),
(442,-111,cs),
(442,-151,o),
(406,-165,o),
(362,-165,cs),
(332,-165,o),
(297,-155,o),
(272,-138,c),
(265,-150,l),
(294,-169,o),
(331,-179,o),
(362,-179,cs),
(414,-179,o),
(457,-158,o),
(457,-111,cs),
(457,-77,o),
(430,-54,o),
(379,-54,cs),
(365,-54,o),
(351,-58,o),
(347,-60,c),
(403,-7,l),
(474,0,o),
(531,30,o),
(572,71,cs),
(621,120,o),
(650,185,o),
(656,253,c),
(642,253,l),
(627,122,o),
(533,5,o),
(367,5,cs),
(178,5,o),
(55,146,o),
(55,358,cs),
(55,562,o),
(173,709,o),
(371,709,cs),
(527,709,o),
(616,611,o),
(632,510,c)
);
}
);
width = 690;
}
);
note = Ccedilla;
unicode = 199;
},
{
glyphname = Eacute;
kernRight = E;
layers = (
{
hints = (
{
horizontal = 1;
place = (0, 14);
place = (0, 14);
type = Stem;
},
{
horizontal = 1;
place = (364, 14);
place = (364, 14);
type = Stem;
},
{
horizontal = 1;
place = (701, 14);
place = (701, 14);
type = Stem;
},
{
place = (67, 15);
place = (67, 15);
type = Stem;
}
);
layerId = m01;
shapes = (
{
closed = 1;
nodes = (
(292,756,l),
(308,756,l),
(370,871,l),
(353,871,l)
);
},
{
closed = 1;
nodes = (
(82,701,l),
(534,701,l),
(534,715,l),
(67,715,l),
(67,0,l),
(544,0,l),
(544,14,l),
(82,14,l),
(82,364,l),
(499,364,l),
(499,378,l),
(82,378,l)
);
}
);
width = 582;
}
);
note = Eacute;
unicode = 201;
},
{
glyphname = Ntilde;
layers = (
{
hints = (
{
horizontal = 1;
place = (0, 21);
target = up;
type = BottomGhost;
},
{
horizontal = 1;
place = (690, 25);
place = (690, 25);
type = Stem;
},
{
horizontal = 1;
place = (770, 14);
place = (770, 14);
type = Stem;
},
{
horizontal = 1;
place = (830, 14);
place = (830, 14);
type = Stem;
},
{
place = (67, 15);
place = (67, 15);
type = Stem;
},
{
place = (211, 14);
place = (211, 14);
type = Stem;
},
{
place = (461, 14);
place = (461, 14);
type = Stem;
},
{
place = (587, 15);
place = (587, 15);
type = Stem;
},
{
horizontal = 1;
place = (0, 25);
place = (0, 25);
type = Stem;
}
);
layerId = m01;
shapes = (
{
closed = 1;
nodes = (
(602,715,l),
(587,715,l),
(587,25,l),
(83,715,l),
(67,715,l),
(67,0,l),
(82,0,l),
(82,690,l),
(587,0,l),
(602,0,l)
);
},
{
closed = 1;
nodes = (
(238,844,o),
(213,817,o),
(211,769,c),
(225,769,l),
(228,813,o),
(246,830,o),
(272,830,cs),
(331,830,o),
(349,770,o),
(413,770,cs),
(448,770,o),
(473,795,o),
(475,845,c),
(461,845,l),
(458,801,o),
(440,784,o),
(414,784,cs),
(355,784,o),
(339,844,o),
(273,844,cs)
);
}
);
width = 669;
}
);
note = Ntilde;
unicode = 209;
},
{
glyphname = Odieresis;
kernLeft = C;
kernRight = O;
layers = (
{
hints = (
{
horizontal = 1;
place = (-8, 14);
place = (-8, 14);
type = Stem;
},
{
horizontal = 1;
place = (709, 14);
place = (709, 14);
type = Stem;
},
{
horizontal = 1;
place = (782, 54);
place = (782, 54);
type = Stem;
},
{
place = (40, 15);
place = (40, 15);
type = Stem;
},
{
place = (295, 15);
place = (295, 15);
type = Stem;
},
{
place = (440, 15);
place = (440, 15);
type = Stem;
},
{
place = (694, 15);
place = (694, 15);
type = Stem;
}
);
layerId = m01;
shapes = (
{
closed = 1;
nodes = (
(568,-8,o),
(709,146,o),
(709,357,cs),
(709,569,o),
(568,723,o),
(374,723,cs),
(180,723,o),
(40,569,o),
(40,357,cs),
(40,145,o),
(180,-8,o),
(374,-8,cs)
);
},
{
closed = 1;
nodes = (
(184,6,o),
(55,159,o),
(55,357,cs),
(55,556,o),
(184,709,o),
(374,709,cs),
(563,709,o),
(694,555,o),
(694,357,cs),
(694,160,o),
(563,6,o),
(374,6,cs)
);
},
{
closed = 1;
nodes = (
(310,836,l),
(295,836,l),
(295,782,l),
(310,782,l)
);
},
{
closed = 1;
nodes = (
(455,836,l),
(440,836,l),
(440,782,l),
(455,782,l)
);
}
);
width = 749;
}
);
note = Odieresis;
unicode = 214;
},
{
glyphname = Udieresis;
kernLeft = U;
kernRight = U;
layers = (
{
hints = (
{
horizontal = 1;
place = (-9, 14);
place = (-9, 14);
type = Stem;
},
{
horizontal = 1;
place = (715, -20);
target = down;
type = TopGhost;
},
{
horizontal = 1;
place = (782, 54);
place = (782, 54);
type = Stem;
},
{
place = (55, 15);
place = (55, 15);
type = Stem;
},
{
place = (236, 15);
place = (236, 15);
type = Stem;
},
{
place = (381, 15);
place = (381, 15);
type = Stem;
},
{
place = (556, 15);
place = (556, 15);
type = Stem;
}
);
layerId = m01;
shapes = (
{
closed = 1;
nodes = (
(55,715,l),
(55,236,ls),
(55,58,o),
(171,-9,o),
(313,-9,cs),
(452,-9,o),
(571,58,o),
(571,236,cs),
(571,715,l),
(556,715,l),
(556,236,ls),
(556,68,o),
(445,5,o),
(313,5,cs),
(178,5,o),
(70,68,o),
(70,236,cs),
(70,715,l)
);
},
{
closed = 1;
nodes = (
(251,836,l),
(236,836,l),
(236,782,l),
(251,782,l)
);
},
{
closed = 1;
nodes = (
(396,836,l),
(381,836,l),
(381,782,l),
(396,782,l)
);
}
);
width = 626;
}
);
note = Udieresis;
unicode = 220;
},
{
glyphname = aacute;
kernLeft = a;
kernRight = a;
layers = (
{
hints = (
{
horizontal = 1;
place = (-4, 14);
place = (-4, 14);
type = Stem;
},
{
horizontal = 1;
place = (510, 14);
place = (510, 14);
type = Stem;
},
{
place = (24, 15);
place = (24, 15);
type = Stem;
},
{
place = (52, 15);
place = (52, 15);
type = Stem;
},
{
place = (395, 15);
place = (395, 15);
type = Stem;
},
{
horizontal = 1;
place = (-8, 14);
place = (-8, 14);
type = Stem;
}
);
layerId = m01;
shapes = (
{
closed = 1;
nodes = (
(465,-4,o),
(478,0,o),
(484,4,c),
(484,18,l),
(482,18,l),
(475,14,o),
(465,10,o),
(451,10,cs),
(424,10,o),
(410,22,o),
(410,69,cs),
(410,367,ls),
(410,467,o),
(354,524,o),
(240,524,cs),
(105,524,o),
(57,451,o),
(52,367,c),
(67,367,l),
(75,467,o),
(135,510,o),
(240,510,cs),
(346,510,o),
(395,457,o),
(395,367,cs),
(395,307,o),
(353,292,o),
(222,275,cs),
(113,261,o),
(24,234,o),
(24,129,cs),
(24,46,o),
(90,-8,o),
(190,-8,cs),
(291,-8,o),
(372,44,o),
(393,116,c),
(395,116,l),
(395,68,ls),
(395,31,o),
(402,-4,o),
(451,-4,cs)
);
},
{
closed = 1;
nodes = (
(121,6,o),
(39,38,o),
(39,129,cs),
(39,219,o),
(106,248,o),
(228,263,cs),
(349,278,o),
(379,296,o),
(395,319,c),
(395,186,ls),
(395,75,o),
(305,6,o),
(190,6,cs)
);
},
{
closed = 1;
nodes = (
(222,604,l),
(238,604,l),
(303,725,l),
(286,725,l)
);
}
);
width = 489;
}
);
note = aacute;
unicode = 225;
},
{
glyphname = agrave;
kernLeft = a;
kernRight = a;
layers = (
{
hints = (
{
horizontal = 1;
place = (-4, 14);
place = (-4, 14);
type = Stem;
},
{
horizontal = 1;
place = (510, 14);
place = (510, 14);
type = Stem;
},
{
place = (24, 15);
place = (24, 15);
type = Stem;
},
{
place = (52, 15);
place = (52, 15);
type = Stem;
},
{
place = (395, 15);
place = (395, 15);
type = Stem;
},
{
horizontal = 1;
place = (-8, 14);
place = (-8, 14);
type = Stem;
}
);
layerId = m01;
shapes = (
{
closed = 1;
nodes = (
(465,-4,o),
(478,0,o),
(484,4,c),
(484,18,l),
(482,18,l),
(475,14,o),
(465,10,o),
(451,10,cs),
(424,10,o),
(410,22,o),
(410,69,cs),
(410,367,ls),
(410,467,o),
(354,524,o),
(240,524,cs),
(105,524,o),
(57,451,o),
(52,367,c),
(67,367,l),
(75,467,o),
(135,510,o),
(240,510,cs),
(346,510,o),
(395,457,o),
(395,367,cs),
(395,307,o),
(353,292,o),
(222,275,cs),
(113,261,o),
(24,234,o),
(24,129,cs),
(24,46,o),
(90,-8,o),
(190,-8,cs),
(291,-8,o),
(372,44,o),
(393,116,c),
(395,116,l),
(395,68,ls),
(395,31,o),
(402,-4,o),
(451,-4,cs)
);
},
{
closed = 1;
nodes = (
(121,6,o),
(39,38,o),
(39,129,cs),
(39,219,o),
(106,248,o),
(228,263,cs),
(349,278,o),
(379,296,o),
(395,319,c),
(395,186,ls),
(395,75,o),
(305,6,o),
(190,6,cs)
);
},
{
closed = 1;
nodes = (
(174,725,l),
(157,725,l),
(225,604,l),
(241,604,l)
);
}
);
width = 489;
}
);
note = agrave;
unicode = 224;
},
{
glyphname = acircumflex;
kernLeft = a;
kernRight = a;
layers = (
{
hints = (
{
horizontal = 1;
place = (-4, 14);
place = (-4, 14);
type = Stem;
},
{
horizontal = 1;
place = (510, 14);
place = (510, 14);
type = Stem;
},
{
place = (24, 15);
place = (24, 15);
type = Stem;
},
{
place = (52, 15);
place = (52, 15);
type = Stem;
},
{
place = (395, 15);
place = (395, 15);
type = Stem;
},
{
horizontal = 1;
place = (-8, 14);
place = (-8, 14);
type = Stem;
},
{
horizontal = 1;
place = (696, 12);
place = (696, 12);
type = Stem;
}
);
layerId = m01;
shapes = (
{
closed = 1;
nodes = (
(465,-4,o),
(478,0,o),
(484,4,c),
(484,18,l),
(482,18,l),
(475,14,o),
(465,10,o),
(451,10,cs),
(424,10,o),
(410,22,o),
(410,69,cs),
(410,367,ls),
(410,467,o),
(354,524,o),
(240,524,cs),
(105,524,o),
(57,451,o),
(52,367,c),
(67,367,l),
(75,467,o),
(135,510,o),
(240,510,cs),
(346,510,o),
(395,457,o),
(395,367,cs),
(395,307,o),
(353,292,o),
(222,275,cs),
(113,261,o),
(24,234,o),
(24,129,cs),
(24,46,o),
(90,-8,o),
(190,-8,cs),
(291,-8,o),
(372,44,o),
(393,116,c),
(395,116,l),
(395,68,ls),
(395,31,o),
(402,-4,o),
(451,-4,cs)
);
},
{
closed = 1;
nodes = (
(121,6,o),
(39,38,o),
(39,129,cs),
(39,219,o),
(106,248,o),
(228,263,cs),
(349,278,o),
(379,296,o),
(395,319,c),
(395,186,ls),
(395,75,o),
(305,6,o),
(190,6,cs)
);
},
{
closed = 1;
nodes = (
(231,708,l),
(215,708,l),
(121,604,l),
(138,604,l),
(223,696,l),
(308,604,l),
(325,604,l)
);
}
);
width = 489;
}
);
note = acircumflex;
unicode = 226;
},
{
glyphname = adieresis;
kernLeft = a;
kernRight = a;
layers = (
{
hints = (
{
horizontal = 1;
place = (-4, 14);
place = (-4, 14);
type = Stem;
},
{
horizontal = 1;
place = (510, 14);
place = (510, 14);
type = Stem;
},
{
place = (24, 15);
place = (24, 15);
type = Stem;
},
{
place = (52, 15);
place = (52, 15);
type = Stem;
},
{
place = (154, 15);
place = (154, 15);
type = Stem;
},
{
place = (299, 15);
place = (299, 15);
type = Stem;
},
{
place = (395, 15);
place = (395, 15);
type = Stem;
},
{
horizontal = 1;
place = (-8, 14);
place = (-8, 14);
type = Stem;
},
{
horizontal = 1;
place = (651, 54);
place = (651, 54);
type = Stem;
}
);
layerId = m01;
shapes = (
{
closed = 1;
nodes = (
(465,-4,o),
(478,0,o),
(484,4,c),
(484,18,l),
(482,18,l),
(475,14,o),
(465,10,o),
(451,10,cs),
(424,10,o),
(410,22,o),
(410,69,cs),
(410,367,ls),
(410,467,o),
(354,524,o),
(240,524,cs),
(105,524,o),
(57,451,o),
(52,367,c),
(67,367,l),
(75,467,o),
(135,510,o),
(240,510,cs),
(346,510,o),
(395,457,o),
(395,367,cs),
(395,307,o),
(353,292,o),
(222,275,cs),
(113,261,o),
(24,234,o),
(24,129,cs),
(24,46,o),
(90,-8,o),
(190,-8,cs),
(291,-8,o),
(372,44,o),
(393,116,c),
(395,116,l),
(395,68,ls),
(395,31,o),
(402,-4,o),
(451,-4,cs)
);
},
{
closed = 1;
nodes = (
(121,6,o),
(39,38,o),
(39,129,cs),
(39,219,o),
(106,248,o),
(228,263,cs),
(349,278,o),
(379,296,o),
(395,319,c),
(395,186,ls),
(395,75,o),
(305,6,o),
(190,6,cs)
);
},
{
closed = 1;
nodes = (
(169,705,l),
(154,705,l),
(154,651,l),
(169,651,l)
);
},
{
closed = 1;
nodes = (
(314,705,l),
(299,705,l),
(299,651,l),
(314,651,l)
);
}
);
width = 489;
}
);
note = adieresis;
unicode = 228;
},
{
glyphname = atilde;
kernLeft = a;
kernRight = a;
layers = (
{
hints = (
{
horizontal = 1;
place = (-4, 14);
place = (-4, 14);
type = Stem;
},
{
horizontal = 1;
place = (510, 14);
place = (510, 14);
type = Stem;
},
{
horizontal = 1;
place = (612, 14);
place = (612, 14);
type = Stem;
},
{
horizontal = 1;
place = (672, 14);
place = (672, 14);
type = Stem;
},
{
place = (24, 15);
place = (24, 15);
type = Stem;
},
{
place = (52, 15);
place = (52, 15);
type = Stem;
},
{
place = (96, 14);
place = (96, 14);
type = Stem;
},
{
place = (346, 14);
place = (346, 14);
type = Stem;
},
{
place = (395, 15);
place = (395, 15);
type = Stem;
},
{
horizontal = 1;
place = (-8, 14);
place = (-8, 14);
type = Stem;
}
);
layerId = m01;
shapes = (
{
closed = 1;
nodes = (
(465,-4,o),
(478,0,o),
(484,4,c),
(484,18,l),
(482,18,l),
(475,14,o),
(465,10,o),
(451,10,cs),
(424,10,o),
(410,22,o),
(410,69,cs),
(410,367,ls),
(410,467,o),
(354,524,o),
(240,524,cs),
(105,524,o),
(57,451,o),
(52,367,c),
(67,367,l),
(75,467,o),
(135,510,o),
(240,510,cs),
(346,510,o),
(395,457,o),
(395,367,cs),
(395,307,o),
(353,292,o),
(222,275,cs),
(113,261,o),
(24,234,o),
(24,129,cs),
(24,46,o),
(90,-8,o),
(190,-8,cs),
(291,-8,o),
(372,44,o),
(393,116,c),
(395,116,l),
(395,68,ls),
(395,31,o),
(402,-4,o),
(451,-4,cs)
);
},
{
closed = 1;
nodes = (
(121,6,o),
(39,38,o),
(39,129,cs),
(39,219,o),
(106,248,o),
(228,263,cs),
(349,278,o),
(379,296,o),
(395,319,c),
(395,186,ls),
(395,75,o),
(305,6,o),
(190,6,cs)
);
},
{
closed = 1;
nodes = (
(123,686,o),
(98,659,o),
(96,611,c),
(110,611,l),
(113,655,o),
(131,672,o),
(157,672,cs),
(216,672,o),
(234,612,o),
(298,612,cs),
(333,612,o),
(358,637,o),
(360,687,c),
(346,687,l),
(343,643,o),
(325,626,o),
(299,626,cs),
(240,626,o),
(224,686,o),
(158,686,cs)
);
}
);
width = 489;
}
);
note = atilde;
unicode = 227;
},
{
glyphname = aring;
kernLeft = a;
kernRight = a;
layers = (
{
hints = (
{
horizontal = 1;
place = (-4, 14);
place = (-4, 14);
type = Stem;
},
{
horizontal = 1;
place = (510, 14);
place = (510, 14);
type = Stem;
},
{
horizontal = 1;
place = (567, 13);
place = (567, 13);
type = Stem;
},
{
horizontal = 1;
place = (707, 13);
place = (707, 13);
type = Stem;
},
{
place = (24, 15);
place = (24, 15);
type = Stem;
},
{
place = (52, 15);
place = (52, 15);
type = Stem;
},
{
place = (154, 14);
place = (154, 14);
type = Stem;
},
{
place = (292, 14);
place = (292, 14);
type = Stem;
},
{
place = (395, 15);
place = (395, 15);
type = Stem;
},
{
horizontal = 1;
place = (-8, 14);
place = (-8, 14);
type = Stem;
}
);
layerId = m01;
shapes = (
{
closed = 1;
nodes = (
(465,-4,o),
(478,0,o),
(484,4,c),
(484,18,l),
(482,18,l),
(475,14,o),
(465,10,o),
(451,10,cs),
(424,10,o),
(410,22,o),
(410,69,cs),
(410,367,ls),
(410,467,o),
(354,524,o),
(240,524,cs),
(105,524,o),
(57,451,o),
(52,367,c),
(67,367,l),
(75,467,o),
(135,510,o),
(240,510,cs),
(346,510,o),
(395,457,o),
(395,367,cs),
(395,307,o),
(353,292,o),
(222,275,cs),
(113,261,o),
(24,234,o),
(24,129,cs),
(24,46,o),
(90,-8,o),
(190,-8,cs),
(291,-8,o),
(372,44,o),
(393,116,c),
(395,116,l),
(395,68,ls),
(395,31,o),
(402,-4,o),
(451,-4,cs)
);
},
{
closed = 1;
nodes = (
(121,6,o),
(39,38,o),
(39,129,cs),
(39,219,o),
(106,248,o),
(228,263,cs),
(349,278,o),
(379,296,o),
(395,319,c),
(395,186,ls),
(395,75,o),
(305,6,o),
(190,6,cs)
);
},
{
closed = 1;
nodes = (
(275,567,o),
(306,598,o),
(306,644,cs),
(306,689,o),
(275,720,o),
(230,720,cs),
(185,720,o),
(154,689,o),
(154,644,cs),
(154,598,o),
(185,567,o),
(230,567,cs)
);
},
{
closed = 1;
nodes = (
(192,580,o),
(168,607,o),
(168,644,cs),
(168,681,o),
(192,707,o),
(230,707,cs),
(268,707,o),
(292,681,o),
(292,644,cs),
(292,607,o),
(268,580,o),
(230,580,cs)
);
}
);
width = 489;
}
);
note = aring;
unicode = 229;
},
{
glyphname = ccedilla;
kernLeft = c;
kernRight = c;
layers = (
{
hints = (
{
horizontal = 1;
place = (-179, 14);
place = (-179, 14);
type = Stem;
},
{
horizontal = 1;
place = (-68, 14);
place = (-68, 14);
type = Stem;
},
{
horizontal = 1;
place = (-8, 14);
place = (-8, 14);
type = Stem;
},
{
horizontal = 1;
place = (510, 14);
place = (510, 14);
type = Stem;
},
{
place = (26, 15);
place = (26, 15);
type = Stem;
},
{
place = (337, 15);
place = (337, 15);
type = Stem;
},
{
horizontal = 1;
place = (-150, 21);
target = up;
type = BottomGhost;
}
);
layerId = m01;
shapes = (
{
closed = 1;
nodes = (
(470,174,l),
(456,68,o),
(383,6,o),
(264,6,cs),
(144,6,o),
(41,102,o),
(41,260,cs),
(41,420,o),
(145,510,o),
(264,510,cs),
(358,510,o),
(444,467,o),
(468,361,c),
(483,361,l),
(462,463,o),
(380,524,o),
(264,524,cs),
(116,524,o),
(26,403,o),
(26,260,cs),
(26,116,o),
(117,-8,o),
(264,-8,cs),
(279,-8,l),
(212,-72,l),
(219,-82,l),
(234,-73,o),
(253,-68,o),
(274,-68,cs),
(316,-68,o),
(337,-84,o),
(337,-111,cs),
(337,-151,o),
(301,-165,o),
(257,-165,cs),
(227,-165,o),
(192,-155,o),
(167,-138,c),
(160,-150,l),
(189,-169,o),
(226,-179,o),
(257,-179,cs),
(309,-179,o),
(352,-158,o),
(352,-111,cs),
(352,-77,o),
(325,-54,o),
(274,-54,cs),
(260,-54,o),
(246,-58,o),
(242,-60,c),
(299,-6,l),
(414,6,o),
(473,80,o),
(485,174,c)
);
}
);
width = 507;
}
);
note = ccedilla;
unicode = 231;
},
{
glyphname = eacute;
kernLeft = c;
kernRight = e;
layers = (
{
hints = (
{
horizontal = 1;
place = (-8, 14);
place = (-8, 14);
type = Stem;
},
{
horizontal = 1;
place = (265, 14);
place = (265, 14);
type = Stem;
},
{
horizontal = 1;
place = (510, 14);
place = (510, 14);
type = Stem;
},
{
place = (26, 15);
place = (26, 15);
type = Stem;
},
{
place = (467, 15);
place = (467, 15);
type = Stem;
}
);
layerId = m01;
shapes = (
{
closed = 1;
nodes = (
(482,265,l),
(478,360,o),
(447,437,o),
(390,481,cs),
(356,509,o),
(311,524,o),
(258,524,cs),
(112,524,o),
(26,408,o),
(26,266,cs),
(26,110,o),
(109,-8,o),
(263,-8,cs),
(383,-8,o),
(454,66,o),
(473,151,c),
(458,151,l),
(432,54,o),
(357,6,o),
(263,6,cs),
(123,6,o),
(42,113,o),
(41,265,c)
);
},
{
closed = 1;
nodes = (
(41,279,l),
(46,425,o),
(144,510,o),
(258,510,cs),
(358,510,o),
(455,445,o),
(467,279,c)
);
},
{
closed = 1;
nodes = (
(240,604,l),
(256,604,l),
(321,725,l),
(304,725,l)
);
}
);
width = 506;
}
);
note = eacute;
unicode = 233;
},
{
glyphname = egrave;
kernLeft = c;
kernRight = e;
layers = (
{
hints = (
{
horizontal = 1;
place = (-8, 14);
place = (-8, 14);
type = Stem;
},
{
horizontal = 1;
place = (265, 14);
place = (265, 14);
type = Stem;
},
{
horizontal = 1;
place = (510, 14);
place = (510, 14);
type = Stem;
},
{
place = (26, 15);
place = (26, 15);
type = Stem;
},
{
place = (467, 15);
place = (467, 15);
type = Stem;
}
);
layerId = m01;
shapes = (
{
closed = 1;
nodes = (
(482,265,l),
(478,360,o),
(447,437,o),
(390,481,cs),
(356,509,o),
(311,524,o),
(258,524,cs),
(112,524,o),
(26,408,o),
(26,266,cs),
(26,110,o),
(109,-8,o),
(263,-8,cs),
(383,-8,o),
(454,66,o),
(473,151,c),
(458,151,l),
(432,54,o),
(357,6,o),
(263,6,cs),
(123,6,o),
(42,113,o),
(41,265,c)
);
},
{
closed = 1;
nodes = (
(41,279,l),
(46,425,o),
(144,510,o),
(258,510,cs),
(358,510,o),
(455,445,o),
(467,279,c)
);
},
{
closed = 1;
nodes = (
(196,725,l),
(179,725,l),
(247,604,l),
(263,604,l)
);
}
);
width = 506;
}
);
note = egrave;
unicode = 232;
},
{
glyphname = ecircumflex;
kernLeft = c;
kernRight = e;
layers = (
{
hints = (
{
horizontal = 1;
place = (-8, 14);
place = (-8, 14);
type = Stem;
},
{
horizontal = 1;
place = (265, 14);
place = (265, 14);
type = Stem;
},
{
horizontal = 1;
place = (510, 14);
place = (510, 14);
type = Stem;
},
{
horizontal = 1;
place = (696, 12);
place = (696, 12);
type = Stem;
},
{
place = (26, 15);
place = (26, 15);
type = Stem;
},
{
place = (467, 15);
place = (467, 15);
type = Stem;
}
);
layerId = m01;
shapes = (
{
closed = 1;
nodes = (
(482,265,l),
(478,360,o),
(447,437,o),
(390,481,cs),
(356,509,o),
(311,524,o),
(258,524,cs),
(112,524,o),
(26,408,o),
(26,266,cs),
(26,110,o),
(109,-8,o),
(263,-8,cs),
(383,-8,o),
(454,66,o),
(473,151,c),
(458,151,l),
(432,54,o),
(357,6,o),
(263,6,cs),
(123,6,o),
(42,113,o),
(41,265,c)
);
},
{
closed = 1;
nodes = (
(41,279,l),
(46,425,o),
(144,510,o),
(258,510,cs),
(358,510,o),
(455,445,o),
(467,279,c)
);
},
{
closed = 1;
nodes = (
(268,708,l),
(252,708,l),
(158,604,l),
(175,604,l),
(260,696,l),
(345,604,l),
(362,604,l)
);
}
);
width = 506;
}
);
note = ecircumflex;
unicode = 234;
},
{
glyphname = edieresis;
kernLeft = c;
kernRight = e;
layers = (
{
hints = (
{
horizontal = 1;
place = (-8, 14);
place = (-8, 14);
type = Stem;
},
{
horizontal = 1;
place = (265, 14);
place = (265, 14);
type = Stem;
},
{
horizontal = 1;
place = (510, 14);
place = (510, 14);
type = Stem;
},
{
horizontal = 1;
place = (651, 54);
place = (651, 54);
type = Stem;
},
{
place = (26, 15);
place = (26, 15);
type = Stem;
},
{
place = (178, 15);
place = (178, 15);
type = Stem;
},
{
place = (323, 15);
place = (323, 15);
type = Stem;
},
{
place = (467, 15);
place = (467, 15);
type = Stem;
}
);
layerId = m01;
shapes = (
{
closed = 1;
nodes = (
(482,265,l),
(478,360,o),
(447,437,o),
(390,481,cs),
(356,509,o),
(311,524,o),
(258,524,cs),
(112,524,o),
(26,408,o),
(26,266,cs),
(26,110,o),
(109,-8,o),
(263,-8,cs),
(383,-8,o),
(454,66,o),
(473,151,c),
(458,151,l),
(432,54,o),
(357,6,o),
(263,6,cs),
(123,6,o),
(42,113,o),
(41,265,c)
);
},
{
closed = 1;
nodes = (
(41,279,l),
(46,425,o),
(144,510,o),
(258,510,cs),
(358,510,o),
(455,445,o),
(467,279,c)
);
},
{
closed = 1;
nodes = (
(193,705,l),
(178,705,l),
(178,651,l),
(193,651,l)
);
},
{
closed = 1;
nodes = (
(338,705,l),
(323,705,l),
(323,651,l),
(338,651,l)
);
}
);
width = 506;
}
);
note = edieresis;
unicode = 235;
},
{
glyphname = iacute;
kernLeft = b;
layers = (
{
hints = (
{
horizontal = 1;
place = (0, 21);
target = up;
type = BottomGhost;
},
{
horizontal = 1;
place = (517, -20);
target = down;
type = TopGhost;
},
{
place = (55, 15);
place = (55, 15);
type = Stem;
}
);
layerId = m01;
shapes = (
{
closed = 1;
nodes = (
(70,517,l),
(55,517,l),
(55,0,l),
(70,0,l)
);
},
{
closed = 1;
nodes = (
(58,604,l),
(74,604,l),
(151,725,l),
(134,725,l)
);
}
);
width = 125;
}
);
note = iacute;
unicode = 237;
},
{
glyphname = igrave;
kernLeft = b;
layers = (
{
hints = (
{
horizontal = 1;
place = (0, 21);
target = up;
type = BottomGhost;
},
{
horizontal = 1;
place = (517, -20);
target = down;
type = TopGhost;
},
{
place = (67, 15);
place = (67, 15);
type = Stem;
}
);
layerId = m01;
shapes = (
{
closed = 1;
nodes = (
(82,517,l),
(67,517,l),
(67,0,l),
(82,0,l)
);
},
{
closed = 1;
nodes = (
(10,725,l),
(-7,725,l),
(66,604,l),
(82,604,l)
);
}
);
width = 125;
}
);
note = igrave;
unicode = 236;
},
{
glyphname = icircumflex;
kernLeft = b;
layers = (
{
hints = (
{
horizontal = 1;
place = (0, 21);
target = up;
type = BottomGhost;
},
{
horizontal = 1;
place = (517, -20);
target = down;
type = TopGhost;
},
{
horizontal = 1;
place = (696, 12);
place = (696, 12);
type = Stem;
},
{
place = (56, 15);
place = (56, 15);
type = Stem;
}
);
layerId = m01;
shapes = (
{
closed = 1;
nodes = (
(71,517,l),
(56,517,l),
(56,0,l),
(71,0,l)
);
},
{
closed = 1;
nodes = (
(71,708,l),
(55,708,l),
(-27,604,l),
(-10,604,l),
(63,696,l),
(136,604,l),
(153,604,l)
);
}
);
width = 125;
}
);
note = icircumflex;
unicode = 238;
},
{
glyphname = idieresis;
kernLeft = b;
layers = (
{
hints = (
{
horizontal = 1;
place = (0, 21);
target = up;
type = BottomGhost;
},
{
horizontal = 1;
place = (517, -20);
target = down;
type = TopGhost;
},
{
horizontal = 1;
place = (651, 54);
place = (651, 54);
type = Stem;
},
{
place = (-12, 15);
place = (-12, 15);
type = Stem;
},
{
place = (41, 15);
place = (41, 15);
type = Stem;
},
{
place = (94, 15);
place = (94, 15);
type = Stem;
}
);
layerId = m01;
shapes = (
{
closed = 1;
nodes = (
(3,705,l),
(-12,705,l),
(-12,651,l),
(3,651,l)
);
},
{
closed = 1;
nodes = (
(109,705,l),
(94,705,l),
(94,651,l),
(109,651,l)
);
},
{
closed = 1;
nodes = (
(56,517,l),
(41,517,l),
(41,0,l),
(56,0,l)
);
}
);
width = 125;
}
);
note = idieresis;
unicode = 239;
},
{
glyphname = ntilde;
kernLeft = m;
kernRight = h;
layers = (
{
hints = (
{
horizontal = 1;
place = (0, 21);
target = up;
type = BottomGhost;
},
{
horizontal = 1;
place = (517, -20);
target = down;
type = TopGhost;
},
{
horizontal = 1;
place = (612, 14);
place = (612, 14);
type = Stem;
},
{
horizontal = 1;
place = (672, 14);
place = (672, 14);
type = Stem;
},
{
place = (55, 15);
place = (55, 15);
type = Stem;
},
{
place = (106, 14);
place = (106, 14);
type = Stem;
},
{
place = (356, 14);
place = (356, 14);
type = Stem;
},
{
place = (412, 15);
place = (412, 15);
type = Stem;
},
{
horizontal = 1;
place = (509, 14);
place = (509, 14);
type = Stem;
}
);
layerId = m01;
shapes = (
{
closed = 1;
nodes = (
(70,517,l),
(55,517,l),
(55,0,l),
(70,0,l),
(70,357,ls),
(70,429,o),
(144,509,o),
(261,509,cs),
(355,509,o),
(412,460,o),
(412,369,cs),
(412,0,l),
(427,0,l),
(427,370,ls),
(427,454,o),
(377,523,o),
(262,523,cs),
(156,523,o),
(98,468,o),
(72,419,c),
(70,419,l)
);
},
{
closed = 1;
nodes = (
(133,686,o),
(108,659,o),
(106,611,c),
(120,611,l),
(123,655,o),
(141,672,o),
(167,672,cs),
(226,672,o),
(244,612,o),
(308,612,cs),
(343,612,o),
(368,637,o),
(370,687,c),
(356,687,l),
(353,643,o),
(335,626,o),
(309,626,cs),
(250,626,o),
(234,686,o),
(168,686,cs)
);
}
);
width = 479;
}
);
note = ntilde;
unicode = 241;
},
{
glyphname = oacute;
kernLeft = c;
kernRight = o;
layers = (
{
hints = (
{
horizontal = 1;
place = (-8, 14);
place = (-8, 14);
type = Stem;
},
{
horizontal = 1;
place = (510, 14);
place = (510, 14);
type = Stem;
},
{
place = (26, 15);
place = (26, 15);
type = Stem;
},
{
place = (487, 15);
place = (487, 15);
type = Stem;
}
);
layerId = m01;
shapes = (
{
closed = 1;
nodes = (
(413,-8,o),
(502,117,o),
(502,260,cs),
(502,403,o),
(413,524,o),
(264,524,cs),
(116,524,o),
(26,402,o),
(26,259,cs),
(26,116,o),
(116,-8,o),
(264,-8,cs)
);
},
{
closed = 1;
nodes = (
(145,6,o),
(41,99,o),
(41,259,cs),
(41,419,o),
(145,510,o),
(264,510,cs),
(383,510,o),
(487,420,o),
(487,260,cs),
(487,100,o),
(383,6,o),
(264,6,cs)
);
},
{
closed = 1;
nodes = (
(243,604,l),
(259,604,l),
(324,725,l),
(307,725,l)
);
}
);
width = 528;
}
);
note = oacute;
unicode = 243;
},
{
glyphname = ograve;
kernLeft = c;
kernRight = o;
layers = (
{
hints = (
{
horizontal = 1;
place = (-8, 14);
place = (-8, 14);
type = Stem;
},
{
horizontal = 1;
place = (510, 14);
place = (510, 14);
type = Stem;
},
{
place = (26, 15);
place = (26, 15);
type = Stem;
},
{
place = (487, 15);
place = (487, 15);
type = Stem;
}
);
layerId = m01;
shapes = (
{
closed = 1;
nodes = (
(413,-8,o),
(502,117,o),
(502,260,cs),
(502,403,o),
(413,524,o),
(264,524,cs),
(116,524,o),
(26,402,o),
(26,259,cs),
(26,116,o),
(116,-8,o),
(264,-8,cs)
);
},
{
closed = 1;
nodes = (
(145,6,o),
(41,99,o),
(41,259,cs),
(41,419,o),
(145,510,o),
(264,510,cs),
(383,510,o),
(487,420,o),
(487,260,cs),
(487,100,o),
(383,6,o),
(264,6,cs)
);
},
{
closed = 1;
nodes = (
(198,725,l),
(181,725,l),
(249,604,l),
(265,604,l)
);
}
);
width = 528;
}
);
note = ograve;
unicode = 242;
},
{
glyphname = ocircumflex;
kernLeft = c;
kernRight = o;
layers = (
{
hints = (
{
horizontal = 1;
place = (-8, 14);
place = (-8, 14);
type = Stem;
},
{
horizontal = 1;
place = (510, 14);
place = (510, 14);
type = Stem;
},
{
horizontal = 1;
place = (696, 12);
place = (696, 12);
type = Stem;
},
{
place = (26, 15);
place = (26, 15);
type = Stem;
},
{
place = (487, 15);
place = (487, 15);
type = Stem;
}
);
layerId = m01;
shapes = (
{
closed = 1;
nodes = (
(413,-8,o),
(502,117,o),
(502,260,cs),
(502,403,o),
(413,524,o),
(264,524,cs),
(116,524,o),
(26,402,o),
(26,259,cs),
(26,116,o),
(116,-8,o),
(264,-8,cs)
);
},
{
closed = 1;
nodes = (
(145,6,o),
(41,99,o),
(41,259,cs),
(41,419,o),
(145,510,o),
(264,510,cs),
(383,510,o),
(487,420,o),
(487,260,cs),
(487,100,o),
(383,6,o),
(264,6,cs)
);
},
{
closed = 1;
nodes = (
(274,708,l),
(258,708,l),
(164,604,l),
(181,604,l),
(266,696,l),
(351,604,l),
(368,604,l)
);
}
);
width = 528;
}
);
note = ocircumflex;
unicode = 244;
},
{
glyphname = odieresis;
kernLeft = c;
kernRight = o;
layers = (
{
hints = (
{
horizontal = 1;
place = (-8, 14);
place = (-8, 14);
type = Stem;
},
{
horizontal = 1;
place = (510, 14);
place = (510, 14);
type = Stem;
},
{
horizontal = 1;
place = (651, 54);
place = (651, 54);
type = Stem;
},
{
place = (26, 15);
place = (26, 15);
type = Stem;
},
{
place = (184, 15);
place = (184, 15);
type = Stem;
},
{
place = (329, 15);
place = (329, 15);
type = Stem;
},
{
place = (487, 15);
place = (487, 15);
type = Stem;
}
);
layerId = m01;
shapes = (
{
closed = 1;
nodes = (
(413,-8,o),
(502,117,o),
(502,260,cs),
(502,403,o),
(413,524,o),
(264,524,cs),
(116,524,o),
(26,402,o),
(26,259,cs),
(26,116,o),
(116,-8,o),
(264,-8,cs)
);
},
{
closed = 1;
nodes = (
(145,6,o),
(41,99,o),
(41,259,cs),
(41,419,o),
(145,510,o),
(264,510,cs),
(383,510,o),
(487,420,o),
(487,260,cs),
(487,100,o),
(383,6,o),
(264,6,cs)
);
},
{
closed = 1;
nodes = (
(199,705,l),
(184,705,l),
(184,651,l),
(199,651,l)
);
},
{
closed = 1;
nodes = (
(344,705,l),
(329,705,l),
(329,651,l),
(344,651,l)
);
}
);
width = 528;
}
);
note = odieresis;
unicode = 246;
},
{
glyphname = otilde;
kernLeft = c;
kernRight = o;
layers = (
{
hints = (
{
horizontal = 1;
place = (-8, 14);
place = (-8, 14);
type = Stem;
},
{
horizontal = 1;
place = (510, 14);
place = (510, 14);
type = Stem;
},
{
horizontal = 1;
place = (612, 14);
place = (612, 14);
type = Stem;
},
{
horizontal = 1;
place = (672, 14);
place = (672, 14);
type = Stem;
},
{
place = (26, 15);
place = (26, 15);
type = Stem;
},
{
place = (135, 14);
place = (135, 14);
type = Stem;
},
{
place = (385, 14);
place = (385, 14);
type = Stem;
},
{
place = (487, 15);
place = (487, 15);
type = Stem;
}
);
layerId = m01;
shapes = (
{
closed = 1;
nodes = (
(413,-8,o),
(502,117,o),
(502,260,cs),
(502,403,o),
(413,524,o),
(264,524,cs),
(116,524,o),
(26,402,o),
(26,259,cs),
(26,116,o),
(116,-8,o),
(264,-8,cs)
);
},
{
closed = 1;
nodes = (
(145,6,o),
(41,99,o),
(41,259,cs),
(41,419,o),
(145,510,o),
(264,510,cs),
(383,510,o),
(487,420,o),
(487,260,cs),
(487,100,o),
(383,6,o),
(264,6,cs)
);
},
{
closed = 1;
nodes = (
(162,686,o),
(137,659,o),
(135,611,c),
(149,611,l),
(152,655,o),
(170,672,o),
(196,672,cs),
(255,672,o),
(273,612,o),
(337,612,cs),
(372,612,o),
(397,637,o),
(399,687,c),
(385,687,l),
(382,643,o),
(364,626,o),
(338,626,cs),
(279,626,o),
(263,686,o),
(197,686,cs)
);
}
);
width = 528;
}
);
note = otilde;
unicode = 245;
},
{
glyphname = uacute;
kernLeft = u;
kernRight = u;
layers = (
{
hints = (
{
horizontal = 1;
place = (0, 21);
target = up;
type = BottomGhost;
},
{
horizontal = 1;
place = (517, -20);
target = down;
type = TopGhost;
},
{
place = (52, 15);
place = (52, 15);
type = Stem;
},
{
place = (403, 15);
place = (403, 15);
type = Stem;
},
{
horizontal = 1;
place = (-7, 14);
place = (-7, 14);
type = Stem;
}
);
layerId = m01;
shapes = (
{
closed = 1;
nodes = (
(403,0,l),
(418,0,l),
(418,517,l),
(403,517,l),
(403,159,ls),
(403,87,o),
(329,7,o),
(215,7,cs),
(123,7,o),
(67,56,o),
(67,147,cs),
(67,517,l),
(52,517,l),
(52,146,ls),
(52,62,o),
(101,-7,o),
(214,-7,cs),
(316,-7,o),
(377,47,o),
(401,97,c),
(403,97,l)
);
},
{
closed = 1;
nodes = (
(219,604,l),
(235,604,l),
(300,725,l),
(283,725,l)
);
}
);
width = 473;
}
);
note = uacute;
unicode = 250;
},
{
glyphname = ugrave;
kernLeft = u;
kernRight = u;
layers = (
{
hints = (
{
horizontal = 1;
place = (0, 21);
target = up;
type = BottomGhost;
},
{
horizontal = 1;
place = (517, -20);
target = down;
type = TopGhost;
},
{
place = (52, 15);
place = (52, 15);
type = Stem;
},
{
place = (403, 15);
place = (403, 15);
type = Stem;
},
{
horizontal = 1;
place = (-7, 14);
place = (-7, 14);
type = Stem;
}
);
layerId = m01;
shapes = (
{
closed = 1;
nodes = (
(403,0,l),
(418,0,l),
(418,517,l),
(403,517,l),
(403,159,ls),
(403,87,o),
(329,7,o),
(215,7,cs),
(123,7,o),
(67,56,o),
(67,147,cs),
(67,517,l),
(52,517,l),
(52,146,ls),
(52,62,o),
(101,-7,o),
(214,-7,cs),
(316,-7,o),
(377,47,o),
(401,97,c),
(403,97,l)
);
},
{
closed = 1;
nodes = (
(178,725,l),
(161,725,l),
(229,604,l),
(245,604,l)
);
}
);
width = 473;
}
);
note = ugrave;
unicode = 249;
},
{
glyphname = ucircumflex;
kernLeft = u;
kernRight = u;
layers = (
{
hints = (
{
horizontal = 1;
place = (0, 21);
target = up;
type = BottomGhost;
},
{
horizontal = 1;
place = (517, -20);
target = down;
type = TopGhost;
},
{
horizontal = 1;
place = (696, 12);
place = (696, 12);
type = Stem;
},
{
place = (52, 15);
place = (52, 15);
type = Stem;
},
{
place = (403, 15);
place = (403, 15);
type = Stem;
},
{
horizontal = 1;
place = (-7, 14);
place = (-7, 14);
type = Stem;
}
);
layerId = m01;
shapes = (
{
closed = 1;
nodes = (
(403,0,l),
(418,0,l),
(418,517,l),
(403,517,l),
(403,159,ls),
(403,87,o),
(329,7,o),
(215,7,cs),
(123,7,o),
(67,56,o),
(67,147,cs),
(67,517,l),
(52,517,l),
(52,146,ls),
(52,62,o),
(101,-7,o),
(214,-7,cs),
(316,-7,o),
(377,47,o),
(401,97,c),
(403,97,l)
);
},
{
closed = 1;
nodes = (
(244,708,l),
(228,708,l),
(134,604,l),
(151,604,l),
(236,696,l),
(321,604,l),
(338,604,l)
);
}
);
width = 473;
}
);
note = ucircumflex;
unicode = 251;
},
{
glyphname = udieresis;
kernLeft = u;
kernRight = u;
layers = (
{
hints = (
{
horizontal = 1;
place = (0, 21);
target = up;
type = BottomGhost;
},
{
horizontal = 1;
place = (517, -20);
target = down;
type = TopGhost;
},
{
horizontal = 1;
place = (651, 54);
place = (651, 54);
type = Stem;
},
{
place = (52, 15);
place = (52, 15);
type = Stem;
},
{
place = (152, 15);
place = (152, 15);
type = Stem;
},
{
place = (297, 15);
place = (297, 15);
type = Stem;
},
{
place = (403, 15);
place = (403, 15);
type = Stem;
},
{
horizontal = 1;
place = (-7, 14);
place = (-7, 14);
type = Stem;
}
);
layerId = m01;
shapes = (
{
closed = 1;
nodes = (
(403,0,l),
(418,0,l),
(418,517,l),
(403,517,l),
(403,159,ls),
(403,87,o),
(329,7,o),
(215,7,cs),
(123,7,o),
(67,56,o),
(67,147,cs),
(67,517,l),
(52,517,l),
(52,146,ls),
(52,62,o),
(101,-7,o),
(214,-7,cs),
(316,-7,o),
(377,47,o),
(401,97,c),
(403,97,l)
);
},
{
closed = 1;
nodes = (
(167,705,l),
(152,705,l),
(152,651,l),
(167,651,l)
);
},
{
closed = 1;
nodes = (
(312,705,l),
(297,705,l),
(297,651,l),
(312,651,l)
);
}
);
width = 473;
}
);
note = udieresis;
unicode = 252;
},
{
glyphname = dagger;
layers = (
{
hints = (
{
horizontal = 1;
place = (485, 15);
place = (485, 15);
type = Stem;
},
{
horizontal = 1;
place = (715, -20);
target = down;
type = TopGhost;
},
{
place = (254, 15);
place = (254, 15);
type = Stem;
}
);
layerId = m01;
shapes = (
{
closed = 1;
nodes = (
(34,485,l),
(254,485,l),
(254,-104,l),
(269,-104,l),
(269,485,l),
(488,485,l),
(488,500,l),
(269,500,l),
(269,715,l),
(254,715,l),
(254,500,l),
(34,500,l)
);
}
);
width = 522;
}
);
note = dagger;
unicode = 8224;
},
{
glyphname = degree;
layers = (
{
hints = (
{
horizontal = 1;
place = (462, 14);
place = (462, 14);
type = Stem;
},
{
horizontal = 1;
place = (680, 14);
place = (680, 14);
type = Stem;
},
{
place = (34, 15);
place = (34, 15);
type = Stem;
},
{
place = (252, 15);
place = (252, 15);
type = Stem;
}
);
layerId = m01;
shapes = (
{
closed = 1;
nodes = (
(218,462,o),
(267,513,o),
(267,578,cs),
(267,643,o),
(218,694,o),
(151,694,cs),
(85,694,o),
(34,643,o),
(34,578,cs),
(34,513,o),
(85,462,o),
(151,462,cs)
);
},
{
closed = 1;
nodes = (
(93,476,o),
(49,521,o),
(49,578,cs),
(49,636,o),
(93,680,o),
(151,680,cs),
(210,680,o),
(252,635,o),
(252,578,cs),
(252,520,o),
(210,476,o),
(151,476,cs)
);
}
);
width = 301;
}
);
note = degree;
unicode = 176;
},
{
glyphname = cent;
layers = (
{
hints = (
{
horizontal = 1;
place = (-8, 14);
place = (-8, 14);
type = Stem;
},
{
horizontal = 1;
place = (510, 14);
place = (510, 14);
type = Stem;
},
{
place = (26, 15);
place = (26, 15);
type = Stem;
},
{
place = (262, 14);
place = (262, 14);
type = Stem;
}
);
layerId = m01;
shapes = (
{
closed = 1;
nodes = (
(470,174,l),
(456,71,o),
(388,10,o),
(276,6,c),
(276,510,l),
(365,506,o),
(445,462,o),
(468,361,c),
(483,361,l),
(462,459,o),
(385,520,o),
(276,524,c),
(276,591,l),
(262,591,l),
(262,524,l),
(115,523,o),
(26,402,o),
(26,260,cs),
(26,116,o),
(116,-7,o),
(262,-8,c),
(262,-85,l),
(276,-85,l),
(276,-8,l),
(406,-3,o),
(472,74,o),
(485,174,c)
);
},
{
closed = 1;
nodes = (
(41,419,o),
(144,509,o),
(262,510,c),
(262,6,l),
(143,7,o),
(41,103,o),
(41,260,cs)
);
}
);
width = 507;
}
);
note = cent;
unicode = 162;
},
{
glyphname = sterling;
layers = (
{
hints = (
{
horizontal = 1;
place = (-6, 14);
place = (-6, 14);
type = Stem;
},
{
horizontal = 1;
place = (50, 14);
place = (50, 14);
type = Stem;
},
{
horizontal = 1;
place = (328, 14);
place = (328, 14);
type = Stem;
},
{
horizontal = 1;
place = (680, 14);
place = (680, 14);
type = Stem;
},
{
place = (68, 15);
place = (68, 15);
type = Stem;
},
{
place = (143, 15);
place = (143, 15);
type = Stem;
},
{
place = (475, 15);
place = (475, 15);
type = Stem;
},
{
horizontal = 1;
place = (-1, 21);
target = up;
type = BottomGhost;
}
);
layerId = m01;
shapes = (
{
closed = 1;
nodes = (
(31,328,l),
(119,328,l),
(133,292,o),
(143,255,o),
(143,216,cs),
(143,130,o),
(100,66,o),
(33,9,c),
(43,-1,l),
(87,39,o),
(117,50,o),
(162,50,cs),
(203,50,o),
(232,34,o),
(260,22,cs),
(291,8,o),
(325,-6,o),
(371,-6,cs),
(427,-6,o),
(473,19,o),
(511,60,c),
(501,70,l),
(465,31,o),
(422,8,o),
(371,8,cs),
(327,8,o),
(294,21,o),
(266,34,cs),
(237,47,o),
(204,64,o),
(162,64,cs),
(136,64,o),
(114,60,o),
(93,49,c),
(135,97,o),
(158,144,o),
(158,216,cs),
(158,254,o),
(148,292,o),
(135,328,c),
(299,328,l),
(299,342,l),
(129,342,l),
(101,410,o),
(83,455,o),
(83,508,cs),
(83,611,o),
(155,680,o),
(279,680,cs),
(382,680,o),
(469,624,o),
(475,483,c),
(490,483,l),
(485,631,o),
(391,694,o),
(279,694,cs),
(149,694,o),
(68,620,o),
(68,508,cs),
(68,453,o),
(86,407,o),
(114,342,c),
(31,342,l)
);
}
);
width = 524;
}
);
note = sterling;
unicode = 163;
},
{
glyphname = section;
layers = (
{
hints = (
{
horizontal = 1;
place = (-172, 14);
place = (-172, 14);
type = Stem;
},
{
horizontal = 1;
place = (674, 14);
place = (674, 14);
type = Stem;
},
{
place = (28, 15);
place = (28, 15);
type = Stem;
},
{
place = (98, 15);
place = (98, 15);
type = Stem;
},
{
place = (430, 15);
place = (430, 15);
type = Stem;
},
{
place = (500, 15);
place = (500, 15);
type = Stem;
},
{
place = (77, 15);
place = (77, 15);
type = Stem;
}
);
layerId = m01;
shapes = (
{
closed = 1;
nodes = (
(515,257,o),
(467,295,o),
(335,374,cs),
(200,455,o),
(113,488,o),
(113,567,cs),
(113,638,o),
(170,674,o),
(266,674,cs),
(362,674,o),
(420,623,o),
(431,531,c),
(446,531,l),
(436,634,o),
(369,688,o),
(266,688,cs),
(157,688,o),
(98,641,o),
(98,567,cs),
(98,525,o),
(117,497,o),
(151,470,c),
(73,448,o),
(28,405,o),
(28,337,cs),
(28,253,o),
(99,214,o),
(235,136,cs),
(396,43,o),
(430,21,o),
(430,-49,cs),
(430,-116,o),
(366,-158,o),
(279,-158,cs),
(181,-158,o),
(103,-112,o),
(92,-3,c),
(77,-3,l),
(88,-118,o),
(168,-172,o),
(279,-172,cs),
(374,-172,o),
(445,-126,o),
(445,-49,cs),
(445,-10,o),
(436,16,o),
(398,48,c),
(461,68,o),
(515,107,o),
(515,183,cs)
);
},
{
closed = 1;
nodes = (
(448,290,o),
(500,253,o),
(500,183,cs),
(500,112,o),
(445,77,o),
(386,58,c),
(360,78,o),
(323,102,o),
(243,148,cs),
(88,237,o),
(43,269,o),
(43,337,cs),
(43,393,o),
(78,437,o),
(164,460,c),
(200,435,o),
(248,410,o),
(328,362,cs)
);
}
);
width = 543;
}
);
note = section;
unicode = 167;
},
{
glyphname = bullet;
layers = (
{
hints = (
{
horizontal = 1;
place = (258, 135);
place = (258, 135);
type = Stem;
},
{
place = (34, 135);
place = (34, 135);
type = Stem;
}
);
layerId = m01;
shapes = (
{
closed = 1;
nodes = (
(139,258,o),
(169,286,o),
(169,325,cs),
(169,365,o),
(139,393,o),
(102,393,cs),
(64,393,o),
(34,364,o),
(34,325,cs),
(34,287,o),
(64,258,o),
(102,258,cs)
);
}
);
width = 203;
}
);
note = bullet;
unicode = 8226;
},
{
glyphname = paragraph;
layers = (
{
hints = (
{
horizontal = 1;
place = (0, 21);
target = up;
type = BottomGhost;
},
{
horizontal = 1;
place = (701, 14);
place = (701, 14);
type = Stem;
},
{
place = (254, 15);
place = (254, 15);
type = Stem;
},
{
place = (346, 15);
place = (346, 15);
type = Stem;
}
);
layerId = m01;
shapes = (
{
closed = 1;
nodes = (
(254,385,l),
(254,0,l),
(269,0,l),
(269,701,l),
(346,701,l),
(346,0,l),
(361,0,l),
(361,715,l),
(214,715,ls),
(157,715,o),
(111,701,o),
(78,672,cs),
(48,645,o),
(29,603,o),
(29,552,cs),
(29,444,o),
(99,385,o),
(223,385,cs)
);
}
);
width = 428;
}
);
note = paragraph;
unicode = 182;
},
{
glyphname = germandbls;
kernLeft = germandbls;
kernRight = germandbls;
layers = (
{
hints = (
{
horizontal = 1;
place = (-5, 14);
place = (-5, 14);
type = Stem;
},
{
horizontal = 1;
place = (402, 14);
place = (402, 14);
type = Stem;
},
{
horizontal = 1;
place = (709, 14);
place = (709, 14);
type = Stem;
},
{
place = (55, 15);
place = (55, 15);
type = Stem;
},
{
place = (384, 15);
place = (384, 15);
type = Stem;
},
{
place = (434, 15);
place = (434, 15);
type = Stem;
},
{
horizontal = 1;
place = (0, 21);
target = up;
type = BottomGhost;
}
);
layerId = m01;
shapes = (
{
closed = 1;
nodes = (
(189,402,l),
(247,402,ls),
(352,402,o),
(434,324,o),
(434,212,cs),
(434,92,o),
(363,9,o),
(235,9,cs),
(221,9,o),
(199,10,o),
(182,14,cs),
(181,14,l),
(181,0,l),
(198,-4,o),
(219,-5,o),
(235,-5,cs),
(373,-5,o),
(449,84,o),
(449,212,cs),
(449,319,o),
(379,397,o),
(283,412,c),
(353,430,o),
(399,486,o),
(399,559,cs),
(399,656,o),
(333,723,o),
(227,723,cs),
(99,723,o),
(55,645,o),
(55,536,cs),
(55,0,l),
(70,0,l),
(70,534,ls),
(70,639,o),
(111,709,o),
(227,709,cs),
(326,709,o),
(384,648,o),
(384,559,cs),
(384,475,o),
(317,416,o),
(230,416,cs),
(189,416,l)
);
}
);
width = 475;
}
);
note = germandbls;
unicode = 223;
},
{
glyphname = registered;
kernLeft = registered;
layers = (
{
hints = (
{
horizontal = 1;
place = (249, 14);
place = (249, 14);
type = Stem;
},
{
horizontal = 1;
place = (477, 13);
place = (477, 13);
type = Stem;
},
{
horizontal = 1;
place = (604, 13);
place = (604, 13);
type = Stem;
},
{
horizontal = 1;
place = (709, 14);
place = (709, 14);
type = Stem;
},
{
place = (26, 15);
place = (26, 15);
type = Stem;
},
{
place = (171, 14);
place = (171, 14);
type = Stem;
},
{
place = (340, 14);
place = (340, 14);
type = Stem;
},
{
place = (477, 15);
place = (477, 15);
type = Stem;
},
{
place = (344, 14);
place = (344, 14);
type = Stem;
}
);
layerId = m01;
shapes = (
{
closed = 1;
nodes = (
(387,249,o),
(492,349,o),
(492,486,cs),
(492,622,o),
(387,723,o),
(259,723,cs),
(131,723,o),
(26,622,o),
(26,486,cs),
(26,349,o),
(131,249,o),
(259,249,cs)
);
},
{
closed = 1;
nodes = (
(139,263,o),
(41,357,o),
(41,486,cs),
(41,614,o),
(139,709,o),
(259,709,cs),
(379,709,o),
(477,614,o),
(477,486,cs),
(477,357,o),
(379,263,o),
(259,263,cs)
);
},
{
closed = 1;
nodes = (
(185,477,l),
(265,477,ls),
(304,477,o),
(331,470,o),
(334,422,cs),
(337,376,o),
(340,365,o),
(344,361,c),
(358,361,l),
(358,364,l),
(353,369,o),
(350,375,o),
(347,423,cs),
(345,454,o),
(337,475,o),
(305,484,c),
(339,493,o),
(354,515,o),
(354,547,cs),
(354,593,o),
(321,617,o),
(272,617,cs),
(171,617,l),
(171,361,l),
(185,361,l)
);
},
{
closed = 1;
nodes = (
(185,604,l),
(271,604,ls),
(313,604,o),
(340,585,o),
(340,547,cs),
(340,510,o),
(317,490,o),
(269,490,cs),
(185,490,l)
);
}
);
width = 518;
}
);
note = registered;
unicode = 174;
},
{
glyphname = copyright;
kernLeft = copyright;
kernRight = copyright;
layers = (
{
hints = (
{
horizontal = 1;
place = (-11, 14);
place = (-11, 14);
type = Stem;
},
{
horizontal = 1;
place = (127, 14);
place = (127, 14);
type = Stem;
},
{
horizontal = 1;
place = (574, 14);
place = (574, 14);
type = Stem;
},
{
horizontal = 1;
place = (708, 14);
place = (708, 14);
type = Stem;
},
{
place = (40, 14);
place = (40, 14);
type = Stem;
},
{
place = (203, 15);
place = (203, 15);
type = Stem;
},
{
place = (569, 15);
place = (569, 15);
type = Stem;
},
{
place = (746, 14);
place = (746, 14);
type = Stem;
}
);
layerId = m01;
shapes = (
{
closed = 1;
nodes = (
(603,-11,o),
(760,149,o),
(760,355,cs),
(760,561,o),
(603,722,o),
(400,722,cs),
(197,722,o),
(40,561,o),
(40,355,cs),
(40,149,o),
(197,-11,o),
(400,-11,cs)
);
},
{
closed = 1;
nodes = (
(205,3,o),
(54,157,o),
(54,355,cs),
(54,554,o),
(205,708,o),
(400,708,cs),
(595,708,o),
(746,554,o),
(746,355,cs),
(746,157,o),
(595,3,o),
(400,3,cs)
);
},
{
closed = 1;
nodes = (
(582,450,l),
(571,521,o),
(514,588,o),
(409,588,cs),
(280,588,o),
(203,489,o),
(203,358,cs),
(203,215,o),
(293,127,o),
(407,127,cs),
(463,127,o),
(505,145,o),
(534,173,cs),
(564,201,o),
(580,240,o),
(584,281,c),
(569,281,l),
(560,202,o),
(507,141,o),
(407,141,cs),
(298,141,o),
(218,226,o),
(218,358,cs),
(218,485,o),
(288,574,o),
(409,574,cs),
(504,574,o),
(556,513,o),
(567,450,c)
);
}
);
width = 800;
}
);
note = copyright;
unicode = 169;
},
{
glyphname = trademark;
kernLeft = trademark;
layers = (
{
hints = (
{
horizontal = 1;
place = (429, 18);
place = (429, 18);
type = Stem;
},
{
horizontal = 1;
place = (701, 14);
place = (701, 14);
type = Stem;
},
{
place = (137, 15);
place = (137, 15);
type = Stem;
},
{
place = (304, 14);
place = (304, 14);
type = Stem;
},
{
place = (558, 14);
place = (558, 14);
type = Stem;
}
);
layerId = m01;
shapes = (
{
closed = 1;
nodes = (
(439,447,l),
(320,715,l),
(304,715,l),
(304,429,l),
(318,429,l),
(318,683,l),
(318,683,o),
(331,654,o),
(339,636,cs),
(432,429,l),
(446,429,l),
(537,636,l),
(558,682,l),
(558,429,l),
(572,429,l),
(572,715,l),
(556,715,l)
);
},
{
closed = 1;
nodes = (
(152,429,l),
(152,701,l),
(257,701,l),
(257,715,l),
(32,715,l),
(32,701,l),
(137,701,l),
(137,429,l)
);
}
);
width = 609;
}
);
note = trademark;
unicode = 8482;
},
{
glyphname = acute;
layers = (
{
hints = (
{
horizontal = 1;
place = (604, 121);
place = (604, 121);
type = Stem;
},
{
place = (210, 81);
place = (210, 81);
type = Stem;
}
);
layerId = m01;
shapes = (
{
closed = 1;
nodes = (
(210,604,l),
(226,604,l),
(291,725,l),
(274,725,l)
);
}
);
width = 442;
}
);
note = acute;
unicode = 180;
},
{
glyphname = dieresis;
layers = (
{
hints = (
{
horizontal = 1;
place = (651, 54);
place = (651, 54);
type = Stem;
},
{
place = (129, 15);
place = (129, 15);
type = Stem;
},
{
place = (274, 15);
place = (274, 15);
type = Stem;
}
);
layerId = m01;
shapes = (
{
closed = 1;
nodes = (
(144,705,l),
(129,705,l),
(129,651,l),
(144,651,l)
);
},
{
closed = 1;
nodes = (
(289,705,l),
(274,705,l),
(274,651,l),
(289,651,l)
);
}
);
width = 418;
}
);
note = dieresis;
unicode = 168;
},
{
glyphname = notequal;
layers = (
{
hints = (
{
horizontal = 1;
place = (239, 14);
place = (239, 14);
type = Stem;
},
{
horizontal = 1;
place = (374, 14);
place = (374, 14);
type = Stem;
},
{
place = (53, 426);
place = (53, 426);
type = Stem;
}
);
layerId = m01;
shapes = (
{
closed = 1;
nodes = (
(53,374,l),
(287,374,l),
(226,253,l),
(53,253,l),
(53,239,l),
(219,239,l),
(155,111,l),
(170,111,l),
(234,239,l),
(479,239,l),
(479,253,l),
(241,253,l),
(302,374,l),
(479,374,l),
(479,388,l),
(309,388,l),
(367,502,l),
(352,502,l),
(294,388,l),
(53,388,l)
);
}
);
width = 532;
}
);
note = notequal;
unicode = 8800;
},
{
glyphname = AE;
kernLeft = AE;
kernRight = E;
layers = (
{
hints = (
{
horizontal = 1;
place = (0, 14);
place = (0, 14);
type = Stem;
},
{
horizontal = 1;
place = (256, 14);
place = (256, 14);
type = Stem;
},
{
horizontal = 1;
place = (364, 14);
place = (364, 14);
type = Stem;
},
{
horizontal = 1;
place = (701, 14);
place = (701, 14);
type = Stem;
},
{
place = (429, 15);
place = (429, 15);
type = Stem;
}
);
layerId = m01;
shapes = (
{
closed = 1;
nodes = (
(444,701,l),
(841,701,l),
(841,715,l),
(289,715,l),
(14,0,l),
(30,0,l),
(129,256,l),
(429,256,l),
(429,0,l),
(851,0,l),
(851,14,l),
(444,14,l),
(444,364,l),
(806,364,l),
(806,378,l),
(444,378,l)
);
},
{
closed = 1;
nodes = (
(300,701,l),
(429,701,l),
(429,270,l),
(134,270,l)
);
}
);
width = 889;
}
);
note = AE;
unicode = 198;
},
{
glyphname = Oslash;
kernLeft = C;
kernRight = O;
layers = (
{
hints = (
{
horizontal = 1;
place = (-7, 14);
place = (-7, 14);
type = Stem;
},
{
horizontal = 1;
place = (709, 14);
place = (709, 14);
type = Stem;
},
{
place = (38, 15);
place = (38, 15);
type = Stem;
},
{
place = (692, 15);
place = (692, 15);
type = Stem;
}
);
layerId = m01;
shapes = (
{
closed = 1;
nodes = (
(50,-7,l),
(138,90,l),
(197,29,o),
(278,-7,o),
(372,-7,cs),
(566,-7,o),
(707,147,o),
(707,358,cs),
(707,462,o),
(673,552,o),
(615,617,c),
(702,713,l),
(692,723,l),
(605,627,l),
(546,687,o),
(465,723,o),
(372,723,cs),
(178,723,o),
(38,570,o),
(38,358,cs),
(38,254,o),
(71,165,o),
(128,100,c),
(40,3,l)
);
},
{
closed = 1;
nodes = (
(280,7,o),
(203,42,o),
(148,101,c),
(605,605,l),
(660,542,o),
(692,456,o),
(692,358,cs),
(692,161,o),
(561,7,o),
(372,7,cs)
);
},
{
closed = 1;
nodes = (
(53,557,o),
(182,709,o),
(372,709,cs),
(462,709,o),
(539,674,o),
(595,616,c),
(138,111,l),
(84,174,o),
(53,260,o),
(53,358,cs)
);
}
);
width = 749;
}
);
note = Oslash;
unicode = 216;
},
{
glyphname = infinity;
layers = (
{
hints = (
{
horizontal = 1;
place = (139, 14);
place = (139, 14);
type = Stem;
},
{
horizontal = 1;
place = (454, 14);
place = (454, 14);
type = Stem;
},
{
place = (35, 15);
place = (35, 15);
type = Stem;
},
{
place = (650, 15);
place = (650, 15);
type = Stem;
}
);
layerId = m01;
shapes = (
{
closed = 1;
nodes = (
(35,229,o),
(75,139,o),
(179,139,cs),
(258,139,o),
(300,188,o),
(355,288,c),
(396,210,o),
(448,139,o),
(526,139,cs),
(627,139,o),
(665,226,o),
(665,304,cs),
(665,386,o),
(626,468,o),
(523,468,cs),
(445,468,o),
(403,407,o),
(356,319,c),
(314,399,o),
(258,468,o),
(177,468,cs),
(74,468,o),
(35,379,o),
(35,304,cs)
);
},
{
closed = 1;
nodes = (
(50,373,o),
(83,454,o),
(177,454,cs),
(250,454,o),
(303,390,o),
(348,303,c),
(294,202,o),
(251,153,o),
(179,153,cs),
(85,153,o),
(50,235,o),
(50,304,cs)
);
},
{
closed = 1;
nodes = (
(616,454,o),
(650,381,o),
(650,304,cs),
(650,235,o),
(617,153,o),
(526,153,cs),
(455,153,o),
(407,218,o),
(363,304,c),
(413,397,o),
(452,454,o),
(523,454,cs)
);
}
);
width = 700;
}
);
note = infinity;
unicode = 8734;
},
{
glyphname = plusminus;
layers = (
{
hints = (
{
horizontal = 1;
place = (0, 14);
place = (0, 14);
type = Stem;
},
{
horizontal = 1;
place = (341, 14);
place = (341, 14);
type = Stem;
},
{
place = (260, 15);
place = (260, 15);
type = Stem;
}
);
layerId = m01;
shapes = (
{
closed = 1;
nodes = (
(53,341,l),
(260,341,l),
(260,144,l),
(275,144,l),
(275,341,l),
(483,341,l),
(483,355,l),
(275,355,l),
(275,548,l),
(260,548,l),
(260,355,l),
(53,355,l)
);
},
{
closed = 1;
nodes = (
(53,0,l),
(483,0,l),
(483,14,l),
(53,14,l)
);
}
);
width = 536;
}
);
note = plusminus;
unicode = 177;
},
{
glyphname = lessequal;
layers = (
{
hints = (
{
horizontal = 1;
place = (0, 14);
place = (0, 14);
type = Stem;
},
{
place = (50, 18);
place = (50, 18);
type = Stem;
}
);
layerId = m01;
shapes = (
{
closed = 1;
nodes = (
(443,155,l),
(68,318,l),
(443,482,l),
(443,497,l),
(50,324,l),
(50,312,l),
(443,140,l)
);
},
{
closed = 1;
nodes = (
(50,0,l),
(443,0,l),
(443,14,l),
(50,14,l)
);
}
);
width = 497;
}
);
note = lessequal;
unicode = 8804;
},
{
glyphname = greaterequal;
layers = (
{
hints = (
{
horizontal = 1;
place = (0, 14);
place = (0, 14);
type = Stem;
},
{
place = (429, 18);
place = (429, 18);
type = Stem;
}
);
layerId = m01;
shapes = (
{
closed = 1;
nodes = (
(54,140,l),
(447,312,l),
(447,324,l),
(54,497,l),
(54,482,l),
(429,318,l),
(54,155,l)
);
},
{
closed = 1;
nodes = (
(447,14,l),
(54,14,l),
(54,0,l),
(447,0,l)
);
}
);
width = 497;
}
);
note = greaterequal;
unicode = 8805;
},
{
glyphname = yen;
layers = (
{
hints = (
{
horizontal = 1;
place = (0, 21);
target = up;
type = BottomGhost;
},
{
horizontal = 1;
place = (206, 14);
place = (206, 14);
type = Stem;
},
{
horizontal = 1;
place = (328, 14);
place = (328, 14);
type = Stem;
},
{
horizontal = 1;
place = (685, -20);
target = down;
type = TopGhost;
},
{
place = (256, 15);
place = (256, 15);
type = Stem;
}
);
layerId = m01;
shapes = (
{
closed = 1;
nodes = (
(474,220,l),
(271,220,l),
(271,328,l),
(474,328,l),
(474,342,l),
(280,342,l),
(518,685,l),
(500,685,l),
(263,342,l),
(28,685,l),
(10,685,l),
(247,342,l),
(54,342,l),
(54,328,l),
(256,328,l),
(256,220,l),
(54,220,l),
(54,206,l),
(256,206,l),
(256,0,l),
(271,0,l),
(271,206,l),
(474,206,l)
);
}
);
width = 528;
}
);
note = yen;
unicode = 165;
},
{
glyphname = mu;
layers = (
{
hints = (
{
horizontal = 1;
place = (-166, 21);
target = up;
type = BottomGhost;
},
{
horizontal = 1;
place = (0, 21);
target = up;
type = BottomGhost;
},
{
horizontal = 1;
place = (517, -20);
target = down;
type = TopGhost;
},
{
place = (55, 15);
place = (55, 15);
type = Stem;
},
{
place = (406, 15);
place = (406, 15);
type = Stem;
},
{
horizontal = 1;
place = (-6, 14);
place = (-6, 14);
type = Stem;
}
);
layerId = m01;
shapes = (
{
closed = 1;
nodes = (
(406,0,l),
(421,0,l),
(421,517,l),
(406,517,l),
(406,160,ls),
(406,88,o),
(332,8,o),
(218,8,cs),
(126,8,o),
(70,57,o),
(70,148,cs),
(70,517,l),
(55,517,l),
(55,-166,l),
(69,-166,l),
(69,77,l),
(90,29,o),
(138,-6,o),
(217,-6,cs),
(319,-6,o),
(380,48,o),
(404,98,c),
(406,98,l)
);
}
);
width = 476;
}
);
note = mu;
unicode = 181;
},
{
glyphname = partialdiff;
layers = (
{
hints = (
{
horizontal = 1;
place = (-8, 14);
place = (-8, 14);
type = Stem;
},
{
horizontal = 1;
place = (439, 14);
place = (439, 14);
type = Stem;
},
{
horizontal = 1;
place = (719, -20);
target = down;
type = TopGhost;
},
{
place = (44, 15);
place = (44, 15);
type = Stem;
},
{
place = (453, 14);
place = (453, 14);
type = Stem;
}
);
layerId = m01;
shapes = (
{
closed = 1;
nodes = (
(134,453,o),
(44,339,o),
(44,198,cs),
(44,80,o),
(122,-8,o),
(235,-8,cs),
(387,-8,o),
(467,137,o),
(467,286,cs),
(467,503,o),
(400,660,o),
(152,719,c),
(152,704,l),
(383,649,o),
(450,502,o),
(453,299,c),
(432,385,o),
(367,453,o),
(264,453,cs)
);
},
{
closed = 1;
nodes = (
(130,6,o),
(59,88,o),
(59,198,cs),
(59,331,o),
(141,439,o),
(264,439,cs),
(384,439,o),
(447,340,o),
(447,242,cs),
(447,170,o),
(394,6,o),
(235,6,cs)
);
}
);
width = 511;
}
);
note = partialdiff;
unicode = 8706;
},
{
glyphname = summation;
layers = (
{
hints = (
{
horizontal = 1;
place = (-100, 14);
place = (-100, 14);
type = Stem;
},
{
horizontal = 1;
place = (701, 14);
place = (701, 14);
type = Stem;
},
{
place = (40, 20);
place = (40, 20);
type = Stem;
},
{
place = (349, 16);
place = (349, 16);
type = Stem;
}
);
layerId = m01;
shapes = (
{
closed = 1;
nodes = (
(543,701,l),
(543,715,l),
(41,715,l),
(41,701,l),
(349,322,l),
(40,-86,l),
(40,-100,l),
(553,-100,l),
(553,-86,l),
(60,-86,l),
(365,317,l),
(365,327,l),
(61,701,l)
);
}
);
width = 591;
}
);
note = summation;
unicode = 8721;
},
{
glyphname = product;
layers = (
{
hints = (
{
horizontal = 1;
place = (701, 14);
place = (701, 14);
type = Stem;
},
{
place = (71, 15);
place = (71, 15);
type = Stem;
},
{
place = (587, 15);
place = (587, 15);
type = Stem;
}
);
layerId = m01;
shapes = (
{
closed = 1;
nodes = (
(602,-100,l),
(602,715,l),
(71,715,l),
(71,-100,l),
(86,-100,l),
(86,701,l),
(587,701,l),
(587,-100,l)
);
}
);
width = 673;
}
);
note = product;
unicode = 8719;
},
{
glyphname = pi;
layers = (
{
hints = (
{
horizontal = 1;
place = (-3, 14);
place = (-3, 14);
type = Stem;
},
{
horizontal = 1;
place = (503, 14);
place = (503, 14);
type = Stem;
},
{
place = (118, 15);
place = (118, 15);
type = Stem;
},
{
place = (436, 15);
place = (436, 15);
type = Stem;
},
{
horizontal = 1;
place = (0, 21);
target = up;
type = BottomGhost;
}
);
layerId = m01;
shapes = (
{
closed = 1;
nodes = (
(559,517,l),
(22,517,l),
(22,503,l),
(118,503,l),
(118,0,l),
(133,0,l),
(133,503,l),
(436,503,l),
(436,70,ls),
(436,19,o),
(459,-3,o),
(503,-3,cs),
(530,-3,o),
(546,3,o),
(557,9,c),
(557,23,l),
(555,23,l),
(545,18,o),
(529,11,o),
(503,11,cs),
(469,11,o),
(451,28,o),
(451,70,cs),
(451,503,l),
(559,503,l)
);
}
);
width = 588;
}
);
note = pi;
unicode = 960;
},
{
glyphname = integral;
layers = (
{
hints = (
{
horizontal = 1;
place = (-162, 21);
target = up;
type = BottomGhost;
},
{
horizontal = 1;
place = (724, 14);
place = (724, 14);
type = Stem;
},
{
place = (143, 14);
place = (143, 14);
type = Stem;
},
{
horizontal = 1;
place = (-173, 14);
place = (-173, 14);
type = Stem;
}
);
layerId = m01;
shapes = (
{
closed = 1;
nodes = (
(-10,-162,l),
(10,-170,o),
(30,-173,o),
(58,-173,cs),
(136,-173,o),
(157,-136,o),
(157,-52,cs),
(157,616,ls),
(157,695,o),
(179,724,o),
(244,724,cs),
(267,724,o),
(287,722,o),
(307,714,c),
(309,714,l),
(309,728,l),
(290,735,o),
(271,738,o),
(244,738,cs),
(172,738,o),
(143,706,o),
(143,618,cs),
(143,-52,ls),
(143,-126,o),
(128,-159,o),
(58,-159,cs),
(30,-159,o),
(11,-156,o),
(-9,-147,c),
(-10,-147,l)
);
}
);
width = 321;
}
);
note = integral;
unicode = 8747;
},
{
glyphname = ordfeminine;
layers = (
{
hints = (
{
horizontal = 1;
place = (232, 14);
place = (232, 14);
type = Stem;
},
{
horizontal = 1;
place = (687, 14);
place = (687, 14);
type = Stem;
},
{
place = (40, 15);
place = (40, 15);
type = Stem;
},
{
place = (65, 15);
place = (65, 15);
type = Stem;
},
{
place = (367, 15);
place = (367, 15);
type = Stem;
},
{
horizontal = 1;
place = (228, 14);
place = (228, 14);
type = Stem;
}
);
layerId = m01;
shapes = (
{
closed = 1;
nodes = (
(431,232,o),
(443,236,o),
(448,240,c),
(448,253,l),
(447,253,l),
(439,249,o),
(431,246,o),
(418,246,cs),
(395,246,o),
(382,258,o),
(382,298,cs),
(382,555,ls),
(382,650,o),
(333,701,o),
(233,701,cs),
(112,701,o),
(69,635,o),
(65,560,c),
(80,560,l),
(87,649,o),
(141,687,o),
(233,687,cs),
(324,687,o),
(367,640,o),
(367,558,cs),
(367,544,ls),
(367,506,o),
(324,496,o),
(217,481,cs),
(122,469,o),
(40,450,o),
(40,351,cs),
(40,276,o),
(99,228,o),
(188,228,cs),
(274,228,o),
(342,269,o),
(367,336,c),
(367,297,ls),
(367,264,o),
(374,232,o),
(418,232,cs)
);
},
{
closed = 1;
nodes = (
(127,242,o),
(55,271,o),
(55,351,cs),
(55,432,o),
(115,455,o),
(222,467,cs),
(320,481,o),
(354,493,o),
(367,509,c),
(367,401,ls),
(367,304,o),
(287,242,o),
(188,242,cs)
);
}
);
width = 458;
}
);
note = ordfeminine;
unicode = 170;
},
{
glyphname = ordmasculine;
layers = (
{
hints = (
{
horizontal = 1;
place = (223, 14);
place = (223, 14);
type = Stem;
},
{
horizontal = 1;
place = (687, 14);
place = (687, 14);
type = Stem;
},
{
place = (36, 15);
place = (36, 15);
type = Stem;
},
{
place = (456, 15);
place = (456, 15);
type = Stem;
}
);
layerId = m01;
shapes = (
{
closed = 1;
nodes = (
(388,223,o),
(471,332,o),
(471,462,cs),
(471,592,o),
(388,701,o),
(254,701,cs),
(120,701,o),
(36,592,o),
(36,462,cs),
(36,332,o),
(120,223,o),
(254,223,cs)
);
},
{
closed = 1;
nodes = (
(128,237,o),
(51,340,o),
(51,462,cs),
(51,584,o),
(128,687,o),
(254,687,cs),
(380,687,o),
(456,584,o),
(456,462,cs),
(456,340,o),
(380,237,o),
(254,237,cs)
);
}
);
width = 507;
}
);
note = ordmasculine;
unicode = 186;
},
{
glyphname = Omega;
layers = (
{
hints = (
{
horizontal = 1;
place = (0, 14);
place = (0, 14);
type = Stem;
},
{
horizontal = 1;
place = (709, 14);
place = (709, 14);
type = Stem;
},
{
place = (40, 15);
place = (40, 15);
type = Stem;
},
{
place = (673, 15);
place = (673, 15);
type = Stem;
}
);
layerId = m01;
shapes = (
{
closed = 1;
nodes = (
(453,14,l),
(583,61,o),
(688,168,o),
(688,375,cs),
(688,573,o),
(562,723,o),
(364,723,cs),
(164,723,o),
(40,573,o),
(40,375,cs),
(40,167,o),
(144,61,o),
(275,14,c),
(52,14,l),
(52,0,l),
(318,0,l),
(318,14,l),
(181,51,o),
(55,152,o),
(55,375,cs),
(55,565,o),
(173,709,o),
(364,709,cs),
(555,709,o),
(673,565,o),
(673,375,cs),
(673,152,o),
(546,49,o),
(410,14,c),
(410,0,l),
(676,0,l),
(676,14,l)
);
}
);
width = 728;
}
);
note = Omega;
unicode = 8486;
},
{
glyphname = ae;
kernLeft = a;
kernRight = e;
layers = (
{
hints = (
{
horizontal = 1;
place = (-10, 14);
place = (-10, 14);
type = Stem;
},
{
horizontal = 1;
place = (264, 14);
place = (264, 14);
type = Stem;
},
{
horizontal = 1;
place = (510, 14);
place = (510, 14);
type = Stem;
},
{
place = (24, 15);
place = (24, 15);
type = Stem;
},
{
place = (395, 15);
place = (395, 15);
type = Stem;
},
{
place = (806, 15);
place = (806, 15);
type = Stem;
},
{
place = (52, 15);
place = (52, 15);
type = Stem;
},
{
horizontal = 1;
place = (-9, 14);
place = (-9, 14);
type = Stem;
}
);
layerId = m01;
shapes = (
{
closed = 1;
nodes = (
(821,264,l),
(817,361,o),
(791,439,o),
(737,483,cs),
(705,509,o),
(664,524,o),
(612,524,cs),
(503,524,o),
(436,456,o),
(409,365,c),
(408,466,o),
(353,524,o),
(240,524,cs),
(105,524,o),
(57,451,o),
(52,367,c),
(67,367,l),
(75,467,o),
(135,510,o),
(240,510,cs),
(347,510,o),
(395,455,o),
(395,367,cs),
(395,307,o),
(353,292,o),
(222,275,cs),
(111,261,o),
(24,233,o),
(24,128,cs),
(24,45,o),
(90,-9,o),
(190,-9,cs),
(283,-9,o),
(390,32,o),
(406,166,c),
(431,63,o),
(498,-10,o),
(617,-10,cs),
(737,-10,o),
(793,64,o),
(812,149,c),
(797,149,l),
(772,52,o),
(711,4,o),
(617,4,cs),
(477,4,o),
(411,112,o),
(410,264,c)
);
},
{
closed = 1;
nodes = (
(395,203,ls),
(395,69,o),
(306,5,o),
(190,5,cs),
(121,5,o),
(39,37,o),
(39,128,cs),
(39,218,o),
(106,247,o),
(228,262,cs),
(351,277,o),
(379,296,o),
(395,319,c)
);
},
{
closed = 1;
nodes = (
(410,278,l),
(415,424,o),
(498,510,o),
(612,510,cs),
(712,510,o),
(794,444,o),
(806,278,c)
);
}
);
width = 845;
}
);
note = ae;
unicode = 230;
},
{
glyphname = oslash;
kernLeft = c;
kernRight = o;
layers = (
{
hints = (
{
horizontal = 1;
place = (-8, 14);
place = (-8, 14);
type = Stem;
},
{
horizontal = 1;
place = (510, 14);
place = (510, 14);
type = Stem;
},
{
place = (22, 15);
place = (22, 15);
type = Stem;
},
{
place = (483, 15);
place = (483, 15);
type = Stem;
}
);
layerId = m01;
shapes = (
{
closed = 1;
nodes = (
(409,-8,o),
(498,117,o),
(498,260,cs),
(498,331,o),
(476,397,o),
(435,445,c),
(494,512,l),
(484,522,l),
(425,455,l),
(385,497,o),
(329,524,o),
(260,524,cs),
(112,524,o),
(22,402,o),
(22,259,cs),
(22,187,o),
(44,120,o),
(86,71,c),
(25,3,l),
(35,-7,l),
(95,61,l),
(135,18,o),
(191,-8,o),
(260,-8,cs)
);
},
{
closed = 1;
nodes = (
(37,419,o),
(141,510,o),
(260,510,cs),
(319,510,o),
(375,487,o),
(416,445,c),
(95,82,l),
(59,125,o),
(37,184,o),
(37,259,cs)
);
},
{
closed = 1;
nodes = (
(200,6,o),
(145,29,o),
(104,72,c),
(425,434,l),
(461,392,o),
(483,333,o),
(483,260,cs),
(483,100,o),
(379,6,o),
(260,6,cs)
);
}
);
width = 528;
}
);
note = oslash;
unicode = 248;
},
{
glyphname = questiondown;
kernRight = questiondown;
layers = (
{
hints = (
{
horizontal = 1;
place = (-135, 14);
place = (-135, 14);
type = Stem;
},
{
place = (30, 15);
place = (30, 15);
type = Stem;
},
{
place = (243, 14);
place = (243, 14);
type = Stem;
},
{
place = (435, 15);
place = (435, 15);
type = Stem;
},
{
horizontal = 1;
place = (525, 63);
place = (525, 63);
type = Stem;
},
{
place = (240, 17);
place = (240, 17);
type = Stem;
}
);
layerId = m01;
shapes = (
{
closed = 1;
nodes = (
(243,410,l),
(243,316,o),
(219,279,o),
(145,219,cs),
(81,167,o),
(30,132,o),
(30,45,cs),
(30,-56,o),
(110,-135,o),
(232,-135,cs),
(376,-135,o),
(446,-39,o),
(450,79,c),
(435,79,l),
(429,-32,o),
(366,-121,o),
(232,-121,cs),
(123,-121,o),
(45,-50,o),
(45,45,cs),
(45,131,o),
(103,165,o),
(154,208,cs),
(235,276,o),
(257,310,o),
(257,410,c)
);
},
{
closed = 1;
nodes = (
(240,525,l),
(257,525,l),
(257,588,l),
(240,588,l)
);
}
);
width = 467;
}
);
note = questiondown;
unicode = 191;
},
{
glyphname = exclamdown;
kernRight = exclamdown;
layers = (
{
hints = (
{
horizontal = 1;
place = (525, 63);
place = (525, 63);
type = Stem;
},
{
place = (70, 15);
place = (70, 15);
type = Stem;
}
);
layerId = m01;
shapes = (
{
closed = 1;
nodes = (
(70,152,l),
(70,-127,l),
(85,-127,l),
(85,152,l),
(83,411,l),
(72,411,l)
);
},
{
closed = 1;
nodes = (
(69,525,l),
(86,525,l),
(86,588,l),
(69,588,l)
);
}
);
width = 155;
}
);
note = exclamdown;
unicode = 161;
},
{
glyphname = logicalnot;
layers = (
{
hints = (
{
horizontal = 1;
place = (378, 14);
place = (378, 14);
type = Stem;
},
{
place = (439, 15);
place = (439, 15);
type = Stem;
}
);
layerId = m01;
shapes = (
{
closed = 1;
nodes = (
(454,157,l),
(454,392,l),
(63,392,l),
(63,378,l),
(439,378,l),
(439,157,l)
);
}
);
width = 537;
}
);
note = logicalnot;
unicode = 172;
},
{
glyphname = radical;
layers = (
{
hints = (
{
horizontal = 1;
place = (-100, 22);
place = (-100, 22);
type = Stem;
},
{
horizontal = 1;
place = (280, 14);
place = (280, 14);
type = Stem;
},
{
horizontal = 1;
place = (715, -20);
target = down;
type = TopGhost;
},
{
place = (14, 526);
place = (14, 526);
type = Stem;
}
);
layerId = m01;
shapes = (
{
closed = 1;
nodes = (
(14,280,l),
(96,280,l),
(247,-100,l),
(262,-100,l),
(540,715,l),
(524,715,l),
(298,51,l),
(254,-78,l),
(202,54,l),
(108,294,l),
(14,294,l)
);
}
);
width = 550;
}
);
note = radical;
unicode = 8730;
},
{
glyphname = florin;
layers = (
{
hints = (
{
horizontal = 1;
place = (-152, 14);
place = (-152, 14);
type = Stem;
},
{
horizontal = 1;
place = (368, 14);
place = (368, 14);
type = Stem;
},
{
horizontal = 1;
place = (679, 14);
place = (679, 14);
type = Stem;
},
{
place = (-25, 348);
place = (-25, 348);
type = Stem;
},
{
horizontal = 1;
place = (689, -20);
target = down;
type = TopGhost;
},
{
horizontal = 1;
place = (-149, 21);
target = up;
type = BottomGhost;
}
);
layerId = m01;
shapes = (
{
closed = 1;
nodes = (
(262,382,l),
(163,382,l),
(190,571,ls),
(201,651,o),
(224,679,o),
(277,679,cs),
(293,679,o),
(312,677,o),
(323,675,c),
(323,689,l),
(313,691,o),
(294,693,o),
(277,693,cs),
(217,693,o),
(189,663,o),
(176,573,cs),
(149,382,l),
(64,382,l),
(64,368,l),
(147,368,l),
(91,-25,ls),
(79,-109,o),
(61,-138,o),
(13,-138,cs),
(1,-138,o),
(-11,-137,o),
(-25,-135,c),
(-25,-149,l),
(-11,-151,o),
(-1,-152,o),
(13,-152,cs),
(71,-152,o),
(92,-119,o),
(105,-27,cs),
(161,368,l),
(262,368,l)
);
}
);
width = 334;
}
);
note = florin;
unicode = 402;
},
{
glyphname = approxequal;
layers = (
{
hints = (
{
horizontal = 1;
place = (201, 14);
place = (201, 14);
type = Stem;
},
{
horizontal = 1;
place = (278, 14);
place = (278, 14);
type = Stem;
},
{
horizontal = 1;
place = (333, 14);
place = (333, 14);
type = Stem;
},
{
horizontal = 1;
place = (410, 14);
place = (410, 14);
type = Stem;
},
{
place = (36, 14);
place = (36, 14);
type = Stem;
},
{
place = (468, 14);
place = (468, 14);
type = Stem;
}
);
layerId = m01;
shapes = (
{
closed = 1;
nodes = (
(446,201,o),
(478,234,o),
(482,290,c),
(468,290,l),
(464,243,o),
(440,215,o),
(391,215,cs),
(304,215,o),
(214,292,o),
(127,292,cs),
(71,292,o),
(40,259,o),
(36,203,c),
(50,203,l),
(54,251,o),
(78,278,o),
(127,278,cs),
(206,278,o),
(303,201,o),
(391,201,cs)
);
},
{
closed = 1;
nodes = (
(446,333,o),
(478,366,o),
(482,422,c),
(468,422,l),
(464,375,o),
(440,347,o),
(391,347,cs),
(304,347,o),
(214,424,o),
(127,424,cs),
(71,424,o),
(40,391,o),
(36,335,c),
(50,335,l),
(54,383,o),
(78,410,o),
(127,410,cs),
(206,410,o),
(303,333,o),
(391,333,cs)
);
}
);
width = 535;
}
);
note = approxequal;
unicode = 8776;
},
{
glyphname = Delta;
layers = (
{
hints = (
{
horizontal = 1;
place = (0, 14);
place = (0, 14);
type = Stem;
},
{
horizontal = 1;
place = (693, 22);
place = (693, 22);
type = Stem;
},
{
place = (19, 17);
place = (19, 17);
type = Stem;
},
{
place = (631, 16);
place = (631, 16);
type = Stem;
}
);
layerId = m01;
shapes = (
{
closed = 1;
nodes = (
(19,14,l),
(19,0,l),
(647,0,l),
(647,14,l),
(345,715,l),
(331,715,l)
);
},
{
closed = 1;
nodes = (
(36,14,l),
(275,552,l),
(338,693,l),
(398,553,l),
(631,14,l)
);
}
);
width = 666;
}
);
note = Delta;
unicode = 8710;
},
{
glyphname = guillemotleft;
kernLeft = guillemotleft;
kernRight = guillemotleft;
layers = (
{
hints = (
{
horizontal = 1;
place = (135, 272);
place = (135, 272);
type = Stem;
},
{
place = (50, 12);
place = (50, 12);
type = Stem;
},
{
place = (168, 12);
place = (168, 12);
type = Stem;
}
);
layerId = m01;
shapes = (
{
closed = 1;
nodes = (
(309,135,l),
(309,153,l),
(180,272,l),
(309,388,l),
(309,407,l),
(168,280,l),
(168,264,l)
);
},
{
closed = 1;
nodes = (
(191,135,l),
(191,153,l),
(62,272,l),
(191,388,l),
(191,407,l),
(50,280,l),
(50,264,l)
);
}
);
width = 359;
}
);
note = guillemotleft;
unicode = 171;
},
{
glyphname = guillemotright;
kernLeft = guillemotright;
kernRight = guillemotright;
layers = (
{
hints = (
{
horizontal = 1;
place = (135, 272);
place = (135, 272);
type = Stem;
},
{
place = (179, 12);
place = (179, 12);
type = Stem;
},
{
place = (297, 12);
place = (297, 12);
type = Stem;
}
);
layerId = m01;
shapes = (
{
closed = 1;
nodes = (
(168,135,l),
(309,264,l),
(309,280,l),
(168,407,l),
(168,388,l),
(297,272,l),
(168,153,l)
);
},
{
closed = 1;
nodes = (
(50,135,l),
(191,264,l),
(191,280,l),
(50,407,l),
(50,388,l),
(179,272,l),
(50,153,l)
);
}
);
width = 359;
}
);
note = guillemotright;
unicode = 187;
},
{
glyphname = ellipsis;
kernLeft = comma;
kernRight = comma;
layers = (
{
hints = (
{
horizontal = 1;
place = (0, 55);
place = (0, 55);
type = Stem;
},
{
place = (44, 17);
place = (44, 17);
type = Stem;
},
{
place = (167, 17);
place = (167, 17);
type = Stem;
},
{
place = (290, 17);
place = (290, 17);
type = Stem;
}
);
layerId = m01;
shapes = (
{
closed = 1;
nodes = (
(61,55,l),
(44,55,l),
(44,0,l),
(61,0,l)
);
},
{
closed = 1;
nodes = (
(184,55,l),
(167,55,l),
(167,0,l),
(184,0,l)
);
},
{
closed = 1;
nodes = (
(307,55,l),
(290,55,l),
(290,0,l),
(307,0,l)
);
}
);
width = 351;
}
);
note = ellipsis;
unicode = 8230;
},
{
glyphname = Agrave;
kernLeft = A;
kernRight = A;
layers = (
{
hints = (
{
horizontal = 1;
place = (0, 21);
target = up;
type = BottomGhost;
},
{
horizontal = 1;
place = (256, 14);
place = (256, 14);
type = Stem;
},
{
horizontal = 1;
place = (695, 20);
place = (695, 20);
type = Stem;
},
{
place = (10, 568);
place = (10, 568);
type = Stem;
}
);
layerId = m01;
shapes = (
{
closed = 1;
nodes = (
(562,0,l),
(578,0,l),
(303,715,l),
(285,715,l),
(10,0,l),
(26,0,l),
(125,256,l),
(463,256,l)
);
},
{
closed = 1;
nodes = (
(294,695,l),
(458,270,l),
(130,270,l)
);
},
{
closed = 1;
nodes = (
(230,871,l),
(213,871,l),
(280,756,l),
(296,756,l)
);
}
);
width = 588;
}
);
note = Agrave;
unicode = 192;
},
{
glyphname = Atilde;
kernLeft = A;
kernRight = A;
layers = (
{
hints = (
{
horizontal = 1;
place = (0, 21);
target = up;
type = BottomGhost;
},
{
horizontal = 1;
place = (256, 14);
place = (256, 14);
type = Stem;
},
{
horizontal = 1;
place = (695, 20);
place = (695, 20);
type = Stem;
},
{
horizontal = 1;
place = (770, 14);
place = (770, 14);
type = Stem;
},
{
horizontal = 1;
place = (830, 14);
place = (830, 14);
type = Stem;
},
{
place = (162, 14);
place = (162, 14);
type = Stem;
},
{
place = (412, 14);
place = (412, 14);
type = Stem;
}
);
layerId = m01;
shapes = (
{
closed = 1;
nodes = (
(562,0,l),
(578,0,l),
(303,715,l),
(285,715,l),
(10,0,l),
(26,0,l),
(125,256,l),
(463,256,l)
);
},
{
closed = 1;
nodes = (
(294,695,l),
(458,270,l),
(130,270,l)
);
},
{
closed = 1;
nodes = (
(189,844,o),
(164,817,o),
(162,769,c),
(176,769,l),
(179,813,o),
(197,830,o),
(223,830,cs),
(282,830,o),
(300,770,o),
(364,770,cs),
(399,770,o),
(424,795,o),
(426,845,c),
(412,845,l),
(409,801,o),
(391,784,o),
(365,784,cs),
(306,784,o),
(290,844,o),
(224,844,cs)
);
}
);
width = 588;
}
);
note = Atilde;
unicode = 195;
},
{
glyphname = Otilde;
kernLeft = C;
kernRight = O;
layers = (
{
hints = (
{
horizontal = 1;
place = (-8, 14);
place = (-8, 14);
type = Stem;
},
{
horizontal = 1;
place = (709, 14);
place = (709, 14);
type = Stem;
},
{
horizontal = 1;
place = (770, 14);
place = (770, 14);
type = Stem;
},
{
horizontal = 1;
place = (830, 14);
place = (830, 14);
type = Stem;
},
{
place = (40, 15);
place = (40, 15);
type = Stem;
},
{
place = (247, 14);
place = (247, 14);
type = Stem;
},
{
place = (497, 14);
place = (497, 14);
type = Stem;
},
{
place = (694, 15);
place = (694, 15);
type = Stem;
}
);
layerId = m01;
shapes = (
{
closed = 1;
nodes = (
(568,-8,o),
(709,146,o),
(709,357,cs),
(709,569,o),
(568,723,o),
(374,723,cs),
(180,723,o),
(40,569,o),
(40,357,cs),
(40,145,o),
(180,-8,o),
(374,-8,cs)
);
},
{
closed = 1;
nodes = (
(184,6,o),
(55,159,o),
(55,357,cs),
(55,556,o),
(184,709,o),
(374,709,cs),
(563,709,o),
(694,555,o),
(694,357,cs),
(694,160,o),
(563,6,o),
(374,6,cs)
);
},
{
closed = 1;
nodes = (
(274,844,o),
(249,817,o),
(247,769,c),
(261,769,l),
(264,813,o),
(282,830,o),
(308,830,cs),
(367,830,o),
(385,770,o),
(449,770,cs),
(484,770,o),
(509,795,o),
(511,845,c),
(497,845,l),
(494,801,o),
(476,784,o),
(450,784,cs),
(391,784,o),
(375,844,o),
(309,844,cs)
);
}
);
width = 749;
}
);
note = Otilde;
unicode = 213;
},
{
glyphname = OE;
kernLeft = C;
kernRight = E;
layers = (
{
hints = (
{
horizontal = 1;
place = (0, 14);
place = (0, 14);
type = Stem;
},
{
horizontal = 1;
place = (364, 14);
place = (364, 14);
type = Stem;
},
{
horizontal = 1;
place = (701, 14);
place = (701, 14);
type = Stem;
},
{
place = (40, 15);
place = (40, 15);
type = Stem;
},
{
place = (564, 15);
place = (564, 15);
type = Stem;
},
{
horizontal = 1;
place = (-7, 14);
place = (-7, 14);
type = Stem;
},
{
horizontal = 1;
place = (709, 14);
place = (709, 14);
type = Stem;
}
);
layerId = m01;
shapes = (
{
closed = 1;
nodes = (
(579,701,l),
(976,701,l),
(976,715,l),
(564,715,l),
(564,625,l),
(551,660,o),
(487,723,o),
(364,723,cs),
(180,723,o),
(40,571,o),
(40,358,cs),
(40,145,o),
(180,-7,o),
(364,-7,cs),
(485,-7,o),
(546,46,o),
(564,86,c),
(564,0,l),
(986,0,l),
(986,14,l),
(579,14,l),
(579,364,l),
(941,364,l),
(941,378,l),
(579,378,l)
);
},
{
closed = 1;
nodes = (
(183,7,o),
(55,160,o),
(55,358,cs),
(55,557,o),
(184,709,o),
(364,709,cs),
(479,709,o),
(564,649,o),
(564,571,cs),
(564,132,ls),
(564,77,o),
(497,7,o),
(364,7,cs)
);
}
);
width = 1024;
}
);
note = OE;
unicode = 338;
},
{
glyphname = oe;
kernLeft = c;
kernRight = e;
layers = (
{
hints = (
{
horizontal = 1;
place = (-10, 14);
place = (-10, 14);
type = Stem;
},
{
horizontal = 1;
place = (264, 14);
place = (264, 14);
type = Stem;
},
{
horizontal = 1;
place = (510, 14);
place = (510, 14);
type = Stem;
},
{
place = (26, 15);
place = (26, 15);
type = Stem;
},
{
place = (439, 15);
place = (439, 15);
type = Stem;
},
{
place = (850, 15);
place = (850, 15);
type = Stem;
}
);
layerId = m01;
shapes = (
{
closed = 1;
nodes = (
(360,-10,o),
(426,73,o),
(447,181,c),
(469,70,o),
(537,-10,o),
(661,-10,cs),
(781,-10,o),
(837,64,o),
(856,149,c),
(841,149,l),
(816,52,o),
(755,4,o),
(661,4,cs),
(524,4,o),
(456,107,o),
(454,264,c),
(865,264,l),
(862,337,o),
(846,399,o),
(816,444,cs),
(782,494,o),
(730,524,o),
(656,524,cs),
(537,524,o),
(468,443,o),
(446,339,c),
(425,445,o),
(359,524,o),
(239,524,cs),
(91,524,o),
(26,401,o),
(26,258,cs),
(26,115,o),
(91,-10,o),
(239,-10,cs)
);
},
{
closed = 1;
nodes = (
(120,4,o),
(41,98,o),
(41,258,cs),
(41,418,o),
(120,510,o),
(239,510,cs),
(358,510,o),
(439,419,o),
(439,259,cs),
(439,99,o),
(358,4,o),
(239,4,cs)
);
},
{
closed = 1;
nodes = (
(454,278,l),
(459,424,o),
(542,510,o),
(656,510,cs),
(756,510,o),
(838,444,o),
(850,278,c)
);
}
);
width = 889;
}
);
note = oe;
unicode = 339;
},
{
glyphname = endash;
kernLeft = hyphen;
kernRight = hyphen;
layers = (
{
hints = (
{
horizontal = 1;
place = (248, 15);
place = (248, 15);
type = Stem;
},
{
place = (48, 403);
place = (48, 403);
type = Stem;
}
);
layerId = m01;
shapes = (
{
closed = 1;
nodes = (
(48,248,l),
(451,248,l),
(451,263,l),
(48,263,l)
);
}
);
width = 499;
}
);
note = endash;
unicode = 8211;
},
{
glyphname = emdash;
kernLeft = hyphen;
kernRight = hyphen;
layers = (
{
hints = (
{
horizontal = 1;
place = (248, 15);
place = (248, 15);
type = Stem;
},
{
place = (48, 683);
place = (48, 683);
type = Stem;
}
);
layerId = m01;
shapes = (
{
closed = 1;
nodes = (
(48,248,l),
(731,248,l),
(731,263,l),
(48,263,l)
);
}
);
width = 779;
}
);
note = emdash;
unicode = 8212;
},
{
glyphname = quotedblleft;
kernLeft = quotedblleft;
kernRight = quotedblleft;
layers = (
{
hints = (
{
horizontal = 1;
place = (715, -20);
target = down;
type = TopGhost;
},
{
place = (42, 15);
place = (42, 15);
type = Stem;
},
{
place = (128, 15);
place = (128, 15);
type = Stem;
}
);
layerId = m01;
shapes = (
{
closed = 1;
nodes = (
(89,715,l),
(47,687,o),
(42,645,o),
(42,606,cs),
(42,544,l),
(57,544,l),
(57,603,ls),
(57,638,o),
(61,676,o),
(89,699,c)
);
},
{
closed = 1;
nodes = (
(175,715,l),
(133,687,o),
(128,645,o),
(128,606,cs),
(128,544,l),
(143,544,l),
(143,603,ls),
(143,638,o),
(147,676,o),
(175,699,c)
);
}
);
width = 199;
}
);
note = quotedblleft;
unicode = 8220;
},
{
glyphname = quotedblright;
kernLeft = quotedblright;
kernRight = quotedblright;
layers = (
{
hints = (
{
horizontal = 1;
place = (715, -20);
target = down;
type = TopGhost;
},
{
place = (56, 15);
place = (56, 15);
type = Stem;
},
{
place = (142, 15);
place = (142, 15);
type = Stem;
}
);
layerId = m01;
shapes = (
{
closed = 1;
nodes = (
(24,544,l),
(66,572,o),
(71,614,o),
(71,653,cs),
(71,715,l),
(56,715,l),
(56,656,ls),
(56,621,o),
(52,583,o),
(24,560,c)
);
},
{
closed = 1;
nodes = (
(110,544,l),
(152,572,o),
(157,614,o),
(157,653,cs),
(157,715,l),
(142,715,l),
(142,656,ls),
(142,621,o),
(138,583,o),
(110,560,c)
);
}
);
width = 199;
}
);
note = quotedblright;
unicode = 8221;
},
{
glyphname = quoteleft;
kernLeft = quotedblleft;
kernRight = quotedblleft;
layers = (
{
hints = (
{
horizontal = 1;
place = (715, -20);
target = down;
type = TopGhost;
},
{
place = (42, 15);
place = (42, 15);
type = Stem;
}
);
layerId = m01;
shapes = (
{
closed = 1;
nodes = (
(89,715,l),
(47,687,o),
(42,645,o),
(42,606,cs),
(42,544,l),
(57,544,l),
(57,603,ls),
(57,638,o),
(61,676,o),
(89,699,c)
);
}
);
width = 113;
}
);
note = quoteleft;
unicode = 8216;
},
{
glyphname = quoteright;
kernLeft = quotedblright;
kernRight = quotedblright;
layers = (
{
hints = (
{
horizontal = 1;
place = (715, -20);
target = down;
type = TopGhost;
},
{
place = (56, 15);
place = (56, 15);
type = Stem;
}
);
layerId = m01;
shapes = (
{
closed = 1;
nodes = (
(24,544,l),
(66,572,o),
(71,614,o),
(71,653,cs),
(71,715,l),
(56,715,l),
(56,656,ls),
(56,621,o),
(52,583,o),
(24,560,c)
);
}
);
width = 113;
}
);
note = quoteright;
unicode = 8217;
},
{
glyphname = divide;
kernLeft = minus;
kernRight = minus;
layers = (
{
hints = (
{
horizontal = 1;
place = (147, 52);
place = (147, 52);
type = Stem;
},
{
horizontal = 1;
place = (320, 14);
place = (320, 14);
type = Stem;
},
{
horizontal = 1;
place = (454, 52);
place = (454, 52);
type = Stem;
},
{
place = (260, 17);
place = (260, 17);
type = Stem;
}
);
layerId = m01;
shapes = (
{
closed = 1;
nodes = (
(53,320,l),
(483,320,l),
(483,334,l),
(53,334,l)
);
},
{
closed = 1;
nodes = (
(277,506,l),
(260,506,l),
(260,454,l),
(277,454,l)
);
},
{
closed = 1;
nodes = (
(277,199,l),
(260,199,l),
(260,147,l),
(277,147,l)
);
}
);
width = 536;
}
);
note = divide;
unicode = 247;
},
{
glyphname = lozenge;
layers = (
{
hints = (
{
horizontal = 1;
place = (0, 15);
place = (0, 15);
type = Stem;
},
{
horizontal = 1;
place = (700, 15);
place = (700, 15);
type = Stem;
},
{
place = (26, 432);
place = (26, 432);
type = Stem;
}
);
layerId = m01;
shapes = (
{
closed = 1;
nodes = (
(26,360,l),
(237,0,l),
(251,0,l),
(458,360,l),
(249,715,l),
(235,715,l)
);
},
{
closed = 1;
nodes = (
(242,700,l),
(440,360,l),
(244,15,l),
(44,360,l)
);
}
);
width = 484;
}
);
note = lozenge;
unicode = 9674;
},
{
glyphname = ydieresis;
kernLeft = yacute;
kernRight = yacute;
layers = (
{
hints = (
{
horizontal = 1;
place = (-168, 14);
place = (-168, 14);
type = Stem;
},
{
horizontal = 1;
place = (517, -20);
target = down;
type = TopGhost;
},
{
horizontal = 1;
place = (651, 54);
place = (651, 54);
type = Stem;
},
{
place = (137, 15);
place = (137, 15);
type = Stem;
},
{
place = (282, 15);
place = (282, 15);
type = Stem;
},
{
horizontal = 1;
place = (-160, 21);
target = up;
type = BottomGhost;
}
);
layerId = m01;
shapes = (
{
closed = 1;
nodes = (
(427,517,l),
(411,517,l),
(217,40,l),
(19,517,l),
(2,517,l),
(209,20,l),
(185,-39,ls),
(143,-143,o),
(124,-154,o),
(79,-154,cs),
(60,-154,o),
(42,-150,o),
(30,-145,c),
(29,-145,l),
(29,-160,l),
(40,-164,o),
(57,-168,o),
(79,-168,cs),
(136,-168,o),
(157,-150,o),
(199,-45,cs)
);
},
{
closed = 1;
nodes = (
(297,705,l),
(282,705,l),
(282,651,l),
(297,651,l)
);
},
{
closed = 1;
nodes = (
(152,705,l),
(137,705,l),
(137,651,l),
(152,651,l)
);
}
);
width = 429;
}
);
note = ydieresis;
unicode = 255;
},
{
glyphname = Ydieresis;
kernLeft = Yacute;
kernRight = Yacute;
layers = (
{
hints = (
{
horizontal = 1;
place = (0, 21);
target = up;
type = BottomGhost;
},
{
horizontal = 1;
place = (715, -20);
target = down;
type = TopGhost;
},
{
horizontal = 1;
place = (782, 54);
place = (782, 54);
type = Stem;
},
{
place = (206, 15);
place = (206, 15);
type = Stem;
},
{
place = (279, 15);
place = (279, 15);
type = Stem;
},
{
place = (351, 15);
place = (351, 15);
type = Stem;
}
);
layerId = m01;
shapes = (
{
closed = 1;
nodes = (
(27,715,l),
(10,715,l),
(279,324,l),
(279,0,l),
(294,0,l),
(294,324,l),
(563,715,l),
(546,715,l),
(286,337,l)
);
},
{
closed = 1;
nodes = (
(366,836,l),
(351,836,l),
(351,782,l),
(366,782,l)
);
},
{
closed = 1;
nodes = (
(221,836,l),
(206,836,l),
(206,782,l),
(221,782,l)
);
}
);
width = 573;
}
);
note = Ydieresis;
unicode = 376;
},
{
glyphname = fraction;
layers = (
{
hints = (
{
horizontal = 1;
place = (0, 21);
target = up;
type = BottomGhost;
},
{
horizontal = 1;
place = (715, -20);
target = down;
type = TopGhost;
},
{
place = (-178, 504);
place = (-178, 504);
type = Stem;
}
);
layerId = m01;
shapes = (
{
closed = 1;
nodes = (
(309,715,l),
(-178,0,l),
(-161,0,l),
(326,715,l)
);
}
);
width = 148;
}
);
note = fraction;
unicode = 8260;
},
{
glyphname = Euro;
layers = (
{
hints = (
{
horizontal = 1;
place = (-9, 14);
place = (-9, 14);
type = Stem;
},
{
horizontal = 1;
place = (276, 14);
place = (276, 14);
type = Stem;
},
{
horizontal = 1;
place = (393, 14);
place = (393, 14);
type = Stem;
},
{
horizontal = 1;
place = (681, 14);
place = (681, 14);
type = Stem;
},
{
place = (83, 15);
place = (83, 15);
type = Stem;
},
{
place = (549, 15);
place = (549, 15);
type = Stem;
}
);
layerId = m01;
shapes = (
{
closed = 1;
nodes = (
(22,276,l),
(84,276,l),
(105,88,o),
(213,-9,o),
(337,-9,cs),
(479,-9,o),
(559,106,o),
(564,218,c),
(549,218,l),
(544,112,o),
(472,5,o),
(337,5,cs),
(222,5,o),
(120,98,o),
(100,276,c),
(352,276,l),
(352,290,l),
(98,290,l),
(97,307,o),
(96,324,o),
(96,343,cs),
(96,360,o),
(96,377,o),
(98,393,c),
(352,393,l),
(352,407,l),
(99,407,l),
(119,582,o),
(218,681,o),
(338,681,cs),
(459,681,o),
(528,590,o),
(543,504,c),
(558,504,l),
(543,599,o),
(467,695,o),
(338,695,cs),
(210,695,o),
(104,591,o),
(84,407,c),
(22,407,l),
(22,393,l),
(83,393,l),
(81,377,o),
(81,360,o),
(81,343,cs),
(81,324,o),
(82,307,o),
(83,290,c),
(22,290,l)
);
}
);
width = 588;
}
);
note = Euro;
unicode = 8364;
},
{
glyphname = guilsinglleft;
kernLeft = guillemotleft;
kernRight = guillemotleft;
layers = (
{
hints = (
{
horizontal = 1;
place = (135, 272);
place = (135, 272);
type = Stem;
},
{
place = (50, 12);
place = (50, 12);
type = Stem;
}
);
layerId = m01;
shapes = (
{
closed = 1;
nodes = (
(191,153,l),
(62,272,l),
(191,388,l),
(191,407,l),
(50,280,l),
(50,264,l),
(191,135,l)
);
}
);
width = 241;
}
);
note = guilsinglleft;
unicode = 8249;
},
{
glyphname = guilsinglright;
kernLeft = guillemotright;
kernRight = guillemotright;
layers = (
{
hints = (
{
horizontal = 1;
place = (135, 272);
place = (135, 272);
type = Stem;
},
{
place = (179, 12);
place = (179, 12);
type = Stem;
}
);
layerId = m01;
shapes = (
{
closed = 1;
nodes = (
(50,135,l),
(191,264,l),
(191,280,l),
(50,407,l),
(50,388,l),
(179,272,l),
(50,153,l)
);
}
);
width = 241;
}
);
note = guilsinglright;
unicode = 8250;
},
{
glyphname = fi;
kernLeft = f;
layers = (
{
hints = (
{
horizontal = 1;
place = (0, 21);
target = up;
type = BottomGhost;
},
{
horizontal = 1;
place = (503, 14);
place = (503, 14);
type = Stem;
},
{
horizontal = 1;
place = (707, 14);
place = (707, 14);
type = Stem;
},
{
place = (92, 15);
place = (92, 15);
type = Stem;
},
{
place = (300, 15);
place = (300, 15);
type = Stem;
},
{
horizontal = 1;
place = (650, 56);
place = (650, 56);
type = Stem;
}
);
layerId = m01;
shapes = (
{
closed = 1;
nodes = (
(232,720,l),
(213,721,o),
(207,721,o),
(191,721,cs),
(129,721,o),
(92,694,o),
(92,615,cs),
(92,517,l),
(22,517,l),
(22,503,l),
(92,503,l),
(92,0,l),
(107,0,l),
(107,503,l),
(231,503,l),
(231,517,l),
(107,517,l),
(107,614,ls),
(107,687,o),
(140,707,o),
(191,707,cs),
(210,707,o),
(213,707,o),
(232,706,c)
);
},
{
closed = 1;
nodes = (
(315,517,l),
(300,517,l),
(300,0,l),
(315,0,l)
);
},
{
closed = 1;
nodes = (
(315,706,l),
(300,706,l),
(300,650,l),
(315,650,l)
);
}
);
width = 370;
}
);
note = fi;
unicode = 64257;
},
{
glyphname = fl;
kernLeft = f;
layers = (
{
hints = (
{
horizontal = 1;
place = (0, 21);
target = up;
type = BottomGhost;
},
{
horizontal = 1;
place = (503, 14);
place = (503, 14);
type = Stem;
},
{
horizontal = 1;
place = (707, 14);
place = (707, 14);
type = Stem;
},
{
place = (92, 15);
place = (92, 15);
type = Stem;
},
{
place = (300, 15);
place = (300, 15);
type = Stem;
},
{
horizontal = 1;
place = (715, -20);
target = down;
type = TopGhost;
}
);
layerId = m01;
shapes = (
{
closed = 1;
nodes = (
(232,720,l),
(213,721,o),
(207,721,o),
(191,721,cs),
(129,721,o),
(92,694,o),
(92,615,cs),
(92,517,l),
(22,517,l),
(22,503,l),
(92,503,l),
(92,0,l),
(107,0,l),
(107,503,l),
(231,503,l),
(231,517,l),
(107,517,l),
(107,614,ls),
(107,687,o),
(140,707,o),
(191,707,cs),
(210,707,o),
(213,707,o),
(232,706,c)
);
},
{
closed = 1;
nodes = (
(315,715,l),
(300,715,l),
(300,0,l),
(315,0,l)
);
}
);
width = 373;
}
);
note = fl;
unicode = 64258;
},
{
glyphname = daggerdbl;
layers = (
{
hints = (
{
horizontal = 1;
place = (111, 15);
place = (111, 15);
type = Stem;
},
{
horizontal = 1;
place = (485, 15);
place = (485, 15);
type = Stem;
},
{
horizontal = 1;
place = (715, -20);
target = down;
type = TopGhost;
},
{
place = (254, 15);
place = (254, 15);
type = Stem;
}
);
layerId = m01;
shapes = (
{
closed = 1;
nodes = (
(34,485,l),
(254,485,l),
(254,126,l),
(34,126,l),
(34,111,l),
(254,111,l),
(254,-104,l),
(269,-104,l),
(269,111,l),
(488,111,l),
(488,126,l),
(269,126,l),
(269,485,l),
(488,485,l),
(488,500,l),
(269,500,l),
(269,715,l),
(254,715,l),
(254,500,l),
(34,500,l)
);
}
);
width = 522;
}
);
note = daggerdbl;
unicode = 8225;
},
{
glyphname = periodcentered;
kernLeft = periodcentered;
kernRight = periodcentered;
layers = (
{
hints = (
{
horizontal = 1;
place = (286, 55);
place = (286, 55);
type = Stem;
},
{
place = (47, 17);
place = (47, 17);
type = Stem;
}
);
layerId = m01;
shapes = (
{
closed = 1;
nodes = (
(64,341,l),
(47,341,l),
(47,286,l),
(64,286,l)
);
}
);
width = 105;
}
);
note = periodcentered;
unicode = 183;
},
{
glyphname = quotesinglbase;
kernLeft = quotesinglbase;
kernRight = quotesinglbase;
layers = (
{
hints = (
{
horizontal = 1;
place = (-108, 171);
place = (-108, 171);
type = Stem;
},
{
place = (73, 16);
place = (73, 16);
type = Stem;
}
);
layerId = m01;
shapes = (
{
closed = 1;
nodes = (
(42,-108,l),
(84,-80,o),
(89,-38,o),
(89,1,cs),
(89,63,l),
(73,63,l),
(73,4,ls),
(73,-31,o),
(70,-68,o),
(42,-91,c)
);
}
);
width = 131;
}
);
note = quotesinglbase;
unicode = 8218;
},
{
glyphname = quotedblbase;
kernLeft = quotesinglbase;
kernRight = quotesinglbase;
layers = (
{
hints = (
{
horizontal = 1;
place = (-108, 171);
place = (-108, 171);
type = Stem;
},
{
place = (73, 16);
place = (73, 16);
type = Stem;
},
{
place = (159, 16);
place = (159, 16);
type = Stem;
}
);
layerId = m01;
shapes = (
{
closed = 1;
nodes = (
(42,-108,l),
(84,-80,o),
(89,-38,o),
(89,1,cs),
(89,63,l),
(73,63,l),
(73,4,ls),
(73,-31,o),
(70,-68,o),
(42,-91,c)
);
},
{
closed = 1;
nodes = (
(128,-108,l),
(170,-80,o),
(175,-38,o),
(175,1,cs),
(175,63,l),
(159,63,l),
(159,4,ls),
(159,-31,o),
(156,-68,o),
(128,-91,c)
);
}
);
width = 217;
}
);
note = quotedblbase;
unicode = 8222;
},
{
glyphname = perthousand;
kernLeft = percent;
layers = (
{
hints = (
{
horizontal = 1;
place = (0, 21);
target = up;
type = BottomGhost;
},
{
horizontal = 1;
place = (327, 14);
place = (327, 14);
type = Stem;
},
{
horizontal = 1;
place = (685, -20);
target = down;
type = TopGhost;
},
{
place = (24, 15);
place = (24, 15);
type = Stem;
},
{
place = (277, 15);
place = (277, 15);
type = Stem;
},
{
horizontal = 1;
place = (667, 14);
place = (667, 14);
type = Stem;
},
{
horizontal = 1;
place = (-8, 14);
place = (-8, 14);
type = Stem;
},
{
horizontal = 1;
place = (332, 14);
place = (332, 14);
type = Stem;
},
{
place = (358, 15);
place = (358, 15);
type = Stem;
},
{
place = (611, 15);
place = (611, 15);
type = Stem;
},
{
place = (671, 15);
place = (671, 15);
type = Stem;
},
{
place = (924, 15);
place = (924, 15);
type = Stem;
}
);
layerId = m01;
shapes = (
{
closed = 1;
nodes = (
(108,0,l),
(125,0,l),
(554,685,l),
(537,685,l)
);
},
{
closed = 1;
nodes = (
(241,327,o),
(292,398,o),
(292,504,cs),
(292,614,o),
(239,681,o),
(160,681,cs),
(79,681,o),
(24,612,o),
(24,504,cs),
(24,398,o),
(77,327,o),
(160,327,cs)
);
},
{
closed = 1;
nodes = (
(85,341,o),
(39,406,o),
(39,504,cs),
(39,604,o),
(88,667,o),
(160,667,cs),
(232,667,o),
(277,606,o),
(277,504,cs),
(277,406,o),
(236,341,o),
(160,341,cs)
);
},
{
closed = 1;
nodes = (
(575,-8,o),
(626,63,o),
(626,169,cs),
(626,279,o),
(573,346,o),
(494,346,cs),
(413,346,o),
(358,277,o),
(358,169,cs),
(358,63,o),
(411,-8,o),
(494,-8,cs)
);
},
{
closed = 1;
nodes = (
(419,6,o),
(373,71,o),
(373,169,cs),
(373,269,o),
(421,332,o),
(494,332,cs),
(566,332,o),
(611,271,o),
(611,169,cs),
(611,71,o),
(570,6,o),
(494,6,cs)
);
},
{
closed = 1;
nodes = (
(888,-8,o),
(939,63,o),
(939,169,cs),
(939,279,o),
(886,346,o),
(807,346,cs),
(726,346,o),
(671,277,o),
(671,169,cs),
(671,63,o),
(724,-8,o),
(807,-8,cs)
);
},
{
closed = 1;
nodes = (
(732,6,o),
(686,71,o),
(686,169,cs),
(686,269,o),
(734,332,o),
(807,332,cs),
(879,332,o),
(924,271,o),
(924,169,cs),
(924,71,o),
(883,6,o),
(807,6,cs)
);
}
);
width = 963;
}
);
note = perthousand;
unicode = 8240;
},
{
glyphname = Acircumflex;
kernLeft = A;
kernRight = A;
layers = (
{
hints = (
{
horizontal = 1;
place = (0, 21);
target = up;
type = BottomGhost;
},
{
horizontal = 1;
place = (256, 14);
place = (256, 14);
type = Stem;
},
{
horizontal = 1;
place = (695, 20);
place = (695, 20);
type = Stem;
},
{
horizontal = 1;
place = (850, 12);
place = (850, 12);
type = Stem;
},
{
place = (10, 568);
place = (10, 568);
type = Stem;
}
);
layerId = m01;
shapes = (
{
closed = 1;
nodes = (
(562,0,l),
(578,0,l),
(303,715,l),
(285,715,l),
(10,0,l),
(26,0,l),
(125,256,l),
(463,256,l)
);
},
{
closed = 1;
nodes = (
(294,695,l),
(458,270,l),
(130,270,l)
);
},
{
closed = 1;
nodes = (
(302,862,l),
(286,862,l),
(192,758,l),
(209,758,l),
(294,850,l),
(379,758,l),
(396,758,l)
);
}
);
width = 588;
}
);
note = Acircumflex;
unicode = 194;
},
{
glyphname = Ecircumflex;
kernRight = E;
layers = (
{
hints = (
{
horizontal = 1;
place = (0, 14);
place = (0, 14);
type = Stem;
},
{
horizontal = 1;
place = (364, 14);
place = (364, 14);
type = Stem;
},
{
horizontal = 1;
place = (701, 14);
place = (701, 14);
type = Stem;
},
{
horizontal = 1;
place = (850, 12);
place = (850, 12);
type = Stem;
},
{
place = (67, 15);
place = (67, 15);
type = Stem;
}
);
layerId = m01;
shapes = (
{
closed = 1;
nodes = (
(82,701,l),
(534,701,l),
(534,715,l),
(67,715,l),
(67,0,l),
(544,0,l),
(544,14,l),
(82,14,l),
(82,364,l),
(499,364,l),
(499,378,l),
(82,378,l)
);
},
{
closed = 1;
nodes = (
(311,862,l),
(295,862,l),
(201,758,l),
(218,758,l),
(303,850,l),
(388,758,l),
(405,758,l)
);
}
);
width = 582;
}
);
note = Ecircumflex;
unicode = 202;
},
{
glyphname = Aacute;
kernLeft = A;
kernRight = A;
layers = (
{
hints = (
{
horizontal = 1;
place = (0, 21);
target = up;
type = BottomGhost;
},
{
horizontal = 1;
place = (256, 14);
place = (256, 14);
type = Stem;
},
{
horizontal = 1;
place = (695, 20);
place = (695, 20);
type = Stem;
},
{
place = (10, 568);
place = (10, 568);
type = Stem;
}
);
layerId = m01;
shapes = (
{
closed = 1;
nodes = (
(562,0,l),
(578,0,l),
(303,715,l),
(285,715,l),
(10,0,l),
(26,0,l),
(125,256,l),
(463,256,l)
);
},
{
closed = 1;
nodes = (
(294,695,l),
(458,270,l),
(130,270,l)
);
},
{
closed = 1;
nodes = (
(290,756,l),
(306,756,l),
(368,871,l),
(351,871,l)
);
}
);
width = 588;
}
);
note = Aacute;
unicode = 193;
},
{
glyphname = Edieresis;
kernRight = E;
layers = (
{
hints = (
{
horizontal = 1;
place = (0, 14);
place = (0, 14);
type = Stem;
},
{
horizontal = 1;
place = (364, 14);
place = (364, 14);
type = Stem;
},
{
horizontal = 1;
place = (701, 135);
place = (701, 135);
type = Stem;
},
{
place = (67, 15);
place = (67, 15);
type = Stem;
},
{
place = (223, 15);
place = (223, 15);
type = Stem;
},
{
place = (368, 15);
place = (368, 15);
type = Stem;
},
{
horizontal = 1;
place = (701, 14);
place = (701, 14);
type = Stem;
}
);
layerId = m01;
shapes = (
{
closed = 1;
nodes = (
(238,836,l),
(223,836,l),
(223,782,l),
(238,782,l)
);
},
{
closed = 1;
nodes = (
(383,836,l),
(368,836,l),
(368,782,l),
(383,782,l)
);
},
{
closed = 1;
nodes = (
(82,701,l),
(534,701,l),
(534,715,l),
(67,715,l),
(67,0,l),
(544,0,l),
(544,14,l),
(82,14,l),
(82,364,l),
(499,364,l),
(499,378,l),
(82,378,l)
);
}
);
width = 582;
}
);
note = Edieresis;
unicode = 203;
},
{
glyphname = Egrave;
kernRight = E;
layers = (
{
hints = (
{
horizontal = 1;
place = (0, 14);
place = (0, 14);
type = Stem;
},
{
horizontal = 1;
place = (364, 14);
place = (364, 14);
type = Stem;
},
{
horizontal = 1;
place = (701, 14);
place = (701, 14);
type = Stem;
},
{
place = (67, 15);
place = (67, 15);
type = Stem;
}
);
layerId = m01;
shapes = (
{
closed = 1;
nodes = (
(248,871,l),
(231,871,l),
(298,756,l),
(314,756,l)
);
},
{
closed = 1;
nodes = (
(82,701,l),
(534,701,l),
(534,715,l),
(67,715,l),
(67,0,l),
(544,0,l),
(544,14,l),
(82,14,l),
(82,364,l),
(499,364,l),
(499,378,l),
(82,378,l)
);
}
);
width = 582;
}
);
note = Egrave;
unicode = 200;
},
{
glyphname = Iacute;
layers = (
{
hints = (
{
horizontal = 1;
place = (0, 21);
target = up;
type = BottomGhost;
},
{
horizontal = 1;
place = (715, -20);
target = down;
type = TopGhost;
},
{
place = (69, 15);
place = (69, 15);
type = Stem;
}
);
layerId = m01;
shapes = (
{
closed = 1;
nodes = (
(84,715,l),
(69,715,l),
(69,0,l),
(84,0,l)
);
},
{
closed = 1;
nodes = (
(71,756,l),
(87,756,l),
(149,871,l),
(132,871,l)
);
}
);
width = 153;
}
);
note = Iacute;
unicode = 205;
},
{
glyphname = Icircumflex;
layers = (
{
hints = (
{
horizontal = 1;
place = (0, 21);
target = up;
type = BottomGhost;
},
{
horizontal = 1;
place = (715, -20);
target = down;
type = TopGhost;
},
{
horizontal = 1;
place = (850, 12);
place = (850, 12);
type = Stem;
},
{
place = (69, 15);
place = (69, 15);
type = Stem;
}
);
layerId = m01;
shapes = (
{
closed = 1;
nodes = (
(84,715,l),
(69,715,l),
(69,0,l),
(84,0,l)
);
},
{
closed = 1;
nodes = (
(85,862,l),
(69,862,l),
(-25,758,l),
(-8,758,l),
(77,850,l),
(162,758,l),
(179,758,l)
);
}
);
width = 153;
}
);
note = Icircumflex;
unicode = 206;
},
{
glyphname = Idieresis;
layers = (
{
hints = (
{
horizontal = 1;
place = (0, 21);
target = up;
type = BottomGhost;
},
{
horizontal = 1;
place = (715, -20);
target = down;
type = TopGhost;
},
{
horizontal = 1;
place = (782, 54);
place = (782, 54);
type = Stem;
},
{
place = (10, 15);
place = (10, 15);
type = Stem;
},
{
place = (69, 15);
place = (69, 15);
type = Stem;
},
{
place = (128, 15);
place = (128, 15);
type = Stem;
}
);
layerId = m01;
shapes = (
{
closed = 1;
nodes = (
(25,836,l),
(10,836,l),
(10,782,l),
(25,782,l)
);
},
{
closed = 1;
nodes = (
(143,836,l),
(128,836,l),
(128,782,l),
(143,782,l)
);
},
{
closed = 1;
nodes = (
(84,715,l),
(69,715,l),
(69,0,l),
(84,0,l)
);
}
);
width = 153;
}
);
note = Idieresis;
unicode = 207;
},
{
glyphname = Igrave;
layers = (
{
hints = (
{
horizontal = 1;
place = (0, 21);
target = up;
type = BottomGhost;
},
{
horizontal = 1;
place = (715, -20);
target = down;
type = TopGhost;
},
{
place = (69, 15);
place = (69, 15);
type = Stem;
}
);
layerId = m01;
shapes = (
{
closed = 1;
nodes = (
(84,715,l),
(69,715,l),
(69,0,l),
(84,0,l)
);
},
{
closed = 1;
nodes = (
(16,871,l),
(-1,871,l),
(66,756,l),
(82,756,l)
);
}
);
width = 153;
}
);
note = Igrave;
unicode = 204;
},
{
glyphname = Oacute;
kernLeft = C;
kernRight = O;
layers = (
{
hints = (
{
horizontal = 1;
place = (-8, 14);
place = (-8, 14);
type = Stem;
},
{
horizontal = 1;
place = (709, 14);
place = (709, 14);
type = Stem;
},
{
place = (40, 15);
place = (40, 15);
type = Stem;
},
{
place = (694, 15);
place = (694, 15);
type = Stem;
}
);
layerId = m01;
shapes = (
{
closed = 1;
nodes = (
(568,-8,o),
(709,146,o),
(709,357,cs),
(709,569,o),
(568,723,o),
(374,723,cs),
(180,723,o),
(40,569,o),
(40,357,cs),
(40,145,o),
(180,-8,o),
(374,-8,cs)
);
},
{
closed = 1;
nodes = (
(184,6,o),
(55,159,o),
(55,357,cs),
(55,556,o),
(184,709,o),
(374,709,cs),
(563,709,o),
(694,555,o),
(694,357,cs),
(694,160,o),
(563,6,o),
(374,6,cs)
);
},
{
closed = 1;
nodes = (
(353,756,l),
(369,756,l),
(431,871,l),
(414,871,l)
);
}
);
width = 749;
}
);
note = Oacute;
unicode = 211;
},
{
glyphname = Ocircumflex;
kernLeft = C;
kernRight = O;
layers = (
{
hints = (
{
horizontal = 1;
place = (-8, 14);
place = (-8, 14);
type = Stem;
},
{
horizontal = 1;
place = (709, 14);
place = (709, 14);
type = Stem;
},
{
horizontal = 1;
place = (850, 12);
place = (850, 12);
type = Stem;
},
{
place = (40, 15);
place = (40, 15);
type = Stem;
},
{
place = (694, 15);
place = (694, 15);
type = Stem;
}
);
layerId = m01;
shapes = (
{
closed = 1;
nodes = (
(568,-8,o),
(709,146,o),
(709,357,cs),
(709,569,o),
(568,723,o),
(374,723,cs),
(180,723,o),
(40,569,o),
(40,357,cs),
(40,145,o),
(180,-8,o),
(374,-8,cs)
);
},
{
closed = 1;
nodes = (
(184,6,o),
(55,159,o),
(55,357,cs),
(55,556,o),
(184,709,o),
(374,709,cs),
(563,709,o),
(694,555,o),
(694,357,cs),
(694,160,o),
(563,6,o),
(374,6,cs)
);
},
{
closed = 1;
nodes = (
(382,862,l),
(366,862,l),
(272,758,l),
(289,758,l),
(374,850,l),
(459,758,l),
(476,758,l)
);
}
);
width = 749;
}
);
note = Ocircumflex;
unicode = 212;
},
{
glyphname = Ograve;
kernLeft = C;
kernRight = O;
layers = (
{
hints = (
{
horizontal = 1;
place = (-8, 14);
place = (-8, 14);
type = Stem;
},
{
horizontal = 1;
place = (709, 14);
place = (709, 14);
type = Stem;
},
{
place = (40, 15);
place = (40, 15);
type = Stem;
},
{
place = (694, 15);
place = (694, 15);
type = Stem;
}
);
layerId = m01;
shapes = (
{
closed = 1;
nodes = (
(568,-8,o),
(709,146,o),
(709,357,cs),
(709,569,o),
(568,723,o),
(374,723,cs),
(180,723,o),
(40,569,o),
(40,357,cs),
(40,145,o),
(180,-8,o),
(374,-8,cs)
);
},
{
closed = 1;
nodes = (
(184,6,o),
(55,159,o),
(55,357,cs),
(55,556,o),
(184,709,o),
(374,709,cs),
(563,709,o),
(694,555,o),
(694,357,cs),
(694,160,o),
(563,6,o),
(374,6,cs)
);
},
{
closed = 1;
nodes = (
(318,871,l),
(301,871,l),
(368,756,l),
(384,756,l)
);
}
);
width = 749;
}
);
note = Ograve;
unicode = 210;
},
{
glyphname = Uacute;
kernLeft = U;
kernRight = U;
layers = (
{
hints = (
{
horizontal = 1;
place = (-9, 14);
place = (-9, 14);
type = Stem;
},
{
horizontal = 1;
place = (715, -20);
target = down;
type = TopGhost;
},
{
place = (55, 15);
place = (55, 15);
type = Stem;
},
{
place = (556, 15);
place = (556, 15);
type = Stem;
}
);
layerId = m01;
shapes = (
{
closed = 1;
nodes = (
(55,715,l),
(55,236,ls),
(55,58,o),
(171,-9,o),
(313,-9,cs),
(452,-9,o),
(571,58,o),
(571,236,cs),
(571,715,l),
(556,715,l),
(556,236,ls),
(556,68,o),
(445,5,o),
(313,5,cs),
(178,5,o),
(70,68,o),
(70,236,cs),
(70,715,l)
);
},
{
closed = 1;
nodes = (
(288,756,l),
(304,756,l),
(366,871,l),
(349,871,l)
);
}
);
width = 626;
}
);
note = Uacute;
unicode = 218;
},
{
glyphname = Ucircumflex;
kernLeft = U;
kernRight = U;
layers = (
{
hints = (
{
horizontal = 1;
place = (-9, 14);
place = (-9, 14);
type = Stem;
},
{
horizontal = 1;
place = (715, -20);
target = down;
type = TopGhost;
},
{
horizontal = 1;
place = (850, 12);
place = (850, 12);
type = Stem;
},
{
place = (55, 15);
place = (55, 15);
type = Stem;
},
{
place = (556, 15);
place = (556, 15);
type = Stem;
}
);
layerId = m01;
shapes = (
{
closed = 1;
nodes = (
(55,715,l),
(55,236,ls),
(55,58,o),
(171,-9,o),
(313,-9,cs),
(452,-9,o),
(571,58,o),
(571,236,cs),
(571,715,l),
(556,715,l),
(556,236,ls),
(556,68,o),
(445,5,o),
(313,5,cs),
(178,5,o),
(70,68,o),
(70,236,cs),
(70,715,l)
);
},
{
closed = 1;
nodes = (
(326,862,l),
(310,862,l),
(216,758,l),
(233,758,l),
(318,850,l),
(403,758,l),
(420,758,l)
);
}
);
width = 626;
}
);
note = Ucircumflex;
unicode = 219;
},
{
glyphname = Ugrave;
kernLeft = U;
kernRight = U;
layers = (
{
hints = (
{
horizontal = 1;
place = (-9, 14);
place = (-9, 14);
type = Stem;
},
{
horizontal = 1;
place = (715, -20);
target = down;
type = TopGhost;
},
{
place = (55, 15);
place = (55, 15);
type = Stem;
},
{
place = (556, 15);
place = (556, 15);
type = Stem;
}
);
layerId = m01;
shapes = (
{
closed = 1;
nodes = (
(55,715,l),
(55,236,ls),
(55,58,o),
(171,-9,o),
(313,-9,cs),
(452,-9,o),
(571,58,o),
(571,236,cs),
(571,715,l),
(556,715,l),
(556,236,ls),
(556,68,o),
(445,5,o),
(313,5,cs),
(178,5,o),
(70,68,o),
(70,236,cs),
(70,715,l)
);
},
{
closed = 1;
nodes = (
(270,871,l),
(253,871,l),
(320,756,l),
(336,756,l)
);
}
);
width = 626;
}
);
note = Ugrave;
unicode = 217;
},
{
glyphname = dotlessi;
kernLeft = m;
kernRight = u;
layers = (
{
hints = (
{
horizontal = 1;
place = (0, 21);
target = up;
type = BottomGhost;
},
{
horizontal = 1;
place = (517, -20);
target = down;
type = TopGhost;
},
{
place = (55, 15);
place = (55, 15);
type = Stem;
}
);
layerId = m01;
shapes = (
{
closed = 1;
nodes = (
(70,517,l),
(55,517,l),
(55,0,l),
(70,0,l)
);
}
);
width = 125;
}
);
note = dotlessi;
unicode = 305;
},
{
glyphname = circumflex;
layers = (
{
hints = (
{
horizontal = 1;
place = (696, 12);
place = (696, 12);
type = Stem;
},
{
place = (113, 204);
place = (113, 204);
type = Stem;
}
);
layerId = m01;
shapes = (
{
closed = 1;
nodes = (
(223,708,l),
(207,708,l),
(113,604,l),
(130,604,l),
(215,696,l),
(300,604,l),
(317,604,l)
);
}
);
width = 430;
}
);
note = circumflex;
unicode = 710;
},
{
glyphname = tilde;
layers = (
{
hints = (
{
horizontal = 1;
place = (612, 14);
place = (612, 14);
type = Stem;
},
{
horizontal = 1;
place = (672, 14);
place = (672, 14);
type = Stem;
},
{
place = (110, 14);
place = (110, 14);
type = Stem;
},
{
place = (360, 14);
place = (360, 14);
type = Stem;
}
);
layerId = m01;
shapes = (
{
closed = 1;
nodes = (
(137,686,o),
(112,659,o),
(110,611,c),
(124,611,l),
(127,655,o),
(145,672,o),
(171,672,cs),
(230,672,o),
(248,612,o),
(312,612,cs),
(347,612,o),
(372,637,o),
(374,687,c),
(360,687,l),
(357,643,o),
(339,626,o),
(313,626,cs),
(254,626,o),
(238,686,o),
(172,686,cs)
);
}
);
width = 485;
}
);
note = tilde;
unicode = 732;
},
{
glyphname = macron;
layers = (
{
hints = (
{
horizontal = 1;
place = (650, 14);
place = (650, 14);
type = Stem;
},
{
place = (121, 218);
place = (121, 218);
type = Stem;
}
);
layerId = m01;
shapes = (
{
closed = 1;
nodes = (
(121,650,l),
(339,650,l),
(339,664,l),
(121,664,l)
);
}
);
width = 460;
}
);
note = macron;
unicode = 175;
},
{
glyphname = breve;
layers = (
{
hints = (
{
horizontal = 1;
place = (616, 14);
place = (616, 14);
type = Stem;
},
{
place = (123, 14);
place = (123, 14);
type = Stem;
},
{
place = (341, 14);
place = (341, 14);
type = Stem;
}
);
layerId = m01;
shapes = (
{
closed = 1;
nodes = (
(310,616,o),
(350,654,o),
(355,706,c),
(341,706,l),
(334,662,o),
(302,630,o),
(239,630,cs),
(176,630,o),
(144,662,o),
(137,706,c),
(123,706,l),
(128,654,o),
(168,616,o),
(239,616,cs)
);
}
);
width = 478;
}
);
note = breve;
unicode = 728;
},
{
glyphname = dotaccent;
layers = (
{
hints = (
{
horizontal = 1;
place = (640, 55);
place = (640, 55);
type = Stem;
},
{
place = (209, 17);
place = (209, 17);
type = Stem;
}
);
layerId = m01;
shapes = (
{
closed = 1;
nodes = (
(226,695,l),
(209,695,l),
(209,640,l),
(226,640,l)
);
}
);
width = 436;
}
);
note = dotaccent;
unicode = 729;
},
{
glyphname = ring;
layers = (
{
hints = (
{
horizontal = 1;
place = (567, 13);
place = (567, 13);
type = Stem;
},
{
horizontal = 1;
place = (707, 13);
place = (707, 13);
type = Stem;
},
{
place = (167, 14);
place = (167, 14);
type = Stem;
},
{
place = (305, 14);
place = (305, 14);
type = Stem;
}
);
layerId = m01;
shapes = (
{
closed = 1;
nodes = (
(288,567,o),
(319,598,o),
(319,644,cs),
(319,689,o),
(288,720,o),
(243,720,cs),
(198,720,o),
(167,689,o),
(167,644,cs),
(167,598,o),
(198,567,o),
(243,567,cs)
);
},
{
closed = 1;
nodes = (
(205,580,o),
(181,607,o),
(181,644,cs),
(181,681,o),
(205,707,o),
(243,707,cs),
(281,707,o),
(305,681,o),
(305,644,cs),
(305,607,o),
(281,580,o),
(243,580,cs)
);
}
);
width = 487;
}
);
note = ring;
unicode = 730;
},
{
glyphname = cedilla;
layers = (
{
hints = (
{
horizontal = 1;
place = (-179, 14);
place = (-179, 14);
type = Stem;
},
{
horizontal = 1;
place = (-68, 14);
place = (-68, 14);
type = Stem;
},
{
place = (306, 15);
place = (306, 15);
type = Stem;
},
{
horizontal = 1;
place = (-150, 21);
target = up;
type = BottomGhost;
}
);
layerId = m01;
shapes = (
{
closed = 1;
nodes = (
(256,0,l),
(181,-72,l),
(188,-82,l),
(203,-73,o),
(222,-68,o),
(243,-68,cs),
(285,-68,o),
(306,-84,o),
(306,-111,cs),
(306,-151,o),
(270,-165,o),
(226,-165,cs),
(196,-165,o),
(161,-155,o),
(136,-138,c),
(129,-150,l),
(158,-169,o),
(195,-179,o),
(226,-179,cs),
(278,-179,o),
(321,-158,o),
(321,-111,cs),
(321,-77,o),
(294,-54,o),
(243,-54,cs),
(229,-54,o),
(215,-58,o),
(211,-60,c),
(275,0,l)
);
}
);
width = 489;
}
);
note = cedilla;
unicode = 184;
},
{
glyphname = hungarumlaut;
layers = (
{
hints = (
{
horizontal = 1;
place = (604, 121);
place = (604, 121);
type = Stem;
},
{
place = (137, 194);
place = (137, 194);
type = Stem;
}
);
layerId = m01;
shapes = (
{
closed = 1;
nodes = (
(137,604,l),
(152,604,l),
(209,725,l),
(193,725,l)
);
},
{
closed = 1;
nodes = (
(259,604,l),
(274,604,l),
(331,725,l),
(315,725,l)
);
}
);
width = 451;
}
);
note = hungarumlaut;
unicode = 733;
},
{
glyphname = ogonek;
layers = (
{
hints = (
{
horizontal = 1;
place = (-172, 14);
place = (-172, 14);
type = Stem;
},
{
place = (128, 15);
place = (128, 15);
type = Stem;
}
);
layerId = m01;
shapes = (
{
closed = 1;
nodes = (
(205,0,l),
(160,-22,o),
(128,-51,o),
(128,-93,cs),
(128,-137,o),
(158,-172,o),
(223,-172,cs),
(248,-172,o),
(262,-168,o),
(273,-163,c),
(273,-149,l),
(271,-149,l),
(258,-155,o),
(245,-158,o),
(223,-158,cs),
(167,-158,o),
(143,-129,o),
(143,-93,cs),
(143,-55,o),
(172,-27,o),
(232,0,c)
);
}
);
width = 489;
}
);
note = ogonek;
unicode = 731;
},
{
glyphname = caron;
layers = (
{
hints = (
{
horizontal = 1;
place = (602, 12);
place = (602, 12);
type = Stem;
},
{
place = (113, 204);
place = (113, 204);
type = Stem;
}
);
layerId = m01;
shapes = (
{
closed = 1;
nodes = (
(317,706,l),
(300,706,l),
(215,614,l),
(130,706,l),
(113,706,l),
(207,602,l),
(223,602,l)
);
}
);
width = 430;
}
);
note = caron;
unicode = 711;
},
{
glyphname = Amacron;
kernLeft = A;
kernRight = A;
layers = (
{
hints = (
{
horizontal = 1;
place = (0, 21);
target = up;
type = BottomGhost;
},
{
horizontal = 1;
place = (256, 14);
place = (256, 14);
type = Stem;
},
{
horizontal = 1;
place = (695, 20);
place = (695, 20);
type = Stem;
},
{
horizontal = 1;
place = (787, 14);
place = (787, 14);
type = Stem;
},
{
place = (10, 568);
place = (10, 568);
type = Stem;
}
);
layerId = m01;
shapes = (
{
closed = 1;
nodes = (
(562,0,l),
(578,0,l),
(303,715,l),
(285,715,l),
(10,0,l),
(26,0,l),
(125,256,l),
(463,256,l)
);
},
{
closed = 1;
nodes = (
(294,695,l),
(458,270,l),
(130,270,l)
);
},
{
closed = 1;
nodes = (
(185,787,l),
(403,787,l),
(403,801,l),
(185,801,l)
);
}
);
width = 588;
}
);
note = Amacron;
unicode = 256;
},
{
glyphname = Abreve;
kernLeft = A;
kernRight = A;
layers = (
{
hints = (
{
horizontal = 1;
place = (0, 21);
target = up;
type = BottomGhost;
},
{
horizontal = 1;
place = (256, 14);
place = (256, 14);
type = Stem;
},
{
horizontal = 1;
place = (695, 20);
place = (695, 20);
type = Stem;
},
{
horizontal = 1;
place = (771, 14);
place = (771, 14);
type = Stem;
},
{
place = (178, 14);
place = (178, 14);
type = Stem;
},
{
place = (396, 14);
place = (396, 14);
type = Stem;
}
);
layerId = m01;
shapes = (
{
closed = 1;
nodes = (
(562,0,l),
(578,0,l),
(303,715,l),
(285,715,l),
(10,0,l),
(26,0,l),
(125,256,l),
(463,256,l)
);
},
{
closed = 1;
nodes = (
(294,695,l),
(458,270,l),
(130,270,l)
);
},
{
closed = 1;
nodes = (
(365,771,o),
(405,809,o),
(410,861,c),
(396,861,l),
(389,817,o),
(357,785,o),
(294,785,cs),
(231,785,o),
(199,817,o),
(192,861,c),
(178,861,l),
(183,809,o),
(223,771,o),
(294,771,cs)
);
}
);
width = 588;
}
);
note = Abreve;
unicode = 258;
},
{
glyphname = Aogonek;
kernLeft = A;
kernRight = A;
layers = (
{
hints = (
{
horizontal = 1;
place = (-172, 14);
place = (-172, 14);
type = Stem;
},
{
horizontal = 1;
place = (0, 21);
target = up;
type = BottomGhost;
},
{
horizontal = 1;
place = (256, 14);
place = (256, 14);
type = Stem;
},
{
horizontal = 1;
place = (695, 20);
place = (695, 20);
type = Stem;
},
{
place = (481, 15);
place = (481, 15);
type = Stem;
}
);
layerId = m01;
shapes = (
{
closed = 1;
nodes = (
(303,715,l),
(285,715,l),
(10,0,l),
(26,0,l),
(125,256,l),
(463,256,l),
(560,6,l),
(508,-29,o),
(481,-62,o),
(481,-102,cs),
(481,-149,o),
(519,-172,o),
(561,-172,cs),
(583,-172,o),
(606,-165,o),
(615,-160,c),
(615,-147,l),
(613,-147,l),
(604,-152,o),
(585,-158,o),
(561,-158,cs),
(526,-158,o),
(496,-139,o),
(496,-102,cs),
(496,-64,o),
(525,-33,o),
(577,2,c)
);
},
{
closed = 1;
nodes = (
(294,695,l),
(335,589,l),
(458,270,l),
(130,270,l),
(253,589,l)
);
}
);
width = 588;
}
);
note = Aogonek;
unicode = 260;
},
{
glyphname = AEacute;
kernLeft = AE;
kernRight = E;
layers = (
{
hints = (
{
horizontal = 1;
place = (0, 14);
place = (0, 14);
type = Stem;
},
{
horizontal = 1;
place = (256, 14);
place = (256, 14);
type = Stem;
},
{
horizontal = 1;
place = (364, 14);
place = (364, 14);
type = Stem;
},
{
horizontal = 1;
place = (701, 14);
place = (701, 14);
type = Stem;
},
{
place = (429, 15);
place = (429, 15);
type = Stem;
}
);
layerId = m01;
shapes = (
{
closed = 1;
nodes = (
(516,756,l),
(532,756,l),
(594,871,l),
(577,871,l)
);
},
{
closed = 1;
nodes = (
(444,701,l),
(841,701,l),
(841,715,l),
(289,715,l),
(14,0,l),
(30,0,l),
(129,256,l),
(429,256,l),
(429,0,l),
(851,0,l),
(851,14,l),
(444,14,l),
(444,364,l),
(806,364,l),
(806,378,l),
(444,378,l)
);
},
{
closed = 1;
nodes = (
(300,701,l),
(429,701,l),
(429,270,l),
(134,270,l)
);
}
);
width = 889;
}
);
note = AEacute;
unicode = 508;
},
{
glyphname = Cacute;
kernLeft = C;
kernRight = C;
layers = (
{
hints = (
{
horizontal = 1;
place = (-9, 14);
place = (-9, 14);
type = Stem;
},
{
horizontal = 1;
place = (709, 14);
place = (709, 14);
type = Stem;
},
{
place = (40, 15);
place = (40, 15);
type = Stem;
},
{
place = (642, 14);
place = (642, 14);
type = Stem;
}
);
layerId = m01;
shapes = (
{
closed = 1;
nodes = (
(646,510,l),
(629,619,o),
(535,723,o),
(371,723,cs),
(167,723,o),
(40,571,o),
(40,358,cs),
(40,136,o),
(171,-9,o),
(367,-9,cs),
(455,-9,o),
(524,23,o),
(572,71,cs),
(621,120,o),
(650,185,o),
(656,253,c),
(642,253,l),
(627,122,o),
(533,5,o),
(367,5,cs),
(178,5,o),
(55,146,o),
(55,358,cs),
(55,562,o),
(173,709,o),
(371,709,cs),
(527,709,o),
(616,611,o),
(632,510,c)
);
},
{
closed = 1;
nodes = (
(361,756,l),
(377,756,l),
(439,871,l),
(422,871,l)
);
}
);
width = 690;
}
);
note = Cacute;
unicode = 262;
},
{
glyphname = Ccircumflex;
kernLeft = C;
kernRight = C;
layers = (
{
hints = (
{
horizontal = 1;
place = (-9, 14);
place = (-9, 14);
type = Stem;
},
{
horizontal = 1;
place = (709, 14);
place = (709, 14);
type = Stem;
},
{
horizontal = 1;
place = (850, 12);
place = (850, 12);
type = Stem;
},
{
place = (40, 15);
place = (40, 15);
type = Stem;
},
{
place = (642, 14);
place = (642, 14);
type = Stem;
}
);
layerId = m01;
shapes = (
{
closed = 1;
nodes = (
(646,510,l),
(629,619,o),
(535,723,o),
(371,723,cs),
(167,723,o),
(40,571,o),
(40,358,cs),
(40,136,o),
(171,-9,o),
(367,-9,cs),
(455,-9,o),
(524,23,o),
(572,71,cs),
(621,120,o),
(650,185,o),
(656,253,c),
(642,253,l),
(627,122,o),
(533,5,o),
(367,5,cs),
(178,5,o),
(55,146,o),
(55,358,cs),
(55,562,o),
(173,709,o),
(371,709,cs),
(527,709,o),
(616,611,o),
(632,510,c)
);
},
{
closed = 1;
nodes = (
(379,862,l),
(363,862,l),
(269,758,l),
(286,758,l),
(371,850,l),
(456,758,l),
(473,758,l)
);
}
);
width = 690;
}
);
note = Ccircumflex;
unicode = 264;
},
